EBGaramond12-Regular.ufo
<glyph name="exclam" format="1">
  <advance width="285"/>
  <unicode hex="0021"/>
  <outline>
    <contour>
      <point x="160" y="106" type="curve" smooth="yes"/>
      <point x="193" y="106"/>
      <point x="220" y="79"/>
      <point x="220" y="46" type="curve" smooth="yes"/>
      <point x="220" y="13"/>
      <point x="193" y="-14"/>
      <point x="160" y="-14" type="curve" smooth="yes"/>
      <point x="127" y="-14"/>
      <point x="100" y="13"/>
      <point x="100" y="46" type="curve" smooth="yes"/>
      <point x="100" y="79"/>
      <point x="127" y="106"/>
    </contour>
    <contour>
      <point x="114" y="598" type="curve" smooth="yes"/>
      <point x="114" y="625"/>
      <point x="134" y="649"/>
      <point x="161" y="649" type="curve" smooth="yes"/>
      <point x="188" y="649"/>
      <point x="206" y="625"/>
      <point x="206" y="598" type="curve" smooth="yes"/>
      <point x="206" y="535"/>
      <point x="187.916" y="357.375"/>
      <point x="176" y="244" type="curve" smooth="yes"/>
      <point x="173.679" y="221.922"/>
      <point x="168" y="205"/>
      <point x="158" y="205" type="curve" smooth="yes"/>
      <point x="148" y="205"/>
      <point x="143" y="215"/>
      <point x="140" y="244" type="curve" smooth="yes"/>
      <point x="128" y="358"/>
      <point x="114" y="535"/>
    </contour>
  </outline>
</glyph>
<glyph name="numbersign" format="1">
  <advance width="468"/>
  <unicode hex="0023"/>
  <outline>
    <contour>
      <point x="134" y="206" type="line"/>
      <point x="90" y="27" type="line" smooth="yes"/>
      <point x="87" y="14"/>
      <point x="73" y="12"/>
      <point x="60" y="12" type="curve" smooth="yes"/>
      <point x="54" y="12"/>
      <point x="50" y="18"/>
      <point x="50" y="24" type="curve" smooth="yes"/>
      <point x="50" y="25"/>
      <point x="50" y="26"/>
      <point x="50" y="27" type="curve" smooth="yes"/>
      <point x="94" y="204" type="line"/>
      <point x="31" y="201" type="line" smooth="yes"/>
      <point x="24" y="201"/>
      <point x="17" y="206"/>
      <point x="17" y="213" type="curve" smooth="yes"/>
      <point x="17" y="223"/>
      <point x="20" y="260"/>
      <point x="41" y="261" type="curve" smooth="yes"/>
      <point x="108" y="264" type="line"/>
      <point x="142" y="402" type="line"/>
      <point x="78" y="399" type="line" smooth="yes"/>
      <point x="71" y="399"/>
      <point x="64" y="404"/>
      <point x="64" y="411" type="curve" smooth="yes"/>
      <point x="64" y="421"/>
      <point x="67" y="458"/>
      <point x="88" y="459" type="curve" smooth="yes"/>
      <point x="157" y="462" type="line"/>
      <point x="199" y="633" type="line" smooth="yes"/>
      <point x="202" y="647"/>
      <point x="218" y="650"/>
      <point x="232" y="650" type="curve" smooth="yes"/>
      <point x="237" y="650"/>
      <point x="240" y="644"/>
      <point x="240" y="638" type="curve" smooth="yes"/>
      <point x="240" y="636"/>
      <point x="239" y="635"/>
      <point x="239" y="633" type="curve" smooth="yes"/>
      <point x="198" y="464" type="line"/>
      <point x="311" y="470" type="line"/>
      <point x="354" y="644" type="line" smooth="yes"/>
      <point x="357" y="658"/>
      <point x="373" y="661"/>
      <point x="387" y="661" type="curve" smooth="yes"/>
      <point x="392" y="661"/>
      <point x="395" y="655"/>
      <point x="395" y="649" type="curve" smooth="yes"/>
      <point x="395" y="647"/>
      <point x="394" y="646"/>
      <point x="394" y="644" type="curve" smooth="yes"/>
      <point x="352" y="472" type="line"/>
      <point x="411" y="475" type="line" smooth="yes"/>
      <point x="418" y="475"/>
      <point x="424" y="471"/>
      <point x="424" y="464" type="curve" smooth="yes"/>
      <point x="424" y="454"/>
      <point x="415" y="416"/>
      <point x="393" y="415" type="curve" smooth="yes"/>
      <point x="337" y="412" type="line"/>
      <point x="303" y="274" type="line"/>
      <point x="364" y="277" type="line" smooth="yes"/>
      <point x="371" y="277"/>
      <point x="377" y="272"/>
      <point x="377" y="265" type="curve" smooth="yes"/>
      <point x="377" y="255"/>
      <point x="368" y="218"/>
      <point x="346" y="217" type="curve" smooth="yes"/>
      <point x="288" y="214" type="line"/>
      <point x="245" y="38" type="line" smooth="yes"/>
      <point x="242" y="25"/>
      <point x="228" y="23"/>
      <point x="215" y="23" type="curve" smooth="yes"/>
      <point x="209" y="23"/>
      <point x="205" y="29"/>
      <point x="205" y="35" type="curve" smooth="yes"/>
      <point x="205" y="36"/>
      <point x="205" y="37"/>
      <point x="205" y="38" type="curve" smooth="yes"/>
      <point x="248" y="212" type="line"/>
    </contour>
    <contour>
      <point x="149" y="266" type="line"/>
      <point x="263" y="272" type="line"/>
      <point x="296" y="410" type="line"/>
      <point x="183" y="404" type="line"/>
    </contour>
  </outline>
</glyph>
<glyph name="percent" format="1">
  <advance width="735"/>
  <unicode hex="0025"/>
  <outline>
    <contour>
      <point x="550" y="321" type="curve" smooth="yes"/>
      <point x="511" y="321"/>
      <point x="486" y="242"/>
      <point x="486" y="181" type="curve" smooth="yes"/>
      <point x="486" y="110"/>
      <point x="509" y="10"/>
      <point x="554" y="10" type="curve" smooth="yes"/>
      <point x="598" y="10"/>
      <point x="616" y="96"/>
      <point x="616" y="160" type="curve" smooth="yes"/>
      <point x="616" y="227"/>
      <point x="591" y="321"/>
    </contour>
    <contour>
      <point x="561" y="348" type="curve" smooth="yes"/>
      <point x="644" y="348"/>
      <point x="686" y="262"/>
      <point x="686" y="177" type="curve" smooth="yes"/>
      <point x="686" y="83"/>
      <point x="638" y="-14"/>
      <point x="543" y="-14" type="curve" smooth="yes"/>
      <point x="457" y="-14"/>
      <point x="416" y="74"/>
      <point x="416" y="166" type="curve" smooth="yes"/>
      <point x="416" y="252"/>
      <point x="470" y="348"/>
    </contour>
    <contour>
      <point x="183" y="603" type="curve" smooth="yes"/>
      <point x="144" y="603"/>
      <point x="119" y="524"/>
      <point x="119" y="463" type="curve" smooth="yes"/>
      <point x="119" y="392"/>
      <point x="142" y="292"/>
      <point x="187" y="292" type="curve" smooth="yes"/>
      <point x="231" y="292"/>
      <point x="249" y="378"/>
      <point x="249" y="442" type="curve" smooth="yes"/>
      <point x="249" y="509"/>
      <point x="224" y="603"/>
    </contour>
    <contour>
      <point x="194" y="630" type="curve" smooth="yes"/>
      <point x="277" y="630"/>
      <point x="319" y="544"/>
      <point x="319" y="459" type="curve" smooth="yes"/>
      <point x="319" y="365"/>
      <point x="271" y="268"/>
      <point x="176" y="268" type="curve" smooth="yes"/>
      <point x="90" y="268"/>
      <point x="49" y="356"/>
      <point x="49" y="448" type="curve" smooth="yes"/>
      <point x="49" y="534"/>
      <point x="103" y="630"/>
    </contour>
    <contour>
      <point x="136" y="-11" type="curve" smooth="yes"/>
      <point x="548" y="638" type="line" smooth="yes"/>
      <point x="557" y="652"/>
      <point x="570" y="655"/>
      <point x="587" y="655" type="curve" smooth="yes"/>
      <point x="594" y="655"/>
      <point x="601" y="648"/>
      <point x="601" y="642" type="curve" smooth="yes"/>
      <point x="601" y="641"/>
      <point x="601" y="639"/>
      <point x="600" y="638" type="curve" smooth="yes"/>
      <point x="188" y="-11" type="line" smooth="yes"/>
      <point x="180" y="-24"/>
      <point x="167" y="-26"/>
      <point x="152" y="-26" type="curve" smooth="yes"/>
      <point x="144" y="-26"/>
      <point x="135" y="-20"/>
      <point x="135" y="-14" type="curve" smooth="yes"/>
      <point x="135" y="-13"/>
      <point x="135" y="-12"/>
    </contour>
  </outline>
</glyph>
<glyph name="parenright" format="1">
  <advance width="316"/>
  <unicode hex="0029"/>
  <outline>
    <contour>
      <point x="266" y="281" type="curve" smooth="yes"/>
      <point x="266" y="111"/>
      <point x="154" y="-136"/>
      <point x="83" y="-207" type="curve" smooth="yes"/>
      <point x="79" y="-211"/>
      <point x="73" y="-213"/>
      <point x="66" y="-213" type="curve" smooth="yes"/>
      <point x="52" y="-213"/>
      <point x="36" y="-205"/>
      <point x="36" y="-195" type="curve" smooth="yes"/>
      <point x="36" y="-192"/>
      <point x="43" y="-184"/>
      <point x="46" y="-181" type="curve" smooth="yes"/>
      <point x="117" y="-110"/>
      <point x="206" y="97"/>
      <point x="206" y="267" type="curve" smooth="yes"/>
      <point x="206" y="437"/>
      <point x="119" y="608"/>
      <point x="48" y="679" type="curve" smooth="yes"/>
      <point x="45" y="682"/>
      <point x="40" y="688"/>
      <point x="40" y="691" type="curve" smooth="yes"/>
      <point x="40" y="700"/>
      <point x="56" y="704"/>
      <point x="67" y="704" type="curve" smooth="yes"/>
      <point x="77" y="704"/>
      <point x="84" y="701"/>
      <point x="91" y="694" type="curve" smooth="yes"/>
      <point x="162" y="623"/>
      <point x="266" y="451"/>
    </contour>
  </outline>
</glyph>
<glyph name="hyphen" format="1">
  <advance width="274"/>
  <unicode hex="002D"/>
  <outline>
    <contour>
      <point x="35" y="170" type="curve" smooth="yes"/>
      <point x="30" y="170"/>
      <point x="29" y="172"/>
      <point x="29" y="176" type="curve" smooth="yes"/>
      <point x="29" y="198"/>
      <point x="35" y="229"/>
      <point x="45" y="230" type="curve" smooth="yes"/>
      <point x="109" y="239"/>
      <point x="173" y="248"/>
      <point x="237" y="255" type="curve" smooth="yes"/>
      <point x="241" y="255"/>
      <point x="245" y="253"/>
      <point x="245" y="249" type="curve" smooth="yes"/>
      <point x="245" y="224"/>
      <point x="240" y="197"/>
      <point x="224" y="195" type="curve" smooth="yes"/>
      <point x="164" y="186"/>
      <point x="103" y="176"/>
    </contour>
  </outline>
</glyph>
<glyph name="period" format="1">
  <advance width="230"/>
  <unicode hex="002E"/>
  <outline>
    <contour>
      <point x="115" y="96" type="curve" smooth="yes"/>
      <point x="145" y="96"/>
      <point x="170" y="71"/>
      <point x="170" y="41" type="curve" smooth="yes"/>
      <point x="170" y="11"/>
      <point x="145" y="-14"/>
      <point x="115" y="-14" type="curve" smooth="yes"/>
      <point x="85" y="-14"/>
      <point x="60" y="11"/>
      <point x="60" y="41" type="curve" smooth="yes"/>
      <point x="60" y="71"/>
      <point x="85" y="96"/>
    </contour>
  </outline>
</glyph>
<glyph name="slash" format="1">
  <advance width="399"/>
  <unicode hex="002F"/>
  <outline>
    <contour>
      <point x="30" y="-47" type="curve" smooth="yes"/>
      <point x="327" y="648" type="line" smooth="yes"/>
      <point x="334" y="663"/>
      <point x="349" y="665"/>
      <point x="366" y="665" type="curve" smooth="yes"/>
      <point x="373" y="665"/>
      <point x="380" y="659"/>
      <point x="380" y="652" type="curve" smooth="yes"/>
      <point x="380" y="651"/>
      <point x="379" y="649"/>
      <point x="379" y="648" type="curve" smooth="yes"/>
      <point x="82" y="-47" type="line" smooth="yes"/>
      <point x="76" y="-61"/>
      <point x="61" y="-62"/>
      <point x="46" y="-62" type="curve" smooth="yes"/>
      <point x="38" y="-62"/>
      <point x="29" y="-57"/>
      <point x="29" y="-50" type="curve" smooth="yes"/>
      <point x="29" y="-49"/>
      <point x="30" y="-48"/>
    </contour>
  </outline>
</glyph>
<glyph name="five" format="1">
  <advance width="359"/>
  <unicode hex="0035"/>
  <outline>
    <contour>
      <point x="86" y="-189" type="curve" smooth="yes"/>
      <point x="71" y="-189"/>
      <point x="52" y="-186"/>
      <point x="52" y="-177" type="curve" smooth="yes"/>
      <point x="52" y="-167"/>
      <point x="73" y="-162"/>
      <point x="85" y="-160" type="curve" smooth="yes"/>
      <point x="160" y="-147"/>
      <point x="229" y="-106"/>
      <point x="229" y="0" type="curve" smooth="yes"/>
      <point x="229" y="67"/>
      <point x="171" y="129"/>
      <point x="108" y="167" type="curve" smooth="yes"/>
      <point x="70" y="190"/>
      <point x="58" y="205"/>
      <point x="58" y="222" type="curve" smooth="yes"/>
      <point x="58" y="276"/>
      <point x="81" y="330"/>
      <point x="89" y="347" type="curve" smooth="yes"/>
      <point x="98" y="366"/>
      <point x="115" y="376"/>
      <point x="125" y="380" type="curve" smooth="yes"/>
      <point x="165" y="395"/>
      <point x="257" y="415"/>
      <point x="272" y="415" type="curve" smooth="yes"/>
      <point x="279" y="415"/>
      <point x="283" y="408"/>
      <point x="283" y="401" type="curve" smooth="yes"/>
      <point x="283" y="376"/>
      <point x="259" y="333"/>
      <point x="232" y="328" type="curve" smooth="yes"/>
      <point x="181" y="318"/>
      <point x="147" y="314"/>
      <point x="110" y="309" type="curve" smooth="yes"/>
      <point x="103" y="308"/>
      <point x="91" y="296"/>
      <point x="91" y="276" type="curve" smooth="yes"/>
      <point x="91" y="268"/>
      <point x="97" y="260"/>
      <point x="111" y="252" type="curve" smooth="yes"/>
      <point x="169" y="220"/>
      <point x="219" y="178"/>
      <point x="247" y="150" type="curve" smooth="yes"/>
      <point x="274" y="123"/>
      <point x="309" y="69"/>
      <point x="309" y="17" type="curve" smooth="yes"/>
      <point x="309" y="-112"/>
      <point x="186" y="-189"/>
    </contour>
  </outline>
</glyph>
<glyph name="six" format="1">
  <advance width="489"/>
  <unicode hex="0036"/>
  <outline>
    <contour>
      <point x="232" y="-14" type="curve" smooth="yes"/>
      <point x="100" y="-14"/>
      <point x="41" y="73"/>
      <point x="41" y="193" type="curve" smooth="yes"/>
      <point x="41" y="342"/>
      <point x="121" y="436"/>
      <point x="156" y="477" type="curve" smooth="yes"/>
      <point x="205" y="533"/>
      <point x="305" y="607"/>
      <point x="427" y="639" type="curve"/>
      <point x="432" y="639" type="line" smooth="yes"/>
      <point x="436" y="639"/>
      <point x="441" y="638"/>
      <point x="441" y="635" type="curve" smooth="yes"/>
      <point x="441" y="623"/>
      <point x="419" y="616"/>
      <point x="415" y="614" type="curve" smooth="yes"/>
      <point x="325" y="575"/>
      <point x="264" y="529"/>
      <point x="213" y="456" type="curve" smooth="yes"/>
      <point x="179" y="407"/>
      <point x="124" y="310"/>
      <point x="124" y="190" type="curve" smooth="yes"/>
      <point x="124" y="140"/>
      <point x="140" y="101"/>
      <point x="158" y="79" type="curve" smooth="yes"/>
      <point x="175" y="58"/>
      <point x="218" y="22"/>
      <point x="261" y="22" type="curve" smooth="yes"/>
      <point x="290" y="22"/>
      <point x="311" y="30"/>
      <point x="327" y="43" type="curve" smooth="yes"/>
      <point x="349" y="60"/>
      <point x="370" y="93"/>
      <point x="370" y="142" type="curve" smooth="yes"/>
      <point x="370" y="203"/>
      <point x="329" y="260"/>
      <point x="276" y="260" type="curve" smooth="yes"/>
      <point x="241" y="260"/>
      <point x="219" y="257"/>
      <point x="196" y="245" type="curve" smooth="yes"/>
      <point x="184" y="239"/>
      <point x="182" y="248"/>
      <point x="189" y="256" type="curve" smooth="yes"/>
      <point x="199" y="267"/>
      <point x="205" y="272"/>
      <point x="216" y="280" type="curve" smooth="yes"/>
      <point x="231" y="291"/>
      <point x="277" y="313"/>
      <point x="314" y="313" type="curve" smooth="yes"/>
      <point x="383" y="313"/>
      <point x="439" y="262"/>
      <point x="439" y="190" type="curve" smooth="yes"/>
      <point x="439" y="85"/>
      <point x="372" y="-14"/>
    </contour>
  </outline>
</glyph>
<glyph name="nine" format="1">
  <advance width="466"/>
  <unicode hex="0039"/>
  <outline>
    <contour>
      <point x="251" y="414" type="curve" smooth="yes"/>
      <point x="348" y="414"/>
      <point x="426" y="328"/>
      <point x="426" y="210" type="curve" smooth="yes"/>
      <point x="426" y="96"/>
      <point x="354" y="6"/>
      <point x="300" y="-47" type="curve" smooth="yes"/>
      <point x="245" y="-101"/>
      <point x="124" y="-176"/>
      <point x="55" y="-186" type="curve"/>
      <point x="50" y="-186" type="line" smooth="yes"/>
      <point x="45" y="-186"/>
      <point x="41" y="-185"/>
      <point x="41" y="-181" type="curve" smooth="yes"/>
      <point x="41" y="-174"/>
      <point x="48" y="-170"/>
      <point x="55" y="-168" type="curve" smooth="yes"/>
      <point x="112" y="-150"/>
      <point x="228" y="-56"/>
      <point x="270" y="0" type="curve" smooth="yes"/>
      <point x="306" y="48"/>
      <point x="346" y="114"/>
      <point x="346" y="227" type="curve" smooth="yes"/>
      <point x="346" y="310"/>
      <point x="291" y="378"/>
      <point x="218" y="378" type="curve" smooth="yes"/>
      <point x="153" y="378"/>
      <point x="122" y="316"/>
      <point x="122" y="267" type="curve" smooth="yes"/>
      <point x="122" y="206"/>
      <point x="167" y="142"/>
      <point x="220" y="142" type="curve" smooth="yes"/>
      <point x="261" y="142"/>
      <point x="275" y="156"/>
      <point x="300" y="168" type="curve" smooth="yes"/>
      <point x="305" y="170"/>
      <point x="309" y="161"/>
      <point x="307" y="157" type="curve" smooth="yes"/>
      <point x="300" y="144"/>
      <point x="285" y="130"/>
      <point x="274" y="122" type="curve" smooth="yes"/>
      <point x="259" y="111"/>
      <point x="219" y="89"/>
      <point x="182" y="89" type="curve" smooth="yes"/>
      <point x="113" y="89"/>
      <point x="53" y="143"/>
      <point x="53" y="215" type="curve" smooth="yes"/>
      <point x="53" y="306"/>
      <point x="130" y="414"/>
    </contour>
  </outline>
</glyph>
<glyph name="semicolon" format="1">
  <advance width="228"/>
  <unicode hex="003B"/>
  <outline>
    <contour>
      <point x="36" y="-147" type="curve" smooth="yes"/>
      <point x="24" y="-147"/>
      <point x="18" y="-142"/>
      <point x="18" y="-136" type="curve" smooth="yes"/>
      <point x="18" y="-131"/>
      <point x="23" y="-126"/>
      <point x="32" y="-124" type="curve" smooth="yes"/>
      <point x="75" y="-115"/>
      <point x="128" y="-85"/>
      <point x="128" y="-15" type="curve" smooth="yes"/>
      <point x="128" y="1"/>
      <point x="111" y="27"/>
      <point x="89" y="29" type="curve" smooth="yes"/>
      <point x="60" y="32"/>
      <point x="42" y="49"/>
      <point x="42" y="71" type="curve" smooth="yes"/>
      <point x="42" y="98"/>
      <point x="68" y="117"/>
      <point x="97" y="117" type="curve" smooth="yes"/>
      <point x="145" y="117"/>
      <point x="180" y="76"/>
      <point x="180" y="20" type="curve" smooth="yes"/>
      <point x="180" y="-81"/>
      <point x="87" y="-147"/>
    </contour>
    <contour>
      <point x="106" y="373" type="curve" smooth="yes"/>
      <point x="136" y="373"/>
      <point x="161" y="348"/>
      <point x="161" y="318" type="curve" smooth="yes"/>
      <point x="161" y="288"/>
      <point x="136" y="263"/>
      <point x="106" y="263" type="curve" smooth="yes"/>
      <point x="76" y="263"/>
      <point x="51" y="288"/>
      <point x="51" y="318" type="curve" smooth="yes"/>
      <point x="51" y="348"/>
      <point x="76" y="373"/>
    </contour>
  </outline>
</glyph>
<glyph name="less" format="1">
  <advance width="590"/>
  <unicode hex="003C"/>
  <outline>
    <contour>
      <point x="133" y="229" type="curve" smooth="yes"/>
      <point x="513" y="55" type="line" smooth="yes"/>
      <point x="532" y="46"/>
      <point x="537" y="16"/>
      <point x="537" y="7" type="curve" smooth="yes"/>
      <point x="537" y="2"/>
      <point x="532" y="-6"/>
      <point x="526" y="-6" type="curve" smooth="yes"/>
      <point x="525" y="-6"/>
      <point x="524" y="-5"/>
      <point x="523" y="-5" type="curve" smooth="yes"/>
      <point x="94" y="195" type="line" smooth="yes"/>
      <point x="77" y="203"/>
      <point x="53" y="216"/>
      <point x="53" y="222" type="curve" smooth="yes"/>
      <point x="53" y="231"/>
      <point x="66" y="259"/>
      <point x="86" y="268" type="curve" smooth="yes"/>
      <point x="523" y="468" type="line" smooth="yes"/>
      <point x="524" y="468"/>
      <point x="525" y="469"/>
      <point x="526" y="469" type="curve" smooth="yes"/>
      <point x="532" y="469"/>
      <point x="536" y="465"/>
      <point x="536" y="459" type="curve" smooth="yes"/>
      <point x="536" y="447"/>
      <point x="525" y="417"/>
      <point x="505" y="408" type="curve" smooth="yes"/>
      <point x="132" y="234" type="line" smooth="yes"/>
      <point x="129" y="233"/>
      <point x="130" y="230"/>
    </contour>
  </outline>
</glyph>
<glyph name="question" format="1">
  <advance width="387"/>
  <unicode hex="003F"/>
  <outline>
    <contour>
      <point x="180" y="106" type="curve" smooth="yes"/>
      <point x="213" y="106"/>
      <point x="240" y="79"/>
      <point x="240" y="46" type="curve" smooth="yes"/>
      <point x="240" y="13"/>
      <point x="213" y="-14"/>
      <point x="180" y="-14" type="curve" smooth="yes"/>
      <point x="147" y="-14"/>
      <point x="120" y="13"/>
      <point x="120" y="46" type="curve" smooth="yes"/>
      <point x="120" y="79"/>
      <point x="147" y="106"/>
    </contour>
    <contour>
      <point x="140" y="661" type="curve" smooth="yes"/>
      <point x="173" y="661"/>
      <point x="215" y="644"/>
      <point x="248" y="611" type="curve" smooth="yes"/>
      <point x="304" y="555"/>
      <point x="341" y="469"/>
      <point x="341" y="418" type="curve" smooth="yes"/>
      <point x="341" y="369"/>
      <point x="319" y="345"/>
      <point x="299" y="334" type="curve" smooth="yes"/>
      <point x="255" y="310"/>
      <point x="245" y="304"/>
      <point x="213" y="283" type="curve" smooth="yes"/>
      <point x="185" y="265"/>
      <point x="182" y="236"/>
      <point x="181" y="204" type="curve" smooth="yes"/>
      <point x="181" y="194"/>
      <point x="176" y="181"/>
      <point x="166" y="181" type="curve" smooth="yes"/>
      <point x="159" y="181"/>
      <point x="148" y="194"/>
      <point x="144" y="210" type="curve" smooth="yes"/>
      <point x="138" y="231"/>
      <point x="128" y="252"/>
      <point x="128" y="297" type="curve" smooth="yes"/>
      <point x="128" y="331"/>
      <point x="166" y="355"/>
      <point x="229" y="387" type="curve" smooth="yes"/>
      <point x="257" y="401"/>
      <point x="290" y="429"/>
      <point x="290" y="458" type="curve" smooth="yes"/>
      <point x="290" y="524"/>
      <point x="257" y="572"/>
      <point x="189" y="573" type="curve" smooth="yes"/>
      <point x="170" y="573"/>
      <point x="161" y="569"/>
      <point x="142" y="569" type="curve" smooth="yes"/>
      <point x="121" y="569"/>
      <point x="100" y="598"/>
      <point x="100" y="625" type="curve" smooth="yes"/>
      <point x="100" y="644"/>
      <point x="123" y="661"/>
    </contour>
  </outline>
</glyph>
<glyph name="B" format="1">
  <advance width="578"/>
  <unicode hex="0042"/>
  <outline>
    <contour>
      <point x="272" y="-100" type="move" name="below_accent"/>
    </contour>
    <contour>
      <point x="257" y="710" type="move" name="top_accent"/>
    </contour>
    <contour>
      <point x="254" y="371" type="curve" smooth="yes"/>
      <point x="280" y="371"/>
      <point x="325" y="376"/>
      <point x="365" y="400" type="curve" smooth="yes"/>
      <point x="379" y="408"/>
      <point x="410" y="437"/>
      <point x="410" y="495" type="curve" smooth="yes"/>
      <point x="410" y="552"/>
      <point x="387" y="627"/>
      <point x="274" y="627" type="curve" smooth="yes"/>
      <point x="219" y="627"/>
      <point x="208" y="612"/>
      <point x="208" y="582" type="curve" smooth="yes"/>
      <point x="208" y="408" type="line" smooth="yes"/>
      <point x="208" y="373"/>
      <point x="238" y="371"/>
    </contour>
    <contour>
      <point x="178" y="0" type="curve" smooth="yes"/>
      <point x="126" y="0"/>
      <point x="106" y="-5"/>
      <point x="48" y="-5" type="curve" smooth="yes"/>
      <point x="31" y="-5"/>
      <point x="19" y="-2"/>
      <point x="19" y="6" type="curve" smooth="yes"/>
      <point x="19" y="15"/>
      <point x="29" y="20"/>
      <point x="52" y="24" type="curve" smooth="yes"/>
      <point x="102" y="33"/>
      <point x="130" y="51"/>
      <point x="130" y="99" type="curve" smooth="yes"/>
      <point x="130" y="549" type="line" smooth="yes"/>
      <point x="130" y="597"/>
      <point x="112" y="618"/>
      <point x="63" y="622" type="curve" smooth="yes"/>
      <point x="40" y="624"/>
      <point x="30" y="633"/>
      <point x="30" y="642" type="curve" smooth="yes"/>
      <point x="30" y="650"/>
      <point x="42" y="653"/>
      <point x="59" y="653" type="curve" smooth="yes"/>
      <point x="113" y="653"/>
      <point x="122" y="652"/>
      <point x="163" y="652" type="curve" smooth="yes"/>
      <point x="201" y="652"/>
      <point x="216" y="657"/>
      <point x="274" y="657" type="curve" smooth="yes"/>
      <point x="420" y="657"/>
      <point x="496" y="617"/>
      <point x="496" y="508" type="curve" smooth="yes"/>
      <point x="496" y="463"/>
      <point x="477" y="427"/>
      <point x="462" y="412" type="curve" smooth="yes"/>
      <point x="441" y="392"/>
      <point x="428" y="382"/>
      <point x="395" y="369" type="curve" smooth="yes"/>
      <point x="390" y="367"/>
      <point x="389" y="361"/>
      <point x="395" y="359" type="curve" smooth="yes"/>
      <point x="455" y="340"/>
      <point x="537" y="310"/>
      <point x="537" y="194" type="curve" smooth="yes"/>
      <point x="537" y="84"/>
      <point x="474" y="51"/>
      <point x="433" y="30" type="curve" smooth="yes"/>
      <point x="391" y="9"/>
      <point x="339" y="-4"/>
      <point x="273" y="-4" type="curve" smooth="yes"/>
      <point x="255" y="-4"/>
      <point x="218" y="0"/>
    </contour>
    <contour>
      <point x="287" y="37" type="curve" smooth="yes"/>
      <point x="365" y="37"/>
      <point x="443" y="103"/>
      <point x="443" y="189" type="curve" smooth="yes"/>
      <point x="443" y="266"/>
      <point x="396" y="303"/>
      <point x="369" y="318" type="curve" smooth="yes"/>
      <point x="351" y="328"/>
      <point x="315" y="343"/>
      <point x="265" y="343" type="curve" smooth="yes"/>
      <point x="222" y="343"/>
      <point x="208" y="320"/>
      <point x="208" y="307" type="curve" smooth="yes"/>
      <point x="208" y="108" type="line" smooth="yes"/>
      <point x="208" y="52"/>
      <point x="236" y="37"/>
    </contour>
  </outline>
</glyph>
<glyph name="D" format="1">
  <advance width="754"/>
  <unicode hex="0044"/>
  <outline>
    <contour>
      <point x="412" y="8" type="move" name="cedilla"/>
    </contour>
    <contour>
      <point x="370" y="-100" type="move" name="below_accent"/>
    </contour>
    <contour>
      <point x="342" y="710" type="move" name="top_accent"/>
    </contour>
    <contour>
      <point x="371" y="-7" type="curve" smooth="yes"/>
      <point x="351" y="-7"/>
      <point x="242" y="0"/>
      <point x="163" y="0" type="curve" smooth="yes"/>
      <point x="123" y="0"/>
      <point x="111" y="-5"/>
      <point x="58" y="-5" type="curve" smooth="yes"/>
      <point x="41" y="-5"/>
      <point x="29" y="-2"/>
      <point x="29" y="6" type="curve" smooth="yes"/>
      <point x="29" y="15"/>
      <point x="39" y="20"/>
      <point x="62" y="24" type="curve" smooth="yes"/>
      <point x="112" y="33"/>
      <point x="129" y="51"/>
      <point x="129" y="99" type="curve" smooth="yes"/>
      <point x="129" y="549" type="line" smooth="yes"/>
      <point x="129" y="597"/>
      <point x="112" y="613"/>
      <point x="62" y="622" type="curve" smooth="yes"/>
      <point x="39" y="626"/>
      <point x="29" y="633"/>
      <point x="29" y="642" type="curve" smooth="yes"/>
      <point x="29" y="650"/>
      <point x="41" y="653"/>
      <point x="58" y="653" type="curve" smooth="yes"/>
      <point x="112" y="653"/>
      <point x="121" y="651"/>
      <point x="162" y="651" type="curve" smooth="yes"/>
      <point x="169" y="651" type="line" smooth="yes"/>
      <point x="212" y="651"/>
      <point x="313" y="659"/>
      <point x="340" y="659" type="curve" smooth="yes"/>
      <point x="611" y="659"/>
      <point x="719" y="517"/>
      <point x="719" y="342" type="curve" smooth="yes"/>
      <point x="719" y="150"/>
      <point x="562" y="-7"/>
    </contour>
    <contour>
      <point x="209" y="121" type="line" smooth="yes"/>
      <point x="209" y="40"/>
      <point x="284" y="28"/>
      <point x="359" y="28" type="curve" smooth="yes"/>
      <point x="515" y="28"/>
      <point x="624" y="151"/>
      <point x="624" y="325" type="curve" smooth="yes"/>
      <point x="624" y="517"/>
      <point x="482" y="628"/>
      <point x="345" y="628" type="curve" smooth="yes"/>
      <point x="258" y="628"/>
      <point x="209" y="627"/>
      <point x="209" y="567" type="curve" smooth="yes"/>
    </contour>
  </outline>
</glyph>
<glyph name="F" format="1">
  <advance width="512"/>
  <unicode hex="0046"/>
  <outline>
    <contour>
      <point x="279" y="710" type="move" name="top_accent"/>
    </contour>
    <contour>
      <point x="485" y="544" type="curve" smooth="yes"/>
      <point x="485" y="532"/>
      <point x="482" y="523"/>
      <point x="476" y="523" type="curve" smooth="yes"/>
      <point x="469" y="523"/>
      <point x="463" y="528"/>
      <point x="461" y="535" type="curve" smooth="yes"/>
      <point x="454" y="557"/>
      <point x="447" y="574"/>
      <point x="438" y="584" type="curve" smooth="yes"/>
      <point x="419" y="605"/>
      <point x="396" y="611"/>
      <point x="371" y="611" type="curve" smooth="yes"/>
      <point x="244" y="611" type="line" smooth="yes"/>
      <point x="213" y="611"/>
      <point x="211" y="587"/>
      <point x="210" y="561" type="curve" smooth="yes"/>
      <point x="209" y="536"/>
      <point x="209" y="502"/>
      <point x="209" y="467" type="curve" smooth="yes"/>
      <point x="209" y="433"/>
      <point x="209" y="398"/>
      <point x="210" y="374" type="curve" smooth="yes"/>
      <point x="210" y="363"/>
      <point x="211" y="352"/>
      <point x="220" y="352" type="curve" smooth="yes"/>
      <point x="262" y="352"/>
      <point x="312" y="355"/>
      <point x="336" y="355" type="curve" smooth="yes"/>
      <point x="365" y="355"/>
      <point x="387" y="371"/>
      <point x="397" y="394" type="curve" smooth="yes"/>
      <point x="399" y="399"/>
      <point x="410" y="411"/>
      <point x="415" y="411" type="curve" smooth="yes"/>
      <point x="420" y="411"/>
      <point x="429" y="404"/>
      <point x="428" y="395" type="curve" smooth="yes"/>
      <point x="426" y="372"/>
      <point x="425" y="356"/>
      <point x="425" y="340" type="curve" smooth="yes"/>
      <point x="425" y="320"/>
      <point x="426" y="301"/>
      <point x="428" y="272" type="curve" smooth="yes"/>
      <point x="428" y="263"/>
      <point x="427" y="255"/>
      <point x="419" y="255" type="curve" smooth="yes"/>
      <point x="406" y="255"/>
      <point x="398" y="271"/>
      <point x="396" y="278" type="curve" smooth="yes"/>
      <point x="386" y="309"/>
      <point x="365" y="317"/>
      <point x="349" y="317" type="curve" smooth="yes"/>
      <point x="332" y="317"/>
      <point x="315" y="318"/>
      <point x="299" y="318" type="curve" smooth="yes"/>
      <point x="276" y="318"/>
      <point x="255" y="317"/>
      <point x="234" y="316" type="curve" smooth="yes"/>
      <point x="221" y="315"/>
      <point x="210" y="308"/>
      <point x="210" y="291" type="curve" smooth="yes"/>
      <point x="210" y="230"/>
      <point x="210" y="167"/>
      <point x="213" y="101" type="curve" smooth="yes"/>
      <point x="215" y="58"/>
      <point x="229" y="33"/>
      <point x="279" y="24" type="curve" smooth="yes"/>
      <point x="302" y="20"/>
      <point x="312" y="15"/>
      <point x="312" y="6" type="curve" smooth="yes"/>
      <point x="312" y="-2"/>
      <point x="300" y="-5"/>
      <point x="283" y="-5" type="curve" smooth="yes"/>
      <point x="229" y="-5"/>
      <point x="223" y="2"/>
      <point x="185" y="2" type="curve" smooth="yes"/>
      <point x="136" y="2"/>
      <point x="113" y="-5"/>
      <point x="59" y="-5" type="curve" smooth="yes"/>
      <point x="42" y="-5"/>
      <point x="30" y="-2"/>
      <point x="30" y="6" type="curve" smooth="yes"/>
      <point x="30" y="15"/>
      <point x="40" y="20"/>
      <point x="63" y="24" type="curve" smooth="yes"/>
      <point x="113" y="33"/>
      <point x="130" y="51"/>
      <point x="130" y="100" type="curve" smooth="yes"/>
      <point x="130" y="522" type="line" smooth="yes"/>
      <point x="130" y="582"/>
      <point x="119" y="613"/>
      <point x="69" y="622" type="curve" smooth="yes"/>
      <point x="46" y="626"/>
      <point x="36" y="633"/>
      <point x="36" y="642" type="curve" smooth="yes"/>
      <point x="36" y="650"/>
      <point x="48" y="653"/>
      <point x="65" y="653" type="curve" smooth="yes"/>
      <point x="138" y="653"/>
      <point x="168" y="650"/>
      <point x="237" y="650" type="curve" smooth="yes"/>
      <point x="328" y="650"/>
      <point x="462" y="653"/>
      <point x="462" y="653" type="curve" smooth="yes"/>
      <point x="469" y="653"/>
      <point x="479" y="651"/>
      <point x="480" y="644" type="curve" smooth="yes"/>
      <point x="484" y="621"/>
      <point x="485" y="558"/>
    </contour>
  </outline>
</glyph>
<glyph name="I" format="1">
  <advance width="340"/>
  <unicode hex="0049"/>
  <outline>
    <contour>
      <point x="186" y="8" type="move" name="cedilla"/>
    </contour>
    <contour>
      <point x="206" y="18" type="move" name="ogonek"/>
    </contour>
    <contour>
      <point x="170" y="-100" type="move" name="below_accent"/>
    </contour>
    <contour>
      <point x="170" y="710" type="move" name="top_accent"/>
    </contour>
    <contour>
      <point x="130" y="550" type="line" smooth="yes"/>
      <point x="130" y="597"/>
      <point x="113" y="613"/>
      <point x="63" y="622" type="curve" smooth="yes"/>
      <point x="40" y="626"/>
      <point x="30" y="633"/>
      <point x="30" y="642" type="curve" smooth="yes"/>
      <point x="30" y="650"/>
      <point x="42" y="653"/>
      <point x="59" y="653" type="curve" smooth="yes"/>
      <point x="113" y="653"/>
      <point x="130" y="650"/>
      <point x="176" y="650" type="curve" smooth="yes"/>
      <point x="219" y="650"/>
      <point x="231" y="653"/>
      <point x="285" y="653" type="curve" smooth="yes"/>
      <point x="302" y="653"/>
      <point x="314" y="650"/>
      <point x="314" y="642" type="curve" smooth="yes"/>
      <point x="314" y="633"/>
      <point x="304" y="626"/>
      <point x="281" y="622" type="curve" smooth="yes"/>
      <point x="231" y="613"/>
      <point x="210" y="597"/>
      <point x="210" y="550" type="curve" smooth="yes"/>
      <point x="210" y="98" type="line" smooth="yes"/>
      <point x="210" y="51"/>
      <point x="239" y="33"/>
      <point x="289" y="24" type="curve" smooth="yes"/>
      <point x="312" y="20"/>
      <point x="322" y="15"/>
      <point x="322" y="6" type="curve" smooth="yes"/>
      <point x="322" y="-2"/>
      <point x="310" y="-5"/>
      <point x="293" y="-5" type="curve" smooth="yes"/>
      <point x="239" y="-5"/>
      <point x="222" y="0"/>
      <point x="176" y="0" type="curve" smooth="yes"/>
      <point x="126" y="0"/>
      <point x="102" y="-5"/>
      <point x="48" y="-5" type="curve" smooth="yes"/>
      <point x="31" y="-5"/>
      <point x="19" y="-2"/>
      <point x="19" y="6" type="curve" smooth="yes"/>
      <point x="19" y="15"/>
      <point x="29" y="20"/>
      <point x="52" y="24" type="curve" smooth="yes"/>
      <point x="102" y="33"/>
      <point x="130" y="51"/>
      <point x="130" y="98" type="curve" smooth="yes"/>
    </contour>
  </outline>
</glyph>
<glyph name="J" format="1">
  <advance width="300"/>
  <unicode hex="004A"/>
  <outline>
    <contour>
      <point x="173" y="710" type="move" name="top_accent"/>
    </contour>
    <contour>
      <point x="64" y="-158" type="curve" smooth="yes"/>
      <point x="111" y="-158"/>
      <point x="130" y="-97"/>
      <point x="130" y="0" type="curve" smooth="yes"/>
      <point x="130" y="551" type="line" smooth="yes"/>
      <point x="130" y="597"/>
      <point x="112" y="613"/>
      <point x="64" y="622" type="curve" smooth="yes"/>
      <point x="42" y="626"/>
      <point x="31" y="633"/>
      <point x="31" y="642" type="curve" smooth="yes"/>
      <point x="31" y="650"/>
      <point x="43" y="653"/>
      <point x="60" y="653" type="curve" smooth="yes"/>
      <point x="114" y="653"/>
      <point x="131" y="650"/>
      <point x="177" y="650" type="curve" smooth="yes"/>
      <point x="214" y="650"/>
      <point x="217" y="653"/>
      <point x="271" y="653" type="curve" smooth="yes"/>
      <point x="288" y="653"/>
      <point x="300" y="650"/>
      <point x="300" y="642" type="curve" smooth="yes"/>
      <point x="300" y="633"/>
      <point x="290" y="626"/>
      <point x="267" y="622" type="curve" smooth="yes"/>
      <point x="217" y="613"/>
      <point x="210" y="597"/>
      <point x="210" y="551" type="curve" smooth="yes"/>
      <point x="210" y="142" type="line" smooth="yes"/>
      <point x="210" y="-68"/>
      <point x="185" y="-94"/>
      <point x="157" y="-134" type="curve" smooth="yes"/>
      <point x="130" y="-173"/>
      <point x="93" y="-200"/>
      <point x="34" y="-200" type="curve" smooth="yes"/>
      <point x="-31" y="-200"/>
      <point x="-69" y="-179"/>
      <point x="-69" y="-158" type="curve" smooth="yes"/>
      <point x="-69" y="-131"/>
      <point x="-51" y="-103"/>
      <point x="-33" y="-103" type="curve" smooth="yes"/>
      <point x="-7" y="-103"/>
      <point x="5" y="-111"/>
      <point x="17" y="-129" type="curve" smooth="yes"/>
      <point x="32" y="-152"/>
      <point x="47" y="-158"/>
    </contour>
  </outline>
</glyph>
<glyph name="O" format="1">
  <advance width="763"/>
  <unicode hex="004F"/>
  <outline>
    <contour>
      <point x="412" y="8" type="move" name="cedilla"/>
    </contour>
    <contour>
      <point x="520" y="18" type="move" name="ogonek"/>
    </contour>
    <contour>
      <point x="370" y="-100" type="move" name="below_accent"/>
    </contour>
    <contour>
      <point x="383" y="710" type="move" name="top_accent"/>
    </contour>
    <contour>
      <point x="375" y="625" type="curve" smooth="yes"/>
      <point x="227" y="625"/>
      <point x="142" y="490"/>
      <point x="142" y="350" type="curve" smooth="yes"/>
      <point x="142" y="179"/>
      <point x="247" y="25"/>
      <point x="395" y="25" type="curve" smooth="yes"/>
      <point x="545" y="25"/>
      <point x="621" y="134"/>
      <point x="621" y="305" type="curve" smooth="yes"/>
      <point x="621" y="495"/>
      <point x="535" y="625"/>
    </contour>
    <contour>
      <point x="45" y="320" type="curve" smooth="yes"/>
      <point x="45" y="501"/>
      <point x="166" y="664"/>
      <point x="390" y="664" type="curve" smooth="yes"/>
      <point x="564" y="664"/>
      <point x="718" y="532"/>
      <point x="718" y="335" type="curve" smooth="yes"/>
      <point x="718" y="155"/>
      <point x="601" y="-14"/>
      <point x="382" y="-14" type="curve" smooth="yes"/>
      <point x="205" y="-14"/>
      <point x="45" y="130"/>
    </contour>
  </outline>
</glyph>
<glyph name="P" format="1">
  <advance width="552"/>
  <unicode hex="0050"/>
  <outline>
    <contour>
      <point x="170" y="-100" type="move" name="below_accent"/>
    </contour>
    <contour>
      <point x="286" y="710" type="move" name="top_accent"/>
    </contour>
    <contour>
      <point x="441" y="458" type="curve" smooth="yes"/>
      <point x="441" y="580"/>
      <point x="371" y="630"/>
      <point x="274" y="630" type="curve" smooth="yes"/>
      <point x="236" y="630"/>
      <point x="210" y="618"/>
      <point x="210" y="588" type="curve" smooth="yes"/>
      <point x="210" y="111" type="line" smooth="yes"/>
      <point x="210" y="63"/>
      <point x="227" y="33"/>
      <point x="277" y="24" type="curve" smooth="yes"/>
      <point x="300" y="20"/>
      <point x="310" y="15"/>
      <point x="310" y="6" type="curve" smooth="yes"/>
      <point x="310" y="-2"/>
      <point x="298" y="-5"/>
      <point x="281" y="-5" type="curve" smooth="yes"/>
      <point x="227" y="-5"/>
      <point x="221" y="2"/>
      <point x="183" y="2" type="curve" smooth="yes"/>
      <point x="132" y="2"/>
      <point x="107" y="-5"/>
      <point x="53" y="-5" type="curve" smooth="yes"/>
      <point x="36" y="-5"/>
      <point x="24" y="-2"/>
      <point x="24" y="6" type="curve" smooth="yes"/>
      <point x="24" y="15"/>
      <point x="34" y="20"/>
      <point x="57" y="24" type="curve" smooth="yes"/>
      <point x="107" y="33"/>
      <point x="130" y="51"/>
      <point x="130" y="100" type="curve" smooth="yes"/>
      <point x="130" y="522" type="line" smooth="yes"/>
      <point x="130" y="582"/>
      <point x="119" y="613"/>
      <point x="69" y="622" type="curve" smooth="yes"/>
      <point x="46" y="626"/>
      <point x="36" y="633"/>
      <point x="36" y="642" type="curve" smooth="yes"/>
      <point x="36" y="650"/>
      <point x="48" y="653"/>
      <point x="65" y="653" type="curve" smooth="yes"/>
      <point x="119" y="653"/>
      <point x="122" y="652"/>
      <point x="163" y="652" type="curve" smooth="yes"/>
      <point x="203" y="652"/>
      <point x="246" y="658"/>
      <point x="274" y="658" type="curve" smooth="yes"/>
      <point x="423" y="658"/>
      <point x="531" y="590"/>
      <point x="531" y="482" type="curve" smooth="yes"/>
      <point x="531" y="359"/>
      <point x="456" y="254"/>
      <point x="303" y="254" type="curve" smooth="yes"/>
      <point x="274" y="254"/>
      <point x="258" y="265"/>
      <point x="258" y="273" type="curve" smooth="yes"/>
      <point x="258" y="278"/>
      <point x="267" y="284"/>
      <point x="274" y="284" type="curve" smooth="yes"/>
      <point x="280" y="284"/>
      <point x="293" y="279"/>
      <point x="320" y="279" type="curve" smooth="yes"/>
      <point x="400" y="279"/>
      <point x="441" y="340"/>
    </contour>
  </outline>
</glyph>
<glyph name="Q" format="1">
  <advance width="806"/>
  <unicode hex="0051"/>
  <outline>
    <contour>
      <point x="405" y="710" type="move" name="top_accent"/>
    </contour>
    <contour>
      <point x="383" y="626" type="curve" smooth="yes"/>
      <point x="236" y="626"/>
      <point x="139" y="493"/>
      <point x="139" y="354" type="curve" smooth="yes"/>
      <point x="139" y="181"/>
      <point x="264" y="12"/>
      <point x="430" y="12" type="curve" smooth="yes"/>
      <point x="582" y="12"/>
      <point x="666" y="184"/>
      <point x="666" y="324" type="curve" smooth="yes"/>
      <point x="666" y="478"/>
      <point x="546" y="626"/>
    </contour>
    <contour>
      <point x="374" y="-54" type="curve" smooth="yes"/>
      <point x="354" y="-38"/>
      <point x="275" y="6"/>
      <point x="259" y="10" type="curve" smooth="yes"/>
      <point x="183" y="30"/>
      <point x="45" y="141"/>
      <point x="45" y="307" type="curve" smooth="yes"/>
      <point x="45" y="505"/>
      <point x="194" y="662"/>
      <point x="402" y="662" type="curve" smooth="yes"/>
      <point x="577" y="662"/>
      <point x="761" y="553"/>
      <point x="761" y="350" type="curve" smooth="yes"/>
      <point x="761" y="112"/>
      <point x="596" y="18"/>
      <point x="497" y="-8" type="curve" smooth="yes"/>
      <point x="485" y="-11"/>
      <point x="483" y="-14"/>
      <point x="483" y="-17" type="curve" smooth="yes"/>
      <point x="483" y="-20"/>
      <point x="484" y="-23"/>
      <point x="487" y="-26" type="curve" smooth="yes"/>
      <point x="526" y="-68"/>
      <point x="557" y="-93"/>
      <point x="607" y="-129" type="curve" smooth="yes"/>
      <point x="674" y="-177"/>
      <point x="724" y="-192"/>
      <point x="802" y="-192" type="curve" smooth="yes"/>
      <point x="826" y="-192"/>
      <point x="849" y="-189"/>
      <point x="858" y="-185" type="curve" smooth="yes"/>
      <point x="864" y="-183"/>
      <point x="871" y="-181"/>
      <point x="877" y="-181" type="curve" smooth="yes"/>
      <point x="883" y="-181"/>
      <point x="888" y="-183"/>
      <point x="888" y="-189" type="curve" smooth="yes"/>
      <point x="888" y="-201"/>
      <point x="885" y="-206"/>
      <point x="870" y="-215" type="curve" smooth="yes"/>
      <point x="832" y="-237"/>
      <point x="790" y="-248"/>
      <point x="753" y="-248" type="curve" smooth="yes"/>
      <point x="657" y="-248"/>
      <point x="596" y="-219"/>
      <point x="532" y="-173" type="curve" smooth="yes"/>
      <point x="480" y="-136"/>
      <point x="440" y="-106"/>
    </contour>
  </outline>
</glyph>
<glyph name="T" format="1">
  <advance width="670"/>
  <unicode hex="0054"/>
  <outline>
    <contour>
      <point x="356" y="18" type="move" name="cedilla"/>
    </contour>
    <contour>
      <point x="334" y="-100" type="move" name="below_accent"/>
    </contour>
    <contour>
      <point x="341" y="710" type="move" name="top_accent"/>
    </contour>
    <contour>
      <point x="376" y="102" type="line" smooth="yes"/>
      <point x="376" y="54"/>
      <point x="405" y="33"/>
      <point x="455" y="24" type="curve" smooth="yes"/>
      <point x="478" y="20"/>
      <point x="488" y="15"/>
      <point x="488" y="6" type="curve" smooth="yes"/>
      <point x="488" y="-2"/>
      <point x="476" y="-5"/>
      <point x="459" y="-5" type="curve" smooth="yes"/>
      <point x="405" y="-5"/>
      <point x="388" y="0"/>
      <point x="342" y="0" type="curve" smooth="yes"/>
      <point x="292" y="0"/>
      <point x="268" y="-5"/>
      <point x="214" y="-5" type="curve" smooth="yes"/>
      <point x="197" y="-5"/>
      <point x="185" y="-2"/>
      <point x="185" y="6" type="curve" smooth="yes"/>
      <point x="185" y="15"/>
      <point x="195" y="20"/>
      <point x="218" y="24" type="curve" smooth="yes"/>
      <point x="268" y="33"/>
      <point x="296" y="54"/>
      <point x="296" y="102" type="curve" smooth="yes"/>
      <point x="296" y="557" type="line" smooth="yes"/>
      <point x="296" y="575"/>
      <point x="294" y="597"/>
      <point x="278" y="600" type="curve" smooth="yes"/>
      <point x="259" y="604"/>
      <point x="238" y="604"/>
      <point x="204" y="604" type="curve" smooth="yes"/>
      <point x="157" y="604" type="line" smooth="yes"/>
      <point x="125" y="604"/>
      <point x="89" y="591"/>
      <point x="75" y="565" type="curve" smooth="yes"/>
      <point x="69" y="554"/>
      <point x="49" y="527"/>
      <point x="34" y="527" type="curve" smooth="yes"/>
      <point x="29" y="527"/>
      <point x="27" y="533"/>
      <point x="27" y="540" type="curve" smooth="yes"/>
      <point x="27" y="546"/>
      <point x="29" y="554"/>
      <point x="32" y="560" type="curve" smooth="yes"/>
      <point x="50" y="598"/>
      <point x="57" y="629"/>
      <point x="63" y="671" type="curve" smooth="yes"/>
      <point x="66" y="693"/>
      <point x="75" y="694"/>
      <point x="80" y="694" type="curve" smooth="yes"/>
      <point x="85" y="694"/>
      <point x="99" y="673"/>
      <point x="105" y="662" type="curve" smooth="yes"/>
      <point x="113" y="648"/>
      <point x="147" y="642"/>
      <point x="175" y="642" type="curve" smooth="yes"/>
      <point x="556" y="642" type="line" smooth="yes"/>
      <point x="585" y="642"/>
      <point x="604" y="649"/>
      <point x="614" y="656" type="curve" smooth="yes"/>
      <point x="634" y="670"/>
      <point x="649" y="692"/>
      <point x="664" y="692" type="curve" smooth="yes"/>
      <point x="668" y="692"/>
      <point x="671" y="679"/>
      <point x="671" y="669" type="curve" smooth="yes"/>
      <point x="671" y="666"/>
      <point x="670" y="662"/>
      <point x="670" y="660" type="curve" smooth="yes"/>
      <point x="661" y="623"/>
      <point x="654" y="587"/>
      <point x="654" y="561" type="curve" smooth="yes"/>
      <point x="654" y="557"/>
      <point x="654" y="553"/>
      <point x="654" y="549" type="curve" smooth="yes"/>
      <point x="654" y="537"/>
      <point x="648" y="517"/>
      <point x="638" y="517" type="curve" smooth="yes"/>
      <point x="628" y="517"/>
      <point x="624" y="532"/>
      <point x="619" y="558" type="curve" smooth="yes"/>
      <point x="614" y="586"/>
      <point x="591" y="604"/>
      <point x="527" y="604" type="curve" smooth="yes"/>
      <point x="475" y="604"/>
      <point x="450" y="604"/>
      <point x="432" y="604" type="curve" smooth="yes"/>
      <point x="381" y="604"/>
      <point x="376" y="599"/>
      <point x="376" y="558" type="curve" smooth="yes"/>
    </contour>
  </outline>
</glyph>
<glyph name="Z" format="1">
  <advance width="603"/>
  <unicode hex="005A"/>
  <outline>
    <contour>
      <point x="312" y="8" type="move" name="cedilla"/>
    </contour>
    <contour>
      <point x="306" y="-100" type="move" name="below_accent"/>
    </contour>
    <contour>
      <point x="315" y="710" type="move" name="top_accent"/>
    </contour>
    <contour>
      <point x="231" y="-2" type="curve" smooth="yes"/>
      <point x="191" y="-2"/>
      <point x="150" y="-3"/>
      <point x="112" y="-3" type="curve" smooth="yes"/>
      <point x="35" y="-3" type="line" smooth="yes"/>
      <point x="29" y="-3"/>
      <point x="28" y="11"/>
      <point x="28" y="11" type="curve"/>
      <point x="28" y="21"/>
      <point x="63" y="73"/>
      <point x="86" y="104" type="curve" smooth="yes"/>
      <point x="222" y="290"/>
      <point x="301" y="395"/>
      <point x="428" y="588" type="curve" smooth="yes"/>
      <point x="430" y="591"/>
      <point x="432" y="593"/>
      <point x="432" y="596" type="curve" smooth="yes"/>
      <point x="432" y="600"/>
      <point x="428" y="603"/>
      <point x="413" y="604" type="curve" smooth="yes"/>
      <point x="377" y="605"/>
      <point x="320" y="606"/>
      <point x="267" y="606" type="curve" smooth="yes"/>
      <point x="228" y="606"/>
      <point x="190" y="606"/>
      <point x="165" y="604" type="curve" smooth="yes"/>
      <point x="133" y="602"/>
      <point x="91" y="584"/>
      <point x="73" y="535" type="curve" smooth="yes"/>
      <point x="68" y="523"/>
      <point x="60" y="503"/>
      <point x="45" y="503" type="curve" smooth="yes"/>
      <point x="39" y="503"/>
      <point x="36" y="508"/>
      <point x="36" y="514" type="curve" smooth="yes"/>
      <point x="36" y="522"/>
      <point x="40" y="533"/>
      <point x="43" y="541" type="curve" smooth="yes"/>
      <point x="50" y="562"/>
      <point x="66" y="610"/>
      <point x="70" y="652" type="curve" smooth="yes"/>
      <point x="71" y="667"/>
      <point x="80" y="669"/>
      <point x="85" y="669" type="curve" smooth="yes"/>
      <point x="90" y="669"/>
      <point x="100" y="663"/>
      <point x="110" y="655" type="curve" smooth="yes"/>
      <point x="118" y="649"/>
      <point x="154" y="647"/>
      <point x="183" y="647" type="curve" smooth="yes"/>
      <point x="235" y="646"/>
      <point x="283" y="646"/>
      <point x="328" y="646" type="curve" smooth="yes"/>
      <point x="411" y="646"/>
      <point x="485" y="647"/>
      <point x="559" y="649" type="curve" smooth="yes"/>
      <point x="565" y="649"/>
      <point x="574" y="636"/>
      <point x="570" y="631" type="curve" smooth="yes"/>
      <point x="509" y="550" type="line"/>
      <point x="371" y="364"/>
      <point x="295" y="262"/>
      <point x="171" y="70" type="curve" smooth="yes"/>
      <point x="169" y="67"/>
      <point x="168" y="62"/>
      <point x="168" y="58" type="curve" smooth="yes"/>
      <point x="168" y="50"/>
      <point x="172" y="42"/>
      <point x="179" y="41" type="curve" smooth="yes"/>
      <point x="208" y="38"/>
      <point x="248" y="36"/>
      <point x="292" y="36" type="curve" smooth="yes"/>
      <point x="337" y="36"/>
      <point x="386" y="38"/>
      <point x="433" y="41" type="curve" smooth="yes"/>
      <point x="481" y="45"/>
      <point x="529" y="76"/>
      <point x="557" y="142" type="curve" smooth="yes"/>
      <point x="560" y="150"/>
      <point x="569" y="163"/>
      <point x="579" y="163" type="curve" smooth="yes"/>
      <point x="585" y="163"/>
      <point x="588" y="159"/>
      <point x="588" y="150" type="curve" smooth="yes"/>
      <point x="588" y="139"/>
      <point x="562" y="36"/>
      <point x="551" y="12" type="curve" smooth="yes"/>
      <point x="547" y="4"/>
      <point x="543" y="-5"/>
      <point x="533" y="-5" type="curve" smooth="yes"/>
      <point x="419" y="-5"/>
      <point x="320" y="-2"/>
    </contour>
  </outline>
</glyph>
<glyph name="asciicircum" format="1">
  <advance width="500"/>
  <unicode hex="005E"/>
  <outline>
    <contour>
      <point x="250" y="603" type="curve"/>
      <point x="276" y="566"/>
      <point x="408" y="375"/>
      <point x="449" y="305" type="curve" smooth="yes"/>
      <point x="451" y="302"/>
      <point x="452" y="298"/>
      <point x="452" y="295" type="curve" smooth="yes"/>
      <point x="452" y="289"/>
      <point x="448" y="284"/>
      <point x="443" y="284" type="curve" smooth="yes"/>
      <point x="441" y="284" type="line"/>
      <point x="429" y="287"/>
      <point x="410" y="295"/>
      <point x="404" y="302" type="curve" smooth="yes"/>
      <point x="368" y="341"/>
      <point x="284" y="470"/>
      <point x="254" y="514" type="curve" smooth="yes"/>
      <point x="249" y="520"/>
      <point x="248" y="520"/>
      <point x="244" y="514" type="curve" smooth="yes"/>
      <point x="214" y="470"/>
      <point x="123" y="332"/>
      <point x="96" y="302" type="curve" smooth="yes"/>
      <point x="89" y="295"/>
      <point x="71" y="287"/>
      <point x="59" y="284" type="curve"/>
      <point x="57" y="284" type="line" smooth="yes"/>
      <point x="52" y="284"/>
      <point x="48" y="289"/>
      <point x="48" y="295" type="curve" smooth="yes"/>
      <point x="48" y="298"/>
      <point x="49" y="302"/>
      <point x="51" y="305" type="curve" smooth="yes"/>
      <point x="89" y="369"/>
      <point x="222" y="564"/>
    </contour>
  </outline>
</glyph>
<glyph name="underscore" format="1">
  <advance width="500"/>
  <unicode hex="005F"/>
  <outline>
    <contour>
      <point x="24" y="-132" type="curve" smooth="yes"/>
      <point x="487" y="-132" type="line" smooth="yes"/>
      <point x="493" y="-132"/>
      <point x="501" y="-137"/>
      <point x="501" y="-143" type="curve" smooth="yes"/>
      <point x="501" y="-144"/>
      <point x="500" y="-145"/>
      <point x="500" y="-146" type="curve" smooth="yes"/>
      <point x="494" y="-163"/>
      <point x="488" y="-182"/>
      <point x="469" y="-182" type="curve" smooth="yes"/>
      <point x="14" y="-182" type="line" smooth="yes"/>
      <point x="7" y="-182"/>
      <point x="0" y="-176"/>
      <point x="0" y="-170" type="curve" smooth="yes"/>
      <point x="0" y="-161"/>
      <point x="6" y="-132"/>
    </contour>
  </outline>
</glyph>
<glyph name="a" format="1">
  <advance width="399"/>
  <unicode hex="0061"/>
  <outline>
    <contour>
      <point x="303" y="8" type="move" name="cedilla"/>
    </contour>
    <contour>
      <point x="341" y="18" type="move" name="ogonek"/>
    </contour>
    <contour>
      <point x="178" y="-100" type="move" name="below_accent"/>
    </contour>
    <contour>
      <point x="191" y="550" type="move" name="top_accent"/>
    </contour>
    <contour>
      <point x="115" y="87" type="curve" smooth="yes"/>
      <point x="115" y="49"/>
      <point x="145" y="32"/>
      <point x="164" y="32" type="curve" smooth="yes"/>
      <point x="190" y="32"/>
      <point x="208" y="45"/>
      <point x="224" y="59" type="curve" smooth="yes"/>
      <point x="231" y="65"/>
      <point x="235" y="74"/>
      <point x="236" y="99" type="curve" smooth="yes"/>
      <point x="238" y="148" type="line" smooth="yes"/>
      <point x="239" y="163"/>
      <point x="237" y="169"/>
      <point x="229" y="169" type="curve" smooth="yes"/>
      <point x="226" y="169"/>
      <point x="220" y="168"/>
      <point x="215" y="166" type="curve" smooth="yes"/>
      <point x="138" y="140"/>
      <point x="115" y="110"/>
    </contour>
    <contour>
      <point x="342" y="32" type="curve" smooth="yes"/>
      <point x="360" y="32"/>
      <point x="371" y="36"/>
      <point x="382" y="46" type="curve" smooth="yes"/>
      <point x="388" y="52"/>
      <point x="398" y="45"/>
      <point x="398" y="37" type="curve" smooth="yes"/>
      <point x="398" y="29"/>
      <point x="356" y="-14"/>
      <point x="318" y="-14" type="curve" smooth="yes"/>
      <point x="261" y="-14"/>
      <point x="252" y="38"/>
      <point x="244" y="38" type="curve" smooth="yes"/>
      <point x="231" y="38"/>
      <point x="203" y="-13"/>
      <point x="121" y="-14" type="curve" smooth="yes"/>
      <point x="80" y="-14"/>
      <point x="35" y="26"/>
      <point x="35" y="65" type="curve" smooth="yes"/>
      <point x="35" y="107"/>
      <point x="59" y="135"/>
      <point x="108" y="155" type="curve" smooth="yes"/>
      <point x="210" y="197" type="line" smooth="yes"/>
      <point x="236" y="208"/>
      <point x="237" y="210"/>
      <point x="238" y="237" type="curve" smooth="yes"/>
      <point x="240" y="301" type="line" smooth="yes"/>
      <point x="241" y="335"/>
      <point x="217" y="365"/>
      <point x="181" y="365" type="curve" smooth="yes"/>
      <point x="157" y="365"/>
      <point x="128" y="347"/>
      <point x="120" y="333" type="curve" smooth="yes"/>
      <point x="117" y="328"/>
      <point x="116" y="321"/>
      <point x="116" y="314" type="curve" smooth="yes"/>
      <point x="116" y="309"/>
      <point x="117" y="305"/>
      <point x="117" y="300" type="curve" smooth="yes"/>
      <point x="117" y="286"/>
      <point x="61" y="265"/>
      <point x="48" y="265" type="curve" smooth="yes"/>
      <point x="42" y="265"/>
      <point x="40" y="271"/>
      <point x="40" y="274" type="curve" smooth="yes"/>
      <point x="40" y="295"/>
      <point x="55" y="321"/>
      <point x="80" y="343" type="curve" smooth="yes"/>
      <point x="111" y="371"/>
      <point x="176" y="414"/>
      <point x="229" y="414" type="curve" smooth="yes"/>
      <point x="276" y="414"/>
      <point x="312" y="374"/>
      <point x="311" y="325" type="curve" smooth="yes"/>
      <point x="306" y="109" type="line" smooth="yes"/>
      <point x="306" y="70"/>
      <point x="313" y="32"/>
    </contour>
  </outline>
</glyph>
<glyph name="b" format="1">
  <advance width="515"/>
  <unicode hex="0062"/>
  <outline>
    <contour>
      <point x="252" y="-100" type="move" name="below_accent"/>
    </contour>
    <contour>
      <point x="75" y="105" type="curve" smooth="yes"/>
      <point x="75" y="566" type="line" smooth="yes"/>
      <point x="75" y="601"/>
      <point x="61" y="632"/>
      <point x="28" y="639" type="curve" smooth="yes"/>
      <point x="23" y="640"/>
      <point x="20" y="646"/>
      <point x="20" y="652" type="curve" smooth="yes"/>
      <point x="20" y="658"/>
      <point x="23" y="663"/>
      <point x="27" y="664" type="curve" smooth="yes"/>
      <point x="78" y="676"/>
      <point x="108" y="692"/>
      <point x="140" y="704" type="curve" smooth="yes"/>
      <point x="141" y="704"/>
      <point x="141" y="705"/>
      <point x="142" y="705" type="curve" smooth="yes"/>
      <point x="145" y="705"/>
      <point x="148" y="701"/>
      <point x="148" y="698" type="curve" smooth="yes"/>
      <point x="148" y="693"/>
      <point x="145" y="649"/>
      <point x="145" y="593" type="curve" smooth="yes"/>
      <point x="145" y="388" type="line" smooth="yes"/>
      <point x="145" y="367"/>
      <point x="145" y="356"/>
      <point x="154" y="355" type="curve"/>
      <point x="204" y="397"/>
      <point x="266" y="414"/>
      <point x="300" y="414" type="curve" smooth="yes"/>
      <point x="404" y="414"/>
      <point x="480" y="325"/>
      <point x="480" y="217" type="curve" smooth="yes"/>
      <point x="480" y="100"/>
      <point x="410" y="-14"/>
      <point x="259" y="-14" type="curve" smooth="yes"/>
      <point x="197" y="-14"/>
      <point x="127" y="15"/>
      <point x="113" y="15" type="curve" smooth="yes"/>
      <point x="101" y="15"/>
      <point x="89" y="-3"/>
      <point x="84" y="-3" type="curve" smooth="yes"/>
      <point x="76" y="-3"/>
      <point x="68" y="3"/>
      <point x="68" y="9" type="curve" smooth="yes"/>
      <point x="68" y="11"/>
      <point x="75" y="52"/>
    </contour>
    <contour>
      <point x="282" y="17" type="curve" smooth="yes"/>
      <point x="358" y="17"/>
      <point x="405" y="94"/>
      <point x="405" y="195" type="curve" smooth="yes"/>
      <point x="405" y="272"/>
      <point x="360" y="373"/>
      <point x="265" y="373" type="curve" smooth="yes"/>
      <point x="237" y="373"/>
      <point x="188" y="362"/>
      <point x="166" y="338" type="curve" smooth="yes"/>
      <point x="152" y="323"/>
      <point x="145" y="306"/>
      <point x="145" y="253" type="curve" smooth="yes"/>
      <point x="145" y="132" type="line" smooth="yes"/>
      <point x="145" y="62"/>
      <point x="212" y="17"/>
    </contour>
  </outline>
</glyph>
<glyph name="c" format="1">
  <advance width="377"/>
  <unicode hex="0063"/>
  <outline>
    <contour>
      <point x="240" y="8" type="move" name="cedilla"/>
    </contour>
    <contour>
      <point x="199" y="-100" type="move" name="below_accent"/>
    </contour>
    <contour>
      <point x="230" y="550" type="move" name="top_accent"/>
    </contour>
    <contour>
      <point x="333" y="319" type="curve" smooth="yes"/>
      <point x="324" y="319"/>
      <point x="313" y="324"/>
      <point x="308" y="329" type="curve" smooth="yes"/>
      <point x="275" y="365"/>
      <point x="264" y="376"/>
      <point x="214" y="376" type="curve" smooth="yes"/>
      <point x="141" y="376"/>
      <point x="104" y="299"/>
      <point x="104" y="226" type="curve" smooth="yes"/>
      <point x="104" y="130"/>
      <point x="167" y="38"/>
      <point x="263" y="38" type="curve" smooth="yes"/>
      <point x="305" y="38"/>
      <point x="325" y="54"/>
      <point x="351" y="88" type="curve" smooth="yes"/>
      <point x="354" y="91"/>
      <point x="357" y="93"/>
      <point x="360" y="93" type="curve" smooth="yes"/>
      <point x="366" y="93"/>
      <point x="372" y="86"/>
      <point x="372" y="79" type="curve" smooth="yes"/>
      <point x="372" y="42"/>
      <point x="292" y="-14"/>
      <point x="206" y="-14" type="curve" smooth="yes"/>
      <point x="105" y="-14"/>
      <point x="35" y="77"/>
      <point x="35" y="180" type="curve" smooth="yes"/>
      <point x="35" y="303"/>
      <point x="123" y="413"/>
      <point x="246" y="413" type="curve" smooth="yes"/>
      <point x="289" y="413"/>
      <point x="336" y="402"/>
      <point x="366" y="365" type="curve" smooth="yes"/>
      <point x="369" y="361"/>
      <point x="371" y="357"/>
      <point x="371" y="353" type="curve" smooth="yes"/>
      <point x="371" y="336"/>
      <point x="343" y="319"/>
    </contour>
  </outline>
</glyph>
<glyph name="f" format="1">
  <advance width="318"/>
  <unicode hex="0066"/>
  <outline>
    <contour>
      <point x="134" y="-100" type="move" name="below_accent"/>
    </contour>
    <contour>
      <point x="281" y="800" type="move" name="top_accent"/>
    </contour>
    <component base="f.long"/>
  </outline>
</glyph>
<glyph name="i" format="1">
  <advance width="245"/>
  <unicode hex="0069"/>
  <outline>
    <contour>
      <point x="130" y="8" type="move" name="cedilla"/>
    </contour>
    <contour>
      <point x="169" y="18" type="move" name="ogonek"/>
    </contour>
    <contour>
      <point x="115" y="-100" type="move" name="below_accent"/>
    </contour>
    <component base="uni0307" xOffset="4" yOffset="22"/>
    <component base="dotlessi"/>
  </outline>
</glyph>
<glyph name="l" format="1">
  <advance width="240"/>
  <unicode hex="006C"/>
  <outline>
    <contour>
      <point x="222" y="660" type="move" name="top_right"/>
    </contour>
    <contour>
      <point x="212" y="650" type="move" name="top_right1"/>
    </contour>
    <contour>
      <point x="130" y="8" type="move" name="cedilla"/>
    </contour>
    <contour>
      <point x="120" y="-100" type="move" name="below_accent"/>
    </contour>
    <contour>
      <point x="119" y="790" type="move" name="top_accent"/>
    </contour>
    <contour>
      <point x="155" y="62" type="line" smooth="yes"/>
      <point x="155" y="35"/>
      <point x="178" y="30"/>
      <point x="198" y="24" type="curve" smooth="yes"/>
      <point x="209" y="20"/>
      <point x="221" y="16"/>
      <point x="221" y="6" type="curve" smooth="yes"/>
      <point x="221" y="-2"/>
      <point x="208" y="-3"/>
      <point x="201" y="-3" type="curve" smooth="yes"/>
      <point x="162" y="-3"/>
      <point x="155" y="2"/>
      <point x="120" y="2" type="curve" smooth="yes"/>
      <point x="85" y="2"/>
      <point x="78" y="-3"/>
      <point x="39" y="-3" type="curve" smooth="yes"/>
      <point x="32" y="-3"/>
      <point x="19" y="-2"/>
      <point x="19" y="6" type="curve" smooth="yes"/>
      <point x="19" y="16"/>
      <point x="31" y="20"/>
      <point x="42" y="24" type="curve" smooth="yes"/>
      <point x="62" y="30"/>
      <point x="85" y="35"/>
      <point x="85" y="62" type="curve" smooth="yes"/>
      <point x="85" y="566" type="line" smooth="yes"/>
      <point x="85" y="605"/>
      <point x="72" y="632"/>
      <point x="39" y="639" type="curve" smooth="yes"/>
      <point x="34" y="640"/>
      <point x="31" y="646"/>
      <point x="31" y="652" type="curve" smooth="yes"/>
      <point x="31" y="658"/>
      <point x="34" y="663"/>
      <point x="38" y="664" type="curve" smooth="yes"/>
      <point x="89" y="676"/>
      <point x="122" y="692"/>
      <point x="154" y="704" type="curve" smooth="yes"/>
      <point x="155" y="704"/>
      <point x="155" y="705"/>
      <point x="156" y="705" type="curve" smooth="yes"/>
      <point x="159" y="705"/>
      <point x="162" y="701"/>
      <point x="162" y="698" type="curve" smooth="yes"/>
      <point x="162" y="686"/>
      <point x="155" y="652"/>
      <point x="155" y="562" type="curve" smooth="yes"/>
    </contour>
  </outline>
</glyph>
<glyph name="o" format="1">
  <advance width="495"/>
  <unicode hex="006F"/>
  <outline>
    <contour>
      <point x="300" y="8" type="move" name="cedilla"/>
    </contour>
    <contour>
      <point x="337" y="18" type="move" name="ogonek"/>
    </contour>
    <contour>
      <point x="246" y="-100" type="move" name="below_accent"/>
    </contour>
    <contour>
      <point x="246" y="550" type="move" name="top_accent"/>
    </contour>
    <contour>
      <point x="237" y="383" type="curve" smooth="yes"/>
      <point x="201" y="383"/>
      <point x="173" y="374"/>
      <point x="149" y="343" type="curve" smooth="yes"/>
      <point x="122" y="309"/>
      <point x="117" y="258"/>
      <point x="117" y="210" type="curve" smooth="yes"/>
      <point x="117" y="111"/>
      <point x="175" y="16"/>
      <point x="255" y="16" type="curve" smooth="yes"/>
      <point x="300" y="16"/>
      <point x="338" y="32"/>
      <point x="358" y="71" type="curve" smooth="yes"/>
      <point x="374" y="102"/>
      <point x="378" y="150"/>
      <point x="378" y="189" type="curve" smooth="yes"/>
      <point x="378" y="284"/>
      <point x="322" y="383"/>
    </contour>
    <contour>
      <point x="254" y="414" type="curve" smooth="yes"/>
      <point x="370" y="414"/>
      <point x="460" y="321"/>
      <point x="460" y="213" type="curve" smooth="yes"/>
      <point x="460" y="96"/>
      <point x="384" y="-14"/>
      <point x="234" y="-14" type="curve" smooth="yes"/>
      <point x="122" y="-14"/>
      <point x="35" y="70"/>
      <point x="35" y="187" type="curve" smooth="yes"/>
      <point x="35" y="298"/>
      <point x="131" y="414"/>
    </contour>
  </outline>
</glyph>
<glyph name="s" format="1">
  <advance width="323"/>
  <unicode hex="0073"/>
  <outline>
    <contour>
      <point x="199" y="8" type="move" name="cedilla"/>
    </contour>
    <contour>
      <point x="167" y="-100" type="move" name="below_accent"/>
    </contour>
    <contour>
      <point x="176" y="550" type="move" name="top_accent"/>
    </contour>
    <contour>
      <point x="176" y="388" type="curve" smooth="yes"/>
      <point x="138" y="388"/>
      <point x="113" y="362"/>
      <point x="113" y="322" type="curve" smooth="yes"/>
      <point x="113" y="282"/>
      <point x="166" y="251"/>
      <point x="198" y="231" type="curve" smooth="yes"/>
      <point x="228" y="212"/>
      <point x="293" y="172"/>
      <point x="293" y="106" type="curve" smooth="yes"/>
      <point x="293" y="37"/>
      <point x="260" y="-14"/>
      <point x="149" y="-14" type="curve" smooth="yes"/>
      <point x="95" y="-14"/>
      <point x="49" y="9"/>
      <point x="43" y="22" type="curve" smooth="yes"/>
      <point x="36" y="36"/>
      <point x="31" y="60"/>
      <point x="30" y="83" type="curve" smooth="yes"/>
      <point x="30" y="89"/>
      <point x="39" y="92"/>
      <point x="47" y="92" type="curve" smooth="yes"/>
      <point x="54" y="92"/>
      <point x="61" y="90"/>
      <point x="62" y="85" type="curve" smooth="yes"/>
      <point x="69" y="51"/>
      <point x="114" y="13"/>
      <point x="155" y="13" type="curve" smooth="yes"/>
      <point x="203" y="13"/>
      <point x="225" y="43"/>
      <point x="225" y="83" type="curve" smooth="yes"/>
      <point x="225" y="119"/>
      <point x="193" y="143"/>
      <point x="149" y="174" type="curve" smooth="yes"/>
      <point x="101" y="208"/>
      <point x="53" y="247"/>
      <point x="53" y="296" type="curve" smooth="yes"/>
      <point x="53" y="353"/>
      <point x="89" y="414"/>
      <point x="187" y="414" type="curve" smooth="yes"/>
      <point x="227" y="414"/>
      <point x="252" y="401"/>
      <point x="262" y="391" type="curve"/>
      <point x="274" y="376"/>
      <point x="279" y="341"/>
      <point x="279" y="313" type="curve" smooth="yes"/>
      <point x="279" y="310"/>
      <point x="277" y="309"/>
      <point x="273" y="309" type="curve" smooth="yes"/>
      <point x="263" y="309"/>
      <point x="239" y="321"/>
      <point x="239" y="330" type="curve" smooth="yes"/>
      <point x="238" y="358"/>
      <point x="209" y="388"/>
    </contour>
  </outline>
</glyph>
<glyph name="u" format="1">
  <advance width="527"/>
  <unicode hex="0075"/>
  <outline>
    <contour>
      <point x="383" y="8" type="move" name="cedilla"/>
    </contour>
    <contour>
      <point x="418" y="18" type="move" name="ogonek"/>
    </contour>
    <contour>
      <point x="259" y="-100" type="move" name="below_accent"/>
    </contour>
    <contour>
      <point x="251" y="550" type="move" name="top_accent"/>
    </contour>
    <contour>
      <point x="434" y="415" type="curve" smooth="yes"/>
      <point x="443" y="415"/>
      <point x="451" y="405"/>
      <point x="446" y="397" type="curve" smooth="yes"/>
      <point x="442" y="390"/>
      <point x="438" y="342"/>
      <point x="438" y="326" type="curve" smooth="yes"/>
      <point x="438" y="114" type="line" smooth="yes"/>
      <point x="438" y="73"/>
      <point x="440" y="45"/>
      <point x="456" y="45" type="curve" smooth="yes"/>
      <point x="466" y="45"/>
      <point x="492" y="46"/>
      <point x="502" y="48" type="curve" smooth="yes"/>
      <point x="507" y="49"/>
      <point x="517" y="47"/>
      <point x="517" y="35" type="curve" smooth="yes"/>
      <point x="517" y="24"/>
      <point x="508" y="21"/>
      <point x="503" y="21" type="curve" smooth="yes"/>
      <point x="451" y="14"/>
      <point x="415" y="-1"/>
      <point x="386" y="-13" type="curve" smooth="yes"/>
      <point x="382" y="-15"/>
      <point x="368" y="-19"/>
      <point x="362" y="-19" type="curve" smooth="yes"/>
      <point x="358" y="-19"/>
      <point x="359" y="-18"/>
      <point x="359" y="-15" type="curve" smooth="yes"/>
      <point x="359" y="-2"/>
      <point x="364" y="34"/>
      <point x="364" y="51" type="curve" smooth="yes"/>
      <point x="364" y="57" type="line"/>
      <point x="312" y="6"/>
      <point x="261" y="-14"/>
      <point x="199" y="-14" type="curve" smooth="yes"/>
      <point x="134" y="-14"/>
      <point x="85" y="27"/>
      <point x="85" y="105" type="curve" smooth="yes"/>
      <point x="85" y="308" type="line" smooth="yes"/>
      <point x="85" y="337"/>
      <point x="72" y="353"/>
      <point x="42" y="365" type="curve" smooth="yes"/>
      <point x="39" y="366"/>
      <point x="29" y="370"/>
      <point x="29" y="380" type="curve" smooth="yes"/>
      <point x="29" y="393"/>
      <point x="38.9034" y="396.813"/>
      <point x="44" y="397" type="curve" smooth="yes"/>
      <point x="103.96" y="399.199"/>
      <point x="141" y="414"/>
      <point x="147" y="414" type="curve" smooth="yes"/>
      <point x="156" y="414"/>
      <point x="162" y="410"/>
      <point x="161" y="400" type="curve" smooth="yes"/>
      <point x="157" y="369"/>
      <point x="155" y="353"/>
      <point x="155" y="323" type="curve" smooth="yes"/>
      <point x="155" y="128" type="line" smooth="yes"/>
      <point x="155" y="80"/>
      <point x="196" y="37"/>
      <point x="239" y="37" type="curve" smooth="yes"/>
      <point x="273" y="37"/>
      <point x="298" y="38"/>
      <point x="323" y="57" type="curve" smooth="yes"/>
      <point x="338" y="68"/>
      <point x="368" y="91"/>
      <point x="368" y="132" type="curve" smooth="yes"/>
      <point x="368" y="315" type="line" smooth="yes"/>
      <point x="368" y="356"/>
      <point x="323" y="364"/>
      <point x="303" y="365" type="curve" smooth="yes"/>
      <point x="298" y="365"/>
      <point x="280" y="368"/>
      <point x="280" y="382" type="curve" smooth="yes"/>
      <point x="280" y="394"/>
      <point x="299.005" y="396.805"/>
      <point x="303" y="397" type="curve" smooth="yes"/>
      <point x="402.881" y="401.885"/>
      <point x="417" y="415"/>
    </contour>
  </outline>
</glyph>
<glyph name="v" format="1">
  <advance width="438"/>
  <unicode hex="0076"/>
  <outline>
    <contour>
      <point x="218" y="-100" type="move" name="below_accent"/>
    </contour>
    <contour>
      <point x="218" y="550" type="move" name="top_accent"/>
    </contour>
    <contour>
      <point x="294" y="378" type="curve" smooth="yes"/>
      <point x="283" y="382"/>
      <point x="271" y="386"/>
      <point x="271" y="396" type="curve" smooth="yes"/>
      <point x="271" y="404"/>
      <point x="284" y="405"/>
      <point x="291" y="405" type="curve" smooth="yes"/>
      <point x="306" y="405"/>
      <point x="329" y="400"/>
      <point x="364" y="400" type="curve" smooth="yes"/>
      <point x="399" y="400"/>
      <point x="404" y="405"/>
      <point x="423" y="405" type="curve" smooth="yes"/>
      <point x="430" y="405"/>
      <point x="443" y="404"/>
      <point x="443" y="396" type="curve" smooth="yes"/>
      <point x="443" y="386"/>
      <point x="431" y="382"/>
      <point x="420" y="378" type="curve" smooth="yes"/>
      <point x="400" y="372"/>
      <point x="372" y="344"/>
      <point x="358" y="311" type="curve" smooth="yes"/>
      <point x="280" y="123" type="line" smooth="yes"/>
      <point x="275" y="112"/>
      <point x="243" y="23"/>
      <point x="243" y="23" type="curve"/>
      <point x="243" y="23"/>
      <point x="221" y="-22"/>
      <point x="216" y="-22" type="curve" smooth="yes"/>
      <point x="211" y="-22"/>
      <point x="199" y="8"/>
      <point x="196" y="17" type="curve" smooth="yes"/>
      <point x="74" y="329" type="line" smooth="yes"/>
      <point x="64" y="353"/>
      <point x="48" y="372"/>
      <point x="28" y="378" type="curve" smooth="yes"/>
      <point x="17" y="382"/>
      <point x="5" y="386"/>
      <point x="5" y="396" type="curve" smooth="yes"/>
      <point x="5" y="404"/>
      <point x="18" y="405"/>
      <point x="25" y="405" type="curve" smooth="yes"/>
      <point x="64" y="405"/>
      <point x="63" y="400"/>
      <point x="98" y="400" type="curve" smooth="yes"/>
      <point x="133" y="400"/>
      <point x="134" y="405"/>
      <point x="173" y="405" type="curve" smooth="yes"/>
      <point x="180" y="405"/>
      <point x="193" y="404"/>
      <point x="193" y="396" type="curve" smooth="yes"/>
      <point x="193" y="386"/>
      <point x="181" y="382"/>
      <point x="170" y="378" type="curve" smooth="yes"/>
      <point x="156" y="374"/>
      <point x="150" y="356"/>
      <point x="150" y="337" type="curve" smooth="yes"/>
      <point x="150" y="328"/>
      <point x="151" y="318"/>
      <point x="154" y="310" type="curve" smooth="yes"/>
      <point x="228" y="111" type="line" smooth="yes"/>
      <point x="233" y="97"/>
      <point x="235" y="96"/>
      <point x="240" y="110" type="curve" smooth="yes"/>
      <point x="312" y="295" type="line" smooth="yes"/>
      <point x="317" y="308"/>
      <point x="319" y="320"/>
      <point x="319" y="331" type="curve" smooth="yes"/>
      <point x="319" y="356"/>
      <point x="308" y="374"/>
    </contour>
  </outline>
</glyph>
<glyph name="w" format="1">
  <advance width="685"/>
  <unicode hex="0077"/>
  <outline>
    <contour>
      <point x="349" y="-100" type="move" name="below_accent"/>
    </contour>
    <contour>
      <point x="342" y="550" type="move" name="top_accent"/>
    </contour>
    <contour>
      <point x="614" y="312" type="curve" smooth="yes"/>
      <point x="477" y="-16" type="line" smooth="yes"/>
      <point x="475" y="-20"/>
      <point x="472" y="-23"/>
      <point x="468" y="-23" type="curve" smooth="yes"/>
      <point x="465" y="-23"/>
      <point x="462" y="-20"/>
      <point x="460" y="-16" type="curve" smooth="yes"/>
      <point x="356" y="242" type="line" smooth="yes"/>
      <point x="352" y="252"/>
      <point x="349" y="255"/>
      <point x="343" y="241" type="curve" smooth="yes"/>
      <point x="234" y="-16" type="line" smooth="yes"/>
      <point x="232" y="-20"/>
      <point x="229" y="-23"/>
      <point x="226" y="-23" type="curve" smooth="yes"/>
      <point x="223" y="-23"/>
      <point x="220" y="-20"/>
      <point x="219" y="-16" type="curve" smooth="yes"/>
      <point x="80" y="329" type="line" smooth="yes"/>
      <point x="70" y="355"/>
      <point x="48" y="372"/>
      <point x="28" y="378" type="curve" smooth="yes"/>
      <point x="17" y="382"/>
      <point x="5" y="386"/>
      <point x="5" y="396" type="curve" smooth="yes"/>
      <point x="5" y="404"/>
      <point x="18" y="405"/>
      <point x="25" y="405" type="curve" smooth="yes"/>
      <point x="31" y="405"/>
      <point x="98" y="400"/>
      <point x="98" y="400" type="curve" smooth="yes"/>
      <point x="98" y="400"/>
      <point x="174" y="405"/>
      <point x="181" y="405" type="curve" smooth="yes"/>
      <point x="186" y="405"/>
      <point x="201" y="404"/>
      <point x="201" y="396" type="curve" smooth="yes"/>
      <point x="201" y="386"/>
      <point x="189" y="382"/>
      <point x="178" y="378" type="curve" smooth="yes"/>
      <point x="164" y="374"/>
      <point x="157" y="357"/>
      <point x="157" y="338" type="curve" smooth="yes"/>
      <point x="157" y="329"/>
      <point x="159" y="320"/>
      <point x="162" y="312" type="curve" smooth="yes"/>
      <point x="238" y="116" type="line" smooth="yes"/>
      <point x="243" y="102"/>
      <point x="247" y="103"/>
      <point x="253" y="117" type="curve" smooth="yes"/>
      <point x="319" y="278" type="line" smooth="yes"/>
      <point x="323" y="289"/>
      <point x="325" y="299"/>
      <point x="325" y="308" type="curve" smooth="yes"/>
      <point x="325" y="345"/>
      <point x="296" y="372"/>
      <point x="275" y="378" type="curve" smooth="yes"/>
      <point x="264" y="381"/>
      <point x="252" y="386"/>
      <point x="252" y="396" type="curve" smooth="yes"/>
      <point x="252" y="404"/>
      <point x="264" y="405"/>
      <point x="272" y="405" type="curve" smooth="yes"/>
      <point x="290" y="405"/>
      <point x="310" y="400"/>
      <point x="347" y="400" type="curve" smooth="yes"/>
      <point x="384" y="400"/>
      <point x="409" y="405"/>
      <point x="431" y="405" type="curve" smooth="yes"/>
      <point x="438" y="405"/>
      <point x="451" y="404"/>
      <point x="451" y="396" type="curve" smooth="yes"/>
      <point x="451" y="386"/>
      <point x="439" y="382"/>
      <point x="428" y="378" type="curve" smooth="yes"/>
      <point x="413" y="373"/>
      <point x="394" y="366"/>
      <point x="394" y="342" type="curve" smooth="yes"/>
      <point x="394" y="334"/>
      <point x="396" y="324"/>
      <point x="401" y="312" type="curve" smooth="yes"/>
      <point x="476" y="119" type="line" smooth="yes"/>
      <point x="482" y="105"/>
      <point x="486" y="104"/>
      <point x="492" y="118" type="curve" smooth="yes"/>
      <point x="568" y="295" type="line" smooth="yes"/>
      <point x="573" y="306"/>
      <point x="575" y="317"/>
      <point x="575" y="326" type="curve" smooth="yes"/>
      <point x="575" y="355"/>
      <point x="555" y="373"/>
      <point x="540" y="378" type="curve" smooth="yes"/>
      <point x="529" y="382"/>
      <point x="517" y="386"/>
      <point x="517" y="396" type="curve" smooth="yes"/>
      <point x="517" y="404"/>
      <point x="530" y="405"/>
      <point x="537" y="405" type="curve" smooth="yes"/>
      <point x="566" y="405"/>
      <point x="576" y="400"/>
      <point x="612" y="400" type="curve" smooth="yes"/>
      <point x="649" y="400"/>
      <point x="648" y="405"/>
      <point x="670" y="405" type="curve" smooth="yes"/>
      <point x="678" y="405"/>
      <point x="690" y="404"/>
      <point x="690" y="396" type="curve" smooth="yes"/>
      <point x="690" y="386"/>
      <point x="678" y="382"/>
      <point x="667" y="378" type="curve" smooth="yes"/>
      <point x="647" y="372"/>
      <point x="627" y="342"/>
    </contour>
  </outline>
</glyph>
<glyph name="x" format="1">
  <advance width="430"/>
  <unicode hex="0078"/>
  <outline>
    <contour>
      <point x="202" y="-100" type="move" name="below_accent"/>
    </contour>
    <contour>
      <point x="235" y="550" type="move" name="top_accent"/>
    </contour>
    <contour>
      <point x="220" y="8" type="curve" smooth="yes"/>
      <point x="220" y="32"/>
      <point x="276" y="24"/>
      <point x="276" y="52" type="curve" smooth="yes"/>
      <point x="276" y="57"/>
      <point x="274" y="63"/>
      <point x="270" y="70" type="curve" smooth="yes"/>
      <point x="216" y="162" type="line" smooth="yes"/>
      <point x="213" y="167"/>
      <point x="210" y="168"/>
      <point x="208" y="165" type="curve" smooth="yes"/>
      <point x="141" y="67" type="line" smooth="yes"/>
      <point x="139" y="64"/>
      <point x="136" y="56"/>
      <point x="136" y="48" type="curve" smooth="yes"/>
      <point x="136" y="39"/>
      <point x="140" y="29"/>
      <point x="150" y="26" type="curve" smooth="yes"/>
      <point x="161" y="22"/>
      <point x="173" y="18"/>
      <point x="173" y="8" type="curve" smooth="yes"/>
      <point x="173" y="-2"/>
      <point x="155" y="-1"/>
      <point x="150" y="-1" type="curve" smooth="yes"/>
      <point x="139" y="-1"/>
      <point x="113" y="1"/>
      <point x="97" y="1" type="curve" smooth="yes"/>
      <point x="60" y="1"/>
      <point x="48" y="-4"/>
      <point x="30" y="-4" type="curve" smooth="yes"/>
      <point x="22" y="-4"/>
      <point x="10" y="-3"/>
      <point x="10" y="5" type="curve" smooth="yes"/>
      <point x="10" y="16"/>
      <point x="22" y="20"/>
      <point x="33" y="23" type="curve" smooth="yes"/>
      <point x="53" y="29"/>
      <point x="69.9884" y="42.5393"/>
      <point x="100" y="80" type="curve" smooth="yes"/>
      <point x="185" y="186" type="line" smooth="yes"/>
      <point x="194" y="197"/>
      <point x="192" y="201"/>
      <point x="187" y="209" type="curve" smooth="yes"/>
      <point x="106" y="335" type="line" smooth="yes"/>
      <point x="90" y="361"/>
      <point x="80" y="371"/>
      <point x="60" y="377" type="curve" smooth="yes"/>
      <point x="49" y="380"/>
      <point x="37" y="384"/>
      <point x="37" y="395" type="curve" smooth="yes"/>
      <point x="37" y="405"/>
      <point x="55" y="404"/>
      <point x="60" y="404" type="curve" smooth="yes"/>
      <point x="99" y="404"/>
      <point x="90" y="400"/>
      <point x="139" y="400" type="curve" smooth="yes"/>
      <point x="163" y="400"/>
      <point x="167" y="402"/>
      <point x="190" y="402" type="curve" smooth="yes"/>
      <point x="195" y="402"/>
      <point x="213" y="403"/>
      <point x="213" y="393" type="curve" smooth="yes"/>
      <point x="213" y="376"/>
      <point x="174" y="382"/>
      <point x="174" y="362" type="curve" smooth="yes"/>
      <point x="174" y="355"/>
      <point x="179" y="343"/>
      <point x="187" y="330" type="curve" smooth="yes"/>
      <point x="227" y="268" type="line" smooth="yes"/>
      <point x="232" y="260"/>
      <point x="233" y="260"/>
      <point x="235" y="263" type="curve" smooth="yes"/>
      <point x="284" y="338" type="line" smooth="yes"/>
      <point x="289" y="345"/>
      <point x="292" y="353"/>
      <point x="292" y="360" type="curve" smooth="yes"/>
      <point x="292" y="367"/>
      <point x="289" y="373"/>
      <point x="279" y="376" type="curve" smooth="yes"/>
      <point x="268" y="380"/>
      <point x="256" y="384"/>
      <point x="256" y="394" type="curve" smooth="yes"/>
      <point x="256" y="404"/>
      <point x="274" y="403"/>
      <point x="279" y="403" type="curve" smooth="yes"/>
      <point x="289" y="403"/>
      <point x="313" y="400"/>
      <point x="329" y="400" type="curve" smooth="yes"/>
      <point x="366" y="400"/>
      <point x="375" y="405"/>
      <point x="392" y="405" type="curve" smooth="yes"/>
      <point x="400" y="405"/>
      <point x="412" y="404"/>
      <point x="412" y="396" type="curve" smooth="yes"/>
      <point x="412" y="386"/>
      <point x="400" y="382"/>
      <point x="389" y="378" type="curve" smooth="yes"/>
      <point x="369" y="372"/>
      <point x="337" y="358"/>
      <point x="318" y="331" type="curve" smooth="yes"/>
      <point x="253" y="239" type="line" smooth="yes"/>
      <point x="251" y="236"/>
      <point x="251" y="230"/>
      <point x="254" y="226" type="curve" smooth="yes"/>
      <point x="351" y="65" type="line" smooth="yes"/>
      <point x="367" y="39"/>
      <point x="377" y="29"/>
      <point x="397" y="23" type="curve" smooth="yes"/>
      <point x="408" y="20"/>
      <point x="420" y="16"/>
      <point x="420" y="5" type="curve" smooth="yes"/>
      <point x="420" y="-3"/>
      <point x="408" y="-4"/>
      <point x="400" y="-4" type="curve" smooth="yes"/>
      <point x="359" y="-4"/>
      <point x="366" y="0"/>
      <point x="316" y="0" type="curve" smooth="yes"/>
      <point x="292" y="0"/>
      <point x="266" y="-1"/>
      <point x="243" y="-1" type="curve" smooth="yes"/>
      <point x="238" y="-1"/>
      <point x="220" y="-2"/>
    </contour>
  </outline>
</glyph>
<glyph name="bar" format="1">
  <advance width="260"/>
  <unicode hex="007C"/>
  <outline>
    <contour>
      <point x="100" y="676" type="line" smooth="yes"/>
      <point x="100" y="698"/>
      <point x="140" y="707"/>
      <point x="146" y="707" type="curve" smooth="yes"/>
      <point x="153" y="707"/>
      <point x="160" y="701"/>
      <point x="160" y="694" type="curve" smooth="yes"/>
      <point x="160" y="-265" type="line" smooth="yes"/>
      <point x="160" y="-286"/>
      <point x="121" y="-289"/>
      <point x="112" y="-289" type="curve" smooth="yes"/>
      <point x="106" y="-289"/>
      <point x="100" y="-282"/>
      <point x="100" y="-275" type="curve" smooth="yes"/>
    </contour>
  </outline>
</glyph>
<glyph name="braceright" format="1">
  <advance width="373"/>
  <unicode hex="007D"/>
  <outline>
    <contour>
      <point x="283" y="279" type="curve" smooth="yes"/>
      <point x="285" y="280"/>
      <point x="288" y="281"/>
      <point x="285" y="283" type="curve" smooth="yes"/>
      <point x="243" y="300"/>
      <point x="177" y="348"/>
      <point x="177" y="414" type="curve" smooth="yes"/>
      <point x="177" y="472"/>
      <point x="190" y="519"/>
      <point x="190" y="587" type="curve" smooth="yes"/>
      <point x="190" y="660"/>
      <point x="125" y="688"/>
      <point x="61" y="688" type="curve" smooth="yes"/>
      <point x="50" y="688"/>
      <point x="35" y="689"/>
      <point x="35" y="700" type="curve" smooth="yes"/>
      <point x="35" y="709"/>
      <point x="44" y="715"/>
      <point x="53" y="715" type="curve" smooth="yes"/>
      <point x="147" y="715"/>
      <point x="255" y="676"/>
      <point x="255" y="582" type="curve" smooth="yes"/>
      <point x="255" y="512"/>
      <point x="242" y="466"/>
      <point x="242" y="404" type="curve" smooth="yes"/>
      <point x="242" y="346"/>
      <point x="282" y="308"/>
      <point x="337" y="288" type="curve" smooth="yes"/>
      <point x="342" y="286"/>
      <point x="348" y="288"/>
      <point x="348" y="282" type="curve" smooth="yes"/>
      <point x="348" y="276"/>
      <point x="342" y="275"/>
      <point x="337" y="273" type="curve" smooth="yes"/>
      <point x="282" y="253"/>
      <point x="242" y="215"/>
      <point x="242" y="157" type="curve" smooth="yes"/>
      <point x="242" y="95"/>
      <point x="255" y="49"/>
      <point x="255" y="-21" type="curve" smooth="yes"/>
      <point x="255" y="-115"/>
      <point x="147" y="-154"/>
      <point x="53" y="-154" type="curve" smooth="yes"/>
      <point x="44" y="-154"/>
      <point x="35" y="-148"/>
      <point x="35" y="-139" type="curve" smooth="yes"/>
      <point x="35" y="-128"/>
      <point x="50" y="-127"/>
      <point x="61" y="-127" type="curve" smooth="yes"/>
      <point x="125" y="-127"/>
      <point x="190" y="-99"/>
      <point x="190" y="-26" type="curve" smooth="yes"/>
      <point x="190" y="42"/>
      <point x="177" y="89"/>
      <point x="177" y="147" type="curve" smooth="yes"/>
      <point x="177" y="213"/>
      <point x="250" y="270"/>
    </contour>
  </outline>
</glyph>
<glyph name="cent" format="1">
  <advance width="412"/>
  <unicode hex="00A2"/>
  <outline>
    <contour>
      <point x="194" y="-12" type="line"/>
      <point x="109" y="3"/>
      <point x="35" y="89"/>
      <point x="35" y="188" type="curve" smooth="yes"/>
      <point x="35" y="301"/>
      <point x="119" y="401"/>
      <point x="238" y="412" type="curve"/>
      <point x="243" y="462" type="line" smooth="yes"/>
      <point x="244" y="473"/>
      <point x="254" y="479"/>
      <point x="265" y="479" type="curve" smooth="yes"/>
      <point x="273" y="479"/>
      <point x="279" y="470"/>
      <point x="278" y="462" type="curve" smooth="yes"/>
      <point x="273" y="413" type="line"/>
      <point x="312" y="411"/>
      <point x="353" y="398"/>
      <point x="380" y="365" type="curve" smooth="yes"/>
      <point x="383" y="361"/>
      <point x="384" y="357"/>
      <point x="384" y="353" type="curve" smooth="yes"/>
      <point x="384" y="341"/>
      <point x="371" y="331"/>
      <point x="360" y="323" type="curve" smooth="yes"/>
      <point x="356" y="321"/>
      <point x="351" y="319"/>
      <point x="347" y="319" type="curve" smooth="yes"/>
      <point x="338" y="319"/>
      <point x="329" y="323"/>
      <point x="326" y="329" type="curve" smooth="yes"/>
      <point x="312" y="354"/>
      <point x="296" y="372"/>
      <point x="269" y="379" type="curve"/>
      <point x="235" y="46" type="line"/>
      <point x="240" y="45"/>
      <point x="245" y="45"/>
      <point x="250" y="45" type="curve" smooth="yes"/>
      <point x="292" y="45"/>
      <point x="340" y="50"/>
      <point x="365" y="88" type="curve" smooth="yes"/>
      <point x="367" y="91"/>
      <point x="370" y="93"/>
      <point x="374" y="93" type="curve" smooth="yes"/>
      <point x="381" y="93"/>
      <point x="387" y="87"/>
      <point x="387" y="81" type="curve" smooth="yes"/>
      <point x="387" y="80"/>
      <point x="387" y="78"/>
      <point x="386" y="77" type="curve" smooth="yes"/>
      <point x="349" y="15"/>
      <point x="300" y="-12"/>
      <point x="228" y="-14" type="curve"/>
      <point x="223" y="-65" type="line" smooth="yes"/>
      <point x="222" y="-74"/>
      <point x="213" y="-80"/>
      <point x="204" y="-80" type="curve" smooth="yes"/>
      <point x="195" y="-80"/>
      <point x="187" y="-74"/>
      <point x="188" y="-65" type="curve" smooth="yes"/>
    </contour>
    <contour>
      <point x="200" y="53" type="curve"/>
      <point x="235" y="384" type="line"/>
      <point x="233" y="384" type="line" smooth="yes"/>
      <point x="153" y="384"/>
      <point x="102" y="297"/>
      <point x="102" y="222" type="curve" smooth="yes"/>
      <point x="102" y="135"/>
      <point x="142" y="75"/>
    </contour>
  </outline>
</glyph>
<glyph name="dieresis" format="1">
  <advance width="317"/>
  <unicode hex="00A8"/>
  <outline>
    <contour>
      <point x="247" y="574" type="curve" smooth="yes"/>
      <point x="272" y="574"/>
      <point x="297" y="549"/>
      <point x="297" y="524" type="curve" smooth="yes"/>
      <point x="297" y="499"/>
      <point x="272" y="474"/>
      <point x="247" y="474" type="curve" smooth="yes"/>
      <point x="222" y="474"/>
      <point x="197" y="499"/>
      <point x="197" y="524" type="curve" smooth="yes"/>
      <point x="197" y="549"/>
      <point x="222" y="574"/>
    </contour>
    <contour>
      <point x="70" y="574" type="curve" smooth="yes"/>
      <point x="95" y="574"/>
      <point x="120" y="549"/>
      <point x="120" y="524" type="curve" smooth="yes"/>
      <point x="120" y="499"/>
      <point x="95" y="474"/>
      <point x="70" y="474" type="curve" smooth="yes"/>
      <point x="45" y="474"/>
      <point x="20" y="499"/>
      <point x="20" y="524" type="curve" smooth="yes"/>
      <point x="20" y="549"/>
      <point x="45" y="574"/>
    </contour>
  </outline>
</glyph>
<glyph name="copyright" format="1">
  <advance width="665"/>
  <unicode hex="00A9"/>
  <outline>
    <contour>
      <point x="346" y="590" type="curve" smooth="yes"/>
      <point x="201" y="590"/>
      <point x="83" y="472"/>
      <point x="83" y="327" type="curve" smooth="yes"/>
      <point x="83" y="181"/>
      <point x="199" y="58"/>
      <point x="345" y="58" type="curve" smooth="yes"/>
      <point x="492" y="58"/>
      <point x="609" y="180"/>
      <point x="609" y="327" type="curve" smooth="yes"/>
      <point x="609" y="472"/>
      <point x="491" y="590"/>
    </contour>
    <contour>
      <point x="346" y="630" type="curve" smooth="yes"/>
      <point x="513" y="630"/>
      <point x="649" y="494"/>
      <point x="649" y="327" type="curve" smooth="yes"/>
      <point x="649" y="160"/>
      <point x="512" y="24"/>
      <point x="345" y="24" type="curve" smooth="yes"/>
      <point x="178" y="24"/>
      <point x="43" y="160"/>
      <point x="43" y="327" type="curve" smooth="yes"/>
      <point x="43" y="494"/>
      <point x="179" y="630"/>
    </contour>
    <contour>
      <point x="462" y="225" type="curve" smooth="yes"/>
      <point x="467" y="235"/>
      <point x="475" y="240"/>
      <point x="479" y="240" type="curve" smooth="yes"/>
      <point x="483" y="240"/>
      <point x="484" y="236"/>
      <point x="484" y="227" type="curve" smooth="yes"/>
      <point x="484" y="214"/>
      <point x="471" y="184"/>
      <point x="464" y="176" type="curve" smooth="yes"/>
      <point x="446" y="158"/>
      <point x="402" y="154"/>
      <point x="359" y="154" type="curve" smooth="yes"/>
      <point x="264" y="154"/>
      <point x="188" y="239"/>
      <point x="188" y="328" type="curve" smooth="yes"/>
      <point x="188" y="427"/>
      <point x="281" y="494"/>
      <point x="380" y="494" type="curve" smooth="yes"/>
      <point x="396" y="494"/>
      <point x="424" y="490"/>
      <point x="433" y="488" type="curve"/>
      <point x="441" y="485"/>
      <point x="462" y="481"/>
      <point x="471" y="478" type="curve" smooth="yes"/>
      <point x="479" y="475"/>
      <point x="479" y="445"/>
      <point x="479" y="432" type="curve" smooth="yes"/>
      <point x="479" y="425"/>
      <point x="479" y="417"/>
      <point x="478" y="409" type="curve" smooth="yes"/>
      <point x="478" y="405"/>
      <point x="473" y="397"/>
      <point x="468" y="398" type="curve"/>
      <point x="462" y="398"/>
      <point x="459" y="405"/>
      <point x="456" y="413" type="curve" smooth="yes"/>
      <point x="446" y="441"/>
      <point x="417" y="464"/>
      <point x="371" y="464" type="curve" smooth="yes"/>
      <point x="303" y="464"/>
      <point x="258" y="404"/>
      <point x="258" y="331" type="curve" smooth="yes"/>
      <point x="258" y="258"/>
      <point x="298" y="184"/>
      <point x="376" y="184" type="curve" smooth="yes"/>
      <point x="413" y="184"/>
      <point x="446" y="193"/>
    </contour>
  </outline>
</glyph>
<glyph name="ordfeminine" format="1">
  <advance width="270"/>
  <unicode hex="00AA"/>
  <outline>
    <contour>
      <point x="49" y="196" type="curve" smooth="yes"/>
      <point x="255" y="196" type="line" smooth="yes"/>
      <point x="261" y="196"/>
      <point x="269" y="191"/>
      <point x="269" y="185" type="curve" smooth="yes"/>
      <point x="269" y="184"/>
      <point x="268" y="183"/>
      <point x="268" y="182" type="curve" smooth="yes"/>
      <point x="261" y="169"/>
      <point x="252" y="161"/>
      <point x="237" y="161" type="curve" smooth="yes"/>
      <point x="39" y="161" type="line" smooth="yes"/>
      <point x="32" y="161"/>
      <point x="25" y="167"/>
      <point x="25" y="173" type="curve" smooth="yes"/>
      <point x="25" y="182"/>
      <point x="36" y="196"/>
    </contour>
    <contour>
      <point x="80" y="342" type="curve" smooth="yes"/>
      <point x="80" y="319"/>
      <point x="99" y="308"/>
      <point x="112" y="308" type="curve" smooth="yes"/>
      <point x="126" y="308"/>
      <point x="142" y="319"/>
      <point x="152" y="327" type="curve" smooth="yes"/>
      <point x="156" y="330"/>
      <point x="160" y="335"/>
      <point x="160" y="350" type="curve" smooth="yes"/>
      <point x="160" y="379" type="line" smooth="yes"/>
      <point x="160" y="391"/>
      <point x="156" y="393"/>
      <point x="145" y="390" type="curve" smooth="yes"/>
      <point x="95" y="376"/>
      <point x="80" y="356"/>
    </contour>
    <contour>
      <point x="219" y="268" type="curve" smooth="yes"/>
      <point x="182" y="268"/>
      <point x="169" y="299"/>
      <point x="164" y="299" type="curve" smooth="yes"/>
      <point x="155" y="299"/>
      <point x="137" y="268"/>
      <point x="84" y="268" type="curve" smooth="yes"/>
      <point x="57" y="268"/>
      <point x="25" y="304"/>
      <point x="25" y="327" type="curve" smooth="yes"/>
      <point x="25" y="352"/>
      <point x="31" y="368"/>
      <point x="63" y="380" type="curve" smooth="yes"/>
      <point x="142" y="408" type="line" smooth="yes"/>
      <point x="159" y="414"/>
      <point x="160" y="416"/>
      <point x="160" y="432" type="curve" smooth="yes"/>
      <point x="160" y="455" type="line" smooth="yes"/>
      <point x="160" y="475"/>
      <point x="147" y="491"/>
      <point x="123" y="491" type="curve" smooth="yes"/>
      <point x="107" y="491"/>
      <point x="84" y="485"/>
      <point x="79" y="477" type="curve" smooth="yes"/>
      <point x="76" y="471"/>
      <point x="78" y="456"/>
      <point x="78" y="453" type="curve" smooth="yes"/>
      <point x="78" y="445"/>
      <point x="36" y="434"/>
      <point x="33" y="434" type="curve" smooth="yes"/>
      <point x="29" y="434"/>
      <point x="28" y="436"/>
      <point x="28" y="439" type="curve" smooth="yes"/>
      <point x="28" y="447"/>
      <point x="38" y="469"/>
      <point x="54" y="482" type="curve" smooth="yes"/>
      <point x="74" y="499"/>
      <point x="120" y="524"/>
      <point x="154" y="524" type="curve" smooth="yes"/>
      <point x="185" y="524"/>
      <point x="215" y="499"/>
      <point x="215" y="471" type="curve" smooth="yes"/>
      <point x="215" y="347" type="line" smooth="yes"/>
      <point x="215" y="330"/>
      <point x="215" y="308"/>
      <point x="234" y="308" type="curve" smooth="yes"/>
      <point x="252" y="308"/>
      <point x="257" y="318"/>
      <point x="259" y="318" type="curve" smooth="yes"/>
      <point x="262" y="318"/>
      <point x="268" y="311"/>
      <point x="268" y="302" type="curve" smooth="yes"/>
      <point x="268" y="298"/>
      <point x="243" y="268"/>
    </contour>
  </outline>
</glyph>
<glyph name="guillemotleft" format="1">
  <advance width="676"/>
  <unicode hex="00AB"/>
  <outline>
    <contour>
      <point x="535" y="37" type="curve" smooth="yes"/>
      <point x="466" y="106"/>
      <point x="389" y="155"/>
      <point x="330" y="182" type="curve" smooth="yes"/>
      <point x="320" y="187"/>
      <point x="312" y="202"/>
      <point x="312" y="211" type="curve" smooth="yes"/>
      <point x="312" y="214"/>
      <point x="313" y="217"/>
      <point x="315" y="218" type="curve" smooth="yes"/>
      <point x="417" y="279"/>
      <point x="472" y="316"/>
      <point x="541" y="382" type="curve" smooth="yes"/>
      <point x="547" y="388"/>
      <point x="559" y="400"/>
      <point x="570" y="400" type="curve" smooth="yes"/>
      <point x="574" y="400"/>
      <point x="576" y="397"/>
      <point x="576" y="391" type="curve" smooth="yes"/>
      <point x="576" y="362"/>
      <point x="494" y="275"/>
      <point x="419" y="217" type="curve" smooth="yes"/>
      <point x="411" y="211"/>
      <point x="411" y="209"/>
      <point x="419" y="203" type="curve" smooth="yes"/>
      <point x="491" y="147"/>
      <point x="574" y="55"/>
      <point x="574" y="31" type="curve" smooth="yes"/>
      <point x="574" y="25"/>
      <point x="570" y="19"/>
      <point x="565" y="19" type="curve" smooth="yes"/>
      <point x="557" y="19"/>
      <point x="548" y="24"/>
    </contour>
    <contour>
      <point x="323" y="37" type="curve" smooth="yes"/>
      <point x="254" y="106"/>
      <point x="177" y="155"/>
      <point x="118" y="182" type="curve" smooth="yes"/>
      <point x="108" y="187"/>
      <point x="100" y="202"/>
      <point x="100" y="211" type="curve" smooth="yes"/>
      <point x="100" y="214"/>
      <point x="101" y="217"/>
      <point x="103" y="218" type="curve" smooth="yes"/>
      <point x="205" y="279"/>
      <point x="260" y="316"/>
      <point x="329" y="382" type="curve" smooth="yes"/>
      <point x="335" y="388"/>
      <point x="347" y="400"/>
      <point x="358" y="400" type="curve" smooth="yes"/>
      <point x="362" y="400"/>
      <point x="364" y="397"/>
      <point x="364" y="391" type="curve" smooth="yes"/>
      <point x="364" y="362"/>
      <point x="282" y="275"/>
      <point x="207" y="217" type="curve" smooth="yes"/>
      <point x="199" y="211"/>
      <point x="199" y="209"/>
      <point x="207" y="203" type="curve" smooth="yes"/>
      <point x="279" y="147"/>
      <point x="362" y="55"/>
      <point x="362" y="31" type="curve" smooth="yes"/>
      <point x="362" y="25"/>
      <point x="358" y="19"/>
      <point x="353" y="19" type="curve" smooth="yes"/>
      <point x="345" y="19"/>
      <point x="336" y="24"/>
    </contour>
  </outline>
</glyph>
<glyph name="registered" format="1">
  <advance width="665"/>
  <unicode hex="00AE"/>
  <outline>
    <contour>
      <point x="406" y="413" type="curve" smooth="yes"/>
      <point x="406" y="445"/>
      <point x="377" y="467"/>
      <point x="342" y="467" type="curve" smooth="yes"/>
      <point x="312" y="467"/>
      <point x="304" y="455"/>
      <point x="304" y="437" type="curve" smooth="yes"/>
      <point x="304" y="372" type="line" smooth="yes"/>
      <point x="304" y="353"/>
      <point x="317" y="352"/>
      <point x="331" y="352" type="curve" smooth="yes"/>
      <point x="370" y="352"/>
      <point x="406" y="374"/>
    </contour>
    <contour>
      <point x="366" y="496" type="line" smooth="yes"/>
      <point x="418" y="496"/>
      <point x="470" y="470"/>
      <point x="470" y="417" type="curve" smooth="yes"/>
      <point x="470" y="376"/>
      <point x="445" y="349"/>
      <point x="421" y="339" type="curve" smooth="yes"/>
      <point x="412" y="335"/>
      <point x="417" y="329"/>
      <point x="421" y="322" type="curve" smooth="yes"/>
      <point x="487" y="211" type="line" smooth="yes"/>
      <point x="495" y="197"/>
      <point x="506" y="194"/>
      <point x="518" y="194" type="curve" smooth="yes"/>
      <point x="522" y="194"/>
      <point x="534" y="198"/>
      <point x="534" y="190" type="curve" smooth="yes"/>
      <point x="534" y="172"/>
      <point x="509" y="163"/>
      <point x="490" y="163" type="curve" smooth="yes"/>
      <point x="466" y="163"/>
      <point x="444" y="173"/>
      <point x="432" y="193" type="curve" smooth="yes"/>
      <point x="374" y="290" type="line" smooth="yes"/>
      <point x="363" y="308"/>
      <point x="345" y="320"/>
      <point x="320" y="320" type="curve" smooth="yes"/>
      <point x="312" y="320"/>
      <point x="304" y="316"/>
      <point x="304" y="309" type="curve" smooth="yes"/>
      <point x="305" y="233" type="line" smooth="yes"/>
      <point x="305" y="211"/>
      <point x="323" y="206"/>
      <point x="339" y="201" type="curve" smooth="yes"/>
      <point x="348" y="198"/>
      <point x="358" y="191"/>
      <point x="358" y="183" type="curve" smooth="yes"/>
      <point x="358" y="177"/>
      <point x="348" y="172"/>
      <point x="342" y="172" type="curve" smooth="yes"/>
      <point x="310" y="172"/>
      <point x="305" y="176"/>
      <point x="277" y="176" type="curve" smooth="yes"/>
      <point x="249" y="176"/>
      <point x="248" y="172"/>
      <point x="216" y="172" type="curve" smooth="yes"/>
      <point x="210" y="172"/>
      <point x="200" y="177"/>
      <point x="200" y="183" type="curve" smooth="yes"/>
      <point x="200" y="191"/>
      <point x="210" y="198"/>
      <point x="219" y="201" type="curve" smooth="yes"/>
      <point x="235" y="206"/>
      <point x="244" y="211"/>
      <point x="244" y="233" type="curve" smooth="yes"/>
      <point x="244" y="422" type="line" smooth="yes"/>
      <point x="244" y="463"/>
      <point x="241" y="459"/>
      <point x="221" y="464" type="curve" smooth="yes"/>
      <point x="207" y="468"/>
      <point x="202" y="474"/>
      <point x="202" y="482" type="curve" smooth="yes"/>
      <point x="202" y="490"/>
      <point x="209" y="496"/>
      <point x="222" y="496" type="curve" smooth="yes"/>
    </contour>
    <contour>
      <point x="346" y="590" type="curve" smooth="yes"/>
      <point x="201" y="590"/>
      <point x="83" y="472"/>
      <point x="83" y="327" type="curve" smooth="yes"/>
      <point x="83" y="181"/>
      <point x="199" y="58"/>
      <point x="345" y="58" type="curve" smooth="yes"/>
      <point x="492" y="58"/>
      <point x="609" y="180"/>
      <point x="609" y="327" type="curve" smooth="yes"/>
      <point x="609" y="472"/>
      <point x="491" y="590"/>
    </contour>
    <contour>
      <point x="346" y="630" type="curve" smooth="yes"/>
      <point x="513" y="630"/>
      <point x="649" y="494"/>
      <point x="649" y="327" type="curve" smooth="yes"/>
      <point x="649" y="160"/>
      <point x="512" y="24"/>
      <point x="345" y="24" type="curve" smooth="yes"/>
      <point x="178" y="24"/>
      <point x="43" y="160"/>
      <point x="43" y="327" type="curve" smooth="yes"/>
      <point x="43" y="494"/>
      <point x="179" y="630"/>
    </contour>
  </outline>
</glyph>
<glyph name="uni00B2" format="1">
  <advance width="300"/>
  <unicode hex="00B2"/>
  <outline>
    <contour>
      <point x="42" y="678" type="curve"/>
      <point x="37" y="668"/>
      <point x="26" y="672"/>
      <point x="26" y="683" type="curve" smooth="yes"/>
      <point x="26" y="703"/>
      <point x="73" y="770"/>
      <point x="143" y="770" type="curve" smooth="yes"/>
      <point x="194" y="770"/>
      <point x="234" y="728"/>
      <point x="234" y="677" type="curve" smooth="yes"/>
      <point x="234" y="643"/>
      <point x="217" y="623"/>
      <point x="200" y="598" type="curve" smooth="yes"/>
      <point x="178" y="565"/>
      <point x="108" y="506"/>
      <point x="101" y="498" type="curve" smooth="yes"/>
      <point x="97" y="494"/>
      <point x="109" y="492"/>
      <point x="113" y="492" type="curve" smooth="yes"/>
      <point x="182" y="492" type="line" smooth="yes"/>
      <point x="212" y="492"/>
      <point x="241" y="512"/>
      <point x="256" y="542" type="curve" smooth="yes"/>
      <point x="258" y="547"/>
      <point x="265" y="551"/>
      <point x="271" y="550" type="curve" smooth="yes"/>
      <point x="274" y="550"/>
      <point x="275" y="548"/>
      <point x="275" y="545" type="curve" smooth="yes"/>
      <point x="275" y="544"/>
      <point x="274" y="542"/>
      <point x="274" y="541" type="curve" smooth="yes"/>
      <point x="261" y="505"/>
      <point x="253" y="481"/>
      <point x="247" y="450" type="curve" smooth="yes"/>
      <point x="245" y="439"/>
      <point x="241" y="437"/>
      <point x="238" y="437" type="curve" smooth="yes"/>
      <point x="237" y="437"/>
      <point x="236" y="437"/>
      <point x="235" y="437" type="curve" smooth="yes"/>
      <point x="184" y="440"/>
      <point x="184" y="440"/>
      <point x="151" y="440" type="curve" smooth="yes"/>
      <point x="103" y="440"/>
      <point x="79" y="440"/>
      <point x="28" y="438" type="curve" smooth="yes"/>
      <point x="25" y="437"/>
      <point x="23" y="440"/>
      <point x="23" y="444" type="curve" smooth="yes"/>
      <point x="23" y="447"/>
      <point x="25" y="451"/>
      <point x="28" y="454" type="curve" smooth="yes"/>
      <point x="67" y="494" type="line" smooth="yes"/>
      <point x="83" y="510"/>
      <point x="178" y="588"/>
      <point x="178" y="653" type="curve" smooth="yes"/>
      <point x="178" y="690"/>
      <point x="151" y="716"/>
      <point x="121" y="716" type="curve" smooth="yes"/>
      <point x="85" y="716"/>
      <point x="70" y="708"/>
    </contour>
  </outline>
</glyph>
<glyph name="uni00B3" format="1">
  <advance width="300"/>
  <unicode hex="00B3"/>
  <outline>
    <contour>
      <point x="112" y="434" type="curve" smooth="yes"/>
      <point x="83" y="434"/>
      <point x="46" y="439"/>
      <point x="46" y="467" type="curve" smooth="yes"/>
      <point x="46" y="475"/>
      <point x="55" y="495"/>
      <point x="64" y="495" type="curve" smooth="yes"/>
      <point x="70" y="495"/>
      <point x="75" y="492"/>
      <point x="77" y="490" type="curve" smooth="yes"/>
      <point x="89" y="482"/>
      <point x="112" y="468"/>
      <point x="142" y="468" type="curve" smooth="yes"/>
      <point x="155" y="468"/>
      <point x="201" y="478"/>
      <point x="201" y="536" type="curve" smooth="yes"/>
      <point x="201" y="570"/>
      <point x="172" y="593"/>
      <point x="134" y="593" type="curve" smooth="yes"/>
      <point x="124" y="593"/>
      <point x="108" y="589"/>
      <point x="97" y="586" type="curve" smooth="yes"/>
      <point x="91" y="584"/>
      <point x="78" y="592"/>
      <point x="83" y="597" type="curve" smooth="yes"/>
      <point x="98" y="612"/>
      <point x="118" y="615"/>
      <point x="132" y="622" type="curve" smooth="yes"/>
      <point x="166" y="640"/>
      <point x="187" y="653"/>
      <point x="187" y="686" type="curve" smooth="yes"/>
      <point x="187" y="707"/>
      <point x="158" y="723"/>
      <point x="140" y="723" type="curve" smooth="yes"/>
      <point x="117" y="723"/>
      <point x="91" y="716"/>
      <point x="68" y="693" type="curve" smooth="yes"/>
      <point x="66" y="691"/>
      <point x="62" y="687"/>
      <point x="60" y="687" type="curve" smooth="yes"/>
      <point x="57" y="687"/>
      <point x="50" y="694"/>
      <point x="52" y="698" type="curve" smooth="yes"/>
      <point x="68" y="729"/>
      <point x="102" y="770"/>
      <point x="155" y="770" type="curve" smooth="yes"/>
      <point x="206" y="770"/>
      <point x="243" y="750"/>
      <point x="243" y="699" type="curve" smooth="yes"/>
      <point x="243" y="674"/>
      <point x="220" y="651"/>
      <point x="184" y="633" type="curve" smooth="yes"/>
      <point x="180" y="631"/>
      <point x="180" y="625"/>
      <point x="184" y="625" type="curve" smooth="yes"/>
      <point x="224" y="625"/>
      <point x="253" y="590"/>
      <point x="253" y="550" type="curve" smooth="yes"/>
      <point x="253" y="469"/>
      <point x="165" y="434"/>
    </contour>
  </outline>
</glyph>
<glyph name="mu" format="1">
  <advance width="510"/>
  <unicode hex="00B5"/>
  <outline>
    <contour>
      <point x="420" y="64" type="curve" smooth="yes"/>
      <point x="457" y="64"/>
      <point x="485" y="109"/>
      <point x="493" y="109" type="curve" smooth="yes"/>
      <point x="498" y="109"/>
      <point x="504" y="105"/>
      <point x="504" y="100" type="curve" smooth="yes"/>
      <point x="504" y="25"/>
      <point x="449" y="-15"/>
      <point x="406" y="-15" type="curve" smooth="yes"/>
      <point x="373" y="-15"/>
      <point x="359" y="0"/>
      <point x="339" y="48" type="curve" smooth="yes"/>
      <point x="337" y="54"/>
      <point x="328" y="93"/>
      <point x="326" y="114" type="curve"/>
      <point x="319" y="98"/>
      <point x="260" y="-13"/>
      <point x="210" y="-13" type="curve" smooth="yes"/>
      <point x="162" y="-13"/>
      <point x="138" y="6"/>
      <point x="98" y="38" type="curve" smooth="yes"/>
      <point x="88" y="46"/>
      <point x="77" y="62"/>
      <point x="70" y="62" type="curve" smooth="yes"/>
      <point x="63" y="62"/>
      <point x="60" y="49"/>
      <point x="60" y="28" type="curve" smooth="yes"/>
      <point x="60" y="-1"/>
      <point x="66" y="-43"/>
      <point x="72" y="-78" type="curve" smooth="yes"/>
      <point x="85" y="-156"/>
      <point x="137" y="-236"/>
      <point x="137" y="-254" type="curve" smooth="yes"/>
      <point x="137" y="-274"/>
      <point x="128" y="-285"/>
      <point x="109" y="-285" type="curve" smooth="yes"/>
      <point x="77" y="-285"/>
      <point x="58" y="-265"/>
      <point x="46" y="-234" type="curve" smooth="yes"/>
      <point x="37" y="-210"/>
      <point x="31" y="-75"/>
      <point x="31" y="0" type="curve" smooth="yes"/>
      <point x="31" y="17"/>
      <point x="38" y="60"/>
      <point x="38" y="92" type="curve" smooth="yes"/>
      <point x="38" y="125"/>
      <point x="31" y="288"/>
      <point x="31" y="332" type="curve" smooth="yes"/>
      <point x="31" y="374"/>
      <point x="44" y="418"/>
      <point x="83" y="418" type="curve" smooth="yes"/>
      <point x="112" y="418"/>
      <point x="122" y="391"/>
      <point x="122" y="343" type="curve" smooth="yes"/>
      <point x="122" y="301"/>
      <point x="91" y="172"/>
      <point x="91" y="132" type="curve" smooth="yes"/>
      <point x="91" y="106"/>
      <point x="125" y="50"/>
      <point x="169" y="50" type="curve" smooth="yes"/>
      <point x="222" y="50"/>
      <point x="255" y="77"/>
      <point x="279" y="122" type="curve" smooth="yes"/>
      <point x="317" y="195"/>
      <point x="317" y="252"/>
      <point x="317" y="332" type="curve" smooth="yes"/>
      <point x="317" y="371"/>
      <point x="332" y="415"/>
      <point x="366" y="415" type="curve" smooth="yes"/>
      <point x="400" y="415"/>
      <point x="405" y="374"/>
      <point x="405" y="352" type="curve" smooth="yes"/>
      <point x="405" y="315"/>
      <point x="357" y="215"/>
      <point x="357" y="162" type="curve" smooth="yes"/>
      <point x="357" y="125"/>
      <point x="375" y="64"/>
    </contour>
  </outline>
</glyph>
<glyph name="periodcentered" format="1">
  <advance width="200"/>
  <unicode hex="00B7"/>
  <outline>
    <contour>
      <point x="100" y="260" type="curve" smooth="yes"/>
      <point x="130" y="260"/>
      <point x="155" y="235"/>
      <point x="155" y="205" type="curve" smooth="yes"/>
      <point x="155" y="175"/>
      <point x="130" y="150"/>
      <point x="100" y="150" type="curve" smooth="yes"/>
      <point x="70" y="150"/>
      <point x="45" y="175"/>
      <point x="45" y="205" type="curve" smooth="yes"/>
      <point x="45" y="235"/>
      <point x="70" y="260"/>
    </contour>
  </outline>
</glyph>
<glyph name="uni00B9" format="1">
  <advance width="300"/>
  <unicode hex="00B9"/>
  <outline>
    <contour>
      <point x="178" y="784" type="curve" smooth="yes"/>
      <point x="184" y="784"/>
      <point x="188" y="778"/>
      <point x="187" y="770" type="curve" smooth="yes"/>
      <point x="185" y="757"/>
      <point x="183" y="738"/>
      <point x="183" y="716" type="curve" smooth="yes"/>
      <point x="183" y="671"/>
      <point x="182" y="617"/>
      <point x="182" y="589" type="curve" smooth="yes"/>
      <point x="182" y="559"/>
      <point x="182" y="534"/>
      <point x="183" y="510" type="curve" smooth="yes"/>
      <point x="185" y="471"/>
      <point x="189" y="470"/>
      <point x="233" y="464" type="curve" smooth="yes"/>
      <point x="241" y="463"/>
      <point x="245" y="457"/>
      <point x="245" y="451" type="curve" smooth="yes"/>
      <point x="245" y="445"/>
      <point x="241" y="439"/>
      <point x="233" y="439" type="curve" smooth="yes"/>
      <point x="176" y="439"/>
      <point x="183" y="444"/>
      <point x="151" y="444" type="curve" smooth="yes"/>
      <point x="119" y="444"/>
      <point x="123" y="439"/>
      <point x="69" y="439" type="curve" smooth="yes"/>
      <point x="62" y="439"/>
      <point x="58" y="446"/>
      <point x="58" y="453" type="curve" smooth="yes"/>
      <point x="58" y="459"/>
      <point x="61" y="464"/>
      <point x="69" y="464" type="curve" smooth="yes"/>
      <point x="95" y="466"/>
      <point x="123" y="469"/>
      <point x="123" y="510" type="curve" smooth="yes"/>
      <point x="123" y="663" type="line" smooth="yes"/>
      <point x="123" y="690"/>
      <point x="86" y="704"/>
      <point x="69" y="710" type="curve" smooth="yes"/>
      <point x="61" y="713"/>
      <point x="58" y="718"/>
      <point x="58" y="723" type="curve" smooth="yes"/>
      <point x="58" y="730"/>
      <point x="63" y="736"/>
      <point x="68" y="737" type="curve" smooth="yes"/>
      <point x="119" y="742"/>
      <point x="172" y="784"/>
    </contour>
  </outline>
</glyph>
<glyph name="ordmasculine" format="1">
  <advance width="309"/>
  <unicode hex="00BA"/>
  <outline>
    <contour>
      <point x="49" y="196" type="curve" smooth="yes"/>
      <point x="271" y="196" type="line" smooth="yes"/>
      <point x="277" y="196"/>
      <point x="285" y="191"/>
      <point x="285" y="185" type="curve" smooth="yes"/>
      <point x="285" y="184"/>
      <point x="284" y="183"/>
      <point x="284" y="182" type="curve" smooth="yes"/>
      <point x="277" y="169"/>
      <point x="268" y="161"/>
      <point x="253" y="161" type="curve" smooth="yes"/>
      <point x="39" y="161" type="line" smooth="yes"/>
      <point x="32" y="161"/>
      <point x="25" y="167"/>
      <point x="25" y="173" type="curve" smooth="yes"/>
      <point x="25" y="182"/>
      <point x="36" y="196"/>
    </contour>
    <contour>
      <point x="149" y="491" type="curve" smooth="yes"/>
      <point x="104" y="491"/>
      <point x="86" y="448"/>
      <point x="86" y="402" type="curve" smooth="yes"/>
      <point x="86" y="347"/>
      <point x="116" y="299"/>
      <point x="160" y="299" type="curve" smooth="yes"/>
      <point x="204" y="299"/>
      <point x="223" y="341"/>
      <point x="223" y="389" type="curve" smooth="yes"/>
      <point x="223" y="441"/>
      <point x="194" y="491"/>
    </contour>
    <contour>
      <point x="160" y="524" type="curve" smooth="yes"/>
      <point x="225" y="524"/>
      <point x="284" y="469"/>
      <point x="284" y="404" type="curve" smooth="yes"/>
      <point x="284" y="334"/>
      <point x="238" y="268"/>
      <point x="148" y="268" type="curve" smooth="yes"/>
      <point x="81" y="268"/>
      <point x="25" y="316"/>
      <point x="25" y="388" type="curve" smooth="yes"/>
      <point x="25" y="462"/>
      <point x="86" y="524"/>
    </contour>
  </outline>
</glyph>
<glyph name="onequarter" format="1">
  <advance width="641"/>
  <unicode hex="00BC"/>
  <outline>
    <contour>
      <point x="121" y="-11" type="curve" smooth="yes"/>
      <point x="533" y="638" type="line" smooth="yes"/>
      <point x="542" y="652"/>
      <point x="555" y="655"/>
      <point x="572" y="655" type="curve" smooth="yes"/>
      <point x="580" y="655"/>
      <point x="589" y="645"/>
      <point x="585" y="638" type="curve" smooth="yes"/>
      <point x="173" y="-11" type="line" smooth="yes"/>
      <point x="165" y="-24"/>
      <point x="152" y="-26"/>
      <point x="137" y="-26" type="curve" smooth="yes"/>
      <point x="128" y="-26"/>
      <point x="116" y="-18"/>
    </contour>
    <contour>
      <point x="502" y="148" type="line" smooth="yes"/>
      <point x="505" y="148"/>
      <point x="510" y="150"/>
      <point x="510" y="153" type="curve" smooth="yes"/>
      <point x="510" y="264" type="line" smooth="yes"/>
      <point x="510" y="266"/>
      <point x="506" y="267"/>
      <point x="504" y="265" type="curve" smooth="yes"/>
      <point x="466" y="223"/>
      <point x="440" y="190"/>
      <point x="411" y="153" type="curve" smooth="yes"/>
      <point x="410" y="151"/>
      <point x="409" y="148"/>
      <point x="411" y="148" type="curve" smooth="yes"/>
    </contour>
    <contour>
      <point x="584" y="108" type="curve" smooth="yes"/>
      <point x="577" y="108"/>
      <point x="562" y="107"/>
      <point x="562" y="103" type="curve" smooth="yes"/>
      <point x="562" y="19" type="line" smooth="yes"/>
      <point x="562" y="4"/>
      <point x="523" y="-10"/>
      <point x="519" y="-10" type="curve" smooth="yes"/>
      <point x="514" y="-10"/>
      <point x="510" y="-8"/>
      <point x="510" y="-2" type="curve" smooth="yes"/>
      <point x="510" y="100" type="line" smooth="yes"/>
      <point x="510" y="104"/>
      <point x="502" y="105"/>
      <point x="501" y="105" type="curve" smooth="yes"/>
      <point x="452" y="105"/>
      <point x="418" y="102"/>
      <point x="355" y="101" type="curve" smooth="yes"/>
      <point x="351" y="101"/>
      <point x="347" y="107"/>
      <point x="349" y="109" type="curve" smooth="yes"/>
      <point x="391" y="165"/>
      <point x="436" y="219"/>
      <point x="480" y="273" type="curve" smooth="yes"/>
      <point x="492" y="288"/>
      <point x="515" y="313"/>
      <point x="538" y="338" type="curve" smooth="yes"/>
      <point x="543" y="343"/>
      <point x="549" y="349"/>
      <point x="553" y="350" type="curve" smooth="yes"/>
      <point x="557" y="351"/>
      <point x="560" y="345"/>
      <point x="560" y="342" type="curve" smooth="yes"/>
      <point x="560" y="316"/>
      <point x="560" y="225"/>
      <point x="562" y="151" type="curve" smooth="yes"/>
      <point x="562" y="149"/>
      <point x="563" y="147"/>
      <point x="565" y="147" type="curve" smooth="yes"/>
      <point x="583" y="147" type="line" smooth="yes"/>
      <point x="597" y="147"/>
      <point x="608" y="147"/>
      <point x="624" y="148" type="curve" smooth="yes"/>
      <point x="627" y="148"/>
      <point x="631" y="146"/>
      <point x="631" y="143" type="curve" smooth="yes"/>
      <point x="631" y="129"/>
      <point x="621" y="107"/>
      <point x="618" y="107" type="curve" smooth="yes"/>
      <point x="607" y="107"/>
      <point x="594" y="108"/>
    </contour>
    <contour>
      <point x="154" y="626" type="curve" smooth="yes"/>
      <point x="157" y="627"/>
      <point x="159" y="628"/>
      <point x="161" y="628" type="curve" smooth="yes"/>
      <point x="167" y="628"/>
      <point x="171" y="622"/>
      <point x="170" y="614" type="curve" smooth="yes"/>
      <point x="168" y="600"/>
      <point x="166" y="576"/>
      <point x="166" y="544" type="curve" smooth="yes"/>
      <point x="166" y="500"/>
      <point x="165" y="464"/>
      <point x="165" y="433" type="curve" smooth="yes"/>
      <point x="165" y="403"/>
      <point x="166" y="378"/>
      <point x="166" y="354" type="curve" smooth="yes"/>
      <point x="167" y="315"/>
      <point x="172" y="314"/>
      <point x="216" y="308" type="curve" smooth="yes"/>
      <point x="224" y="307"/>
      <point x="228" y="301"/>
      <point x="228" y="295" type="curve" smooth="yes"/>
      <point x="228" y="289"/>
      <point x="224" y="283"/>
      <point x="216" y="283" type="curve" smooth="yes"/>
      <point x="159" y="283"/>
      <point x="166" y="288"/>
      <point x="134" y="288" type="curve" smooth="yes"/>
      <point x="102" y="288"/>
      <point x="106" y="283"/>
      <point x="52" y="283" type="curve" smooth="yes"/>
      <point x="45" y="283"/>
      <point x="41" y="290"/>
      <point x="41" y="297" type="curve" smooth="yes"/>
      <point x="41" y="303"/>
      <point x="44" y="308"/>
      <point x="52" y="308" type="curve" smooth="yes"/>
      <point x="79" y="310"/>
      <point x="106" y="313"/>
      <point x="106" y="354" type="curve" smooth="yes"/>
      <point x="106" y="507" type="line" smooth="yes"/>
      <point x="106" y="534"/>
      <point x="69" y="548"/>
      <point x="52" y="554" type="curve" smooth="yes"/>
      <point x="44" y="557"/>
      <point x="41" y="562"/>
      <point x="41" y="567" type="curve" smooth="yes"/>
      <point x="41" y="574"/>
      <point x="46" y="580"/>
      <point x="51" y="581" type="curve" smooth="yes"/>
      <point x="102" y="586"/>
      <point x="142" y="620"/>
    </contour>
  </outline>
</glyph>
<glyph name="onehalf" format="1">
  <advance width="699"/>
  <unicode hex="00BD"/>
  <outline>
    <contour>
      <point x="443" y="232" type="curve"/>
      <point x="438" y="222"/>
      <point x="427" y="226"/>
      <point x="427" y="237" type="curve" smooth="yes"/>
      <point x="427" y="257"/>
      <point x="474" y="324"/>
      <point x="544" y="324" type="curve" smooth="yes"/>
      <point x="595" y="324"/>
      <point x="635" y="282"/>
      <point x="635" y="231" type="curve" smooth="yes"/>
      <point x="635" y="197"/>
      <point x="618" y="177"/>
      <point x="601" y="152" type="curve" smooth="yes"/>
      <point x="579" y="119"/>
      <point x="509" y="60"/>
      <point x="502" y="52" type="curve" smooth="yes"/>
      <point x="498" y="48"/>
      <point x="510" y="46"/>
      <point x="514" y="46" type="curve" smooth="yes"/>
      <point x="583" y="46" type="line" smooth="yes"/>
      <point x="613" y="46"/>
      <point x="642" y="66"/>
      <point x="657" y="96" type="curve" smooth="yes"/>
      <point x="659" y="101"/>
      <point x="666" y="105"/>
      <point x="672" y="104" type="curve" smooth="yes"/>
      <point x="675" y="104"/>
      <point x="676" y="102"/>
      <point x="676" y="99" type="curve" smooth="yes"/>
      <point x="676" y="98"/>
      <point x="675" y="96"/>
      <point x="675" y="95" type="curve" smooth="yes"/>
      <point x="662" y="59"/>
      <point x="654" y="35"/>
      <point x="648" y="4" type="curve" smooth="yes"/>
      <point x="646" y="-10"/>
      <point x="640" y="-10"/>
      <point x="636" y="-9" type="curve" smooth="yes"/>
      <point x="585" y="-6"/>
      <point x="585" y="-6"/>
      <point x="552" y="-6" type="curve" smooth="yes"/>
      <point x="504" y="-6"/>
      <point x="480" y="-6"/>
      <point x="429" y="-8" type="curve" smooth="yes"/>
      <point x="424" y="-9"/>
      <point x="422" y="1"/>
      <point x="429" y="8" type="curve" smooth="yes"/>
      <point x="468" y="48" type="line" smooth="yes"/>
      <point x="484" y="64"/>
      <point x="579" y="142"/>
      <point x="579" y="207" type="curve" smooth="yes"/>
      <point x="579" y="244"/>
      <point x="552" y="270"/>
      <point x="522" y="270" type="curve" smooth="yes"/>
      <point x="486" y="270"/>
      <point x="471" y="262"/>
    </contour>
    <contour>
      <point x="121" y="-11" type="curve" smooth="yes"/>
      <point x="533" y="638" type="line" smooth="yes"/>
      <point x="542" y="652"/>
      <point x="555" y="655"/>
      <point x="572" y="655" type="curve" smooth="yes"/>
      <point x="579" y="655"/>
      <point x="586" y="648"/>
      <point x="586" y="642" type="curve" smooth="yes"/>
      <point x="586" y="641"/>
      <point x="586" y="639"/>
      <point x="585" y="638" type="curve" smooth="yes"/>
      <point x="173" y="-11" type="line" smooth="yes"/>
      <point x="165" y="-24"/>
      <point x="152" y="-26"/>
      <point x="137" y="-26" type="curve" smooth="yes"/>
      <point x="128" y="-26"/>
      <point x="116" y="-18"/>
    </contour>
    <contour>
      <point x="154" y="626" type="curve" smooth="yes"/>
      <point x="157" y="627"/>
      <point x="159" y="628"/>
      <point x="161" y="628" type="curve" smooth="yes"/>
      <point x="167" y="628"/>
      <point x="171" y="622"/>
      <point x="170" y="614" type="curve" smooth="yes"/>
      <point x="168" y="600"/>
      <point x="166" y="576"/>
      <point x="166" y="544" type="curve" smooth="yes"/>
      <point x="166" y="500"/>
      <point x="165" y="464"/>
      <point x="165" y="433" type="curve" smooth="yes"/>
      <point x="165" y="403"/>
      <point x="166" y="378"/>
      <point x="166" y="354" type="curve" smooth="yes"/>
      <point x="167" y="315"/>
      <point x="172" y="314"/>
      <point x="216" y="308" type="curve" smooth="yes"/>
      <point x="224" y="307"/>
      <point x="228" y="301"/>
      <point x="228" y="295" type="curve" smooth="yes"/>
      <point x="228" y="289"/>
      <point x="224" y="283"/>
      <point x="216" y="283" type="curve" smooth="yes"/>
      <point x="159" y="283"/>
      <point x="166" y="288"/>
      <point x="134" y="288" type="curve" smooth="yes"/>
      <point x="102" y="288"/>
      <point x="106" y="283"/>
      <point x="52" y="283" type="curve" smooth="yes"/>
      <point x="45" y="283"/>
      <point x="41" y="290"/>
      <point x="41" y="297" type="curve" smooth="yes"/>
      <point x="41" y="303"/>
      <point x="44" y="308"/>
      <point x="52" y="308" type="curve" smooth="yes"/>
      <point x="79" y="310"/>
      <point x="106" y="313"/>
      <point x="106" y="354" type="curve" smooth="yes"/>
      <point x="106" y="507" type="line" smooth="yes"/>
      <point x="106" y="534"/>
      <point x="69" y="548"/>
      <point x="52" y="554" type="curve" smooth="yes"/>
      <point x="44" y="557"/>
      <point x="41" y="562"/>
      <point x="41" y="567" type="curve" smooth="yes"/>
      <point x="41" y="574"/>
      <point x="46" y="580"/>
      <point x="51" y="581" type="curve" smooth="yes"/>
      <point x="102" y="586"/>
      <point x="142" y="620"/>
    </contour>
  </outline>
</glyph>
<glyph name="threequarters" format="1">
  <advance width="641"/>
  <unicode hex="00BE"/>
  <outline>
    <contour>
      <point x="121" y="274" type="curve" smooth="yes"/>
      <point x="91" y="274"/>
      <point x="53" y="278"/>
      <point x="53" y="307" type="curve" smooth="yes"/>
      <point x="53" y="315"/>
      <point x="62" y="335"/>
      <point x="71" y="335" type="curve" smooth="yes"/>
      <point x="77" y="335"/>
      <point x="82" y="332"/>
      <point x="84" y="330" type="curve" smooth="yes"/>
      <point x="96" y="322"/>
      <point x="121" y="308"/>
      <point x="151" y="308" type="curve" smooth="yes"/>
      <point x="164" y="308"/>
      <point x="210" y="323"/>
      <point x="210" y="381" type="curve" smooth="yes"/>
      <point x="210" y="420"/>
      <point x="181" y="457"/>
      <point x="143" y="457" type="curve" smooth="yes"/>
      <point x="133" y="457"/>
      <point x="117" y="453"/>
      <point x="106" y="450" type="curve" smooth="yes"/>
      <point x="100" y="448"/>
      <point x="87" y="456"/>
      <point x="92" y="461" type="curve" smooth="yes"/>
      <point x="107" y="476"/>
      <point x="128" y="477"/>
      <point x="141" y="486" type="curve" smooth="yes"/>
      <point x="171" y="506"/>
      <point x="196" y="516"/>
      <point x="196" y="548" type="curve" smooth="yes"/>
      <point x="196" y="569"/>
      <point x="167" y="585"/>
      <point x="149" y="585" type="curve" smooth="yes"/>
      <point x="126" y="585"/>
      <point x="101" y="575"/>
      <point x="77" y="555" type="curve" smooth="yes"/>
      <point x="74" y="552"/>
      <point x="71" y="548"/>
      <point x="67" y="549" type="curve" smooth="yes"/>
      <point x="63" y="551"/>
      <point x="59" y="556"/>
      <point x="61" y="560" type="curve" smooth="yes"/>
      <point x="77" y="591"/>
      <point x="111" y="632"/>
      <point x="164" y="632" type="curve"/>
      <point x="215" y="631"/>
      <point x="252" y="612"/>
      <point x="252" y="561" type="curve" smooth="yes"/>
      <point x="252" y="536"/>
      <point x="229" y="512"/>
      <point x="193" y="494" type="curve" smooth="yes"/>
      <point x="189" y="492"/>
      <point x="189" y="489"/>
      <point x="193" y="489" type="curve" smooth="yes"/>
      <point x="237" y="487"/>
      <point x="262" y="445"/>
      <point x="262" y="401" type="curve" smooth="yes"/>
      <point x="262" y="320"/>
      <point x="174" y="274"/>
    </contour>
    <contour>
      <point x="121" y="-11" type="curve" smooth="yes"/>
      <point x="533" y="638" type="line" smooth="yes"/>
      <point x="542" y="652"/>
      <point x="555" y="655"/>
      <point x="572" y="655" type="curve" smooth="yes"/>
      <point x="580" y="655"/>
      <point x="589" y="645"/>
      <point x="585" y="638" type="curve" smooth="yes"/>
      <point x="173" y="-11" type="line" smooth="yes"/>
      <point x="165" y="-24"/>
      <point x="152" y="-26"/>
      <point x="137" y="-26" type="curve" smooth="yes"/>
      <point x="129" y="-26"/>
      <point x="120" y="-20"/>
      <point x="120" y="-14" type="curve" smooth="yes"/>
      <point x="120" y="-13"/>
      <point x="120" y="-12"/>
    </contour>
    <contour>
      <point x="502" y="148" type="line" smooth="yes"/>
      <point x="505" y="148"/>
      <point x="510" y="150"/>
      <point x="510" y="153" type="curve" smooth="yes"/>
      <point x="510" y="264" type="line" smooth="yes"/>
      <point x="510" y="266"/>
      <point x="506" y="267"/>
      <point x="504" y="265" type="curve" smooth="yes"/>
      <point x="466" y="223"/>
      <point x="440" y="190"/>
      <point x="411" y="153" type="curve" smooth="yes"/>
      <point x="410" y="151"/>
      <point x="409" y="148"/>
      <point x="411" y="148" type="curve" smooth="yes"/>
    </contour>
    <contour>
      <point x="584" y="108" type="curve" smooth="yes"/>
      <point x="577" y="108"/>
      <point x="562" y="107"/>
      <point x="562" y="103" type="curve" smooth="yes"/>
      <point x="562" y="19" type="line" smooth="yes"/>
      <point x="562" y="4"/>
      <point x="523" y="-10"/>
      <point x="519" y="-10" type="curve" smooth="yes"/>
      <point x="514" y="-10"/>
      <point x="510" y="-8"/>
      <point x="510" y="-2" type="curve" smooth="yes"/>
      <point x="510" y="100" type="line" smooth="yes"/>
      <point x="510" y="104"/>
      <point x="502" y="105"/>
      <point x="501" y="105" type="curve" smooth="yes"/>
      <point x="452" y="105"/>
      <point x="418" y="102"/>
      <point x="355" y="101" type="curve" smooth="yes"/>
      <point x="352" y="101"/>
      <point x="348" y="105"/>
      <point x="348" y="108" type="curve" smooth="yes"/>
      <point x="348" y="109"/>
      <point x="349" y="109"/>
      <point x="349" y="109" type="curve"/>
      <point x="391" y="165"/>
      <point x="436" y="219"/>
      <point x="480" y="273" type="curve" smooth="yes"/>
      <point x="492" y="288"/>
      <point x="515" y="313"/>
      <point x="538" y="338" type="curve" smooth="yes"/>
      <point x="543" y="343"/>
      <point x="549" y="349"/>
      <point x="553" y="350" type="curve"/>
      <point x="554" y="350" type="line" smooth="yes"/>
      <point x="557" y="350"/>
      <point x="560" y="345"/>
      <point x="560" y="342" type="curve" smooth="yes"/>
      <point x="560" y="316"/>
      <point x="560" y="225"/>
      <point x="562" y="151" type="curve" smooth="yes"/>
      <point x="562" y="149"/>
      <point x="563" y="147"/>
      <point x="565" y="147" type="curve" smooth="yes"/>
      <point x="583" y="147" type="line" smooth="yes"/>
      <point x="597" y="147"/>
      <point x="608" y="147"/>
      <point x="624" y="148" type="curve" smooth="yes"/>
      <point x="627" y="148"/>
      <point x="631" y="146"/>
      <point x="631" y="143" type="curve" smooth="yes"/>
      <point x="631" y="129"/>
      <point x="621" y="107"/>
      <point x="618" y="107" type="curve" smooth="yes"/>
      <point x="607" y="107"/>
      <point x="594" y="108"/>
    </contour>
  </outline>
</glyph>
<glyph name="Ccedilla" format="1">
  <advance width="640"/>
  <unicode hex="00C7"/>
  <outline>
    <contour>
      <point x="381" y="700" type="move" name="top_accent"/>
    </contour>
    <component base="uni0327.cap" xOffset="299"/>
    <component base="C"/>
  </outline>
</glyph>
<glyph name="Oslash" format="1">
  <advance width="773"/>
  <unicode hex="00D8"/>
  <outline>
    <contour>
      <point x="412" y="8" type="move" name="cedilla"/>
    </contour>
    <contour>
      <point x="370" y="-100" type="move" name="below_accent"/>
    </contour>
    <contour>
      <point x="383" y="710" type="move" name="top_accent"/>
    </contour>
    <contour>
      <point x="380" y="625" type="curve" smooth="yes"/>
      <point x="232" y="625"/>
      <point x="147" y="490"/>
      <point x="147" y="350" type="curve" smooth="yes"/>
      <point x="147" y="281"/>
      <point x="161" y="215"/>
      <point x="191" y="161" type="curve"/>
      <point x="568" y="529" type="line"/>
      <point x="527" y="590"/>
      <point x="463" y="625"/>
    </contour>
    <contour>
      <point x="77" y="-14" type="curve" smooth="yes"/>
      <point x="63" y="-14"/>
      <point x="49" y="-4"/>
      <point x="49" y="6" type="curve" smooth="yes"/>
      <point x="49" y="13"/>
      <point x="53" y="20"/>
      <point x="59" y="26" type="curve" smooth="yes"/>
      <point x="134" y="100" type="line"/>
      <point x="82" y="158"/>
      <point x="50" y="234"/>
      <point x="50" y="320" type="curve" smooth="yes"/>
      <point x="50" y="501"/>
      <point x="171" y="664"/>
      <point x="395" y="664" type="curve" smooth="yes"/>
      <point x="479" y="664"/>
      <point x="559" y="633"/>
      <point x="619" y="579" type="curve"/>
      <point x="699" y="658" type="line" smooth="yes"/>
      <point x="706" y="665"/>
      <point x="720" y="663"/>
      <point x="723" y="654" type="curve" smooth="yes"/>
      <point x="724" y="650"/>
      <point x="726" y="644"/>
      <point x="726" y="639" type="curve" smooth="yes"/>
      <point x="726" y="632"/>
      <point x="724" y="626"/>
      <point x="719" y="621" type="curve" smooth="yes"/>
      <point x="647" y="549" type="line"/>
      <point x="694" y="494"/>
      <point x="723" y="420"/>
      <point x="723" y="335" type="curve" smooth="yes"/>
      <point x="723" y="155"/>
      <point x="606" y="-14"/>
      <point x="387" y="-14" type="curve" smooth="yes"/>
      <point x="305" y="-14"/>
      <point x="227" y="17"/>
      <point x="166" y="69" type="curve"/>
      <point x="86" y="-11" type="line" smooth="yes"/>
      <point x="84" y="-13"/>
      <point x="81" y="-14"/>
    </contour>
    <contour>
      <point x="589" y="492" type="curve"/>
      <point x="216" y="123" type="line"/>
      <point x="261" y="64"/>
      <point x="327" y="25"/>
      <point x="400" y="25" type="curve" smooth="yes"/>
      <point x="550" y="25"/>
      <point x="626" y="134"/>
      <point x="626" y="305" type="curve" smooth="yes"/>
      <point x="626" y="377"/>
      <point x="614" y="441"/>
    </contour>
  </outline>
</glyph>
<glyph name="Thorn" format="1">
  <advance width="559"/>
  <unicode hex="00DE"/>
  <outline>
    <contour>
      <point x="256" y="134" type="curve" smooth="yes"/>
      <point x="242" y="134"/>
      <point x="231" y="137"/>
      <point x="222" y="137" type="curve" smooth="yes"/>
      <point x="218" y="137"/>
      <point x="214" y="134"/>
      <point x="214" y="128" type="curve" smooth="yes"/>
      <point x="214" y="96" type="line" smooth="yes"/>
      <point x="214" y="54"/>
      <point x="243" y="33"/>
      <point x="293" y="24" type="curve" smooth="yes"/>
      <point x="316" y="20"/>
      <point x="326" y="15"/>
      <point x="326" y="6" type="curve" smooth="yes"/>
      <point x="326" y="-2"/>
      <point x="314" y="-5"/>
      <point x="297" y="-5" type="curve" smooth="yes"/>
      <point x="243" y="-5"/>
      <point x="226" y="0"/>
      <point x="180" y="0" type="curve" smooth="yes"/>
      <point x="130" y="0"/>
      <point x="105" y="-5"/>
      <point x="51" y="-5" type="curve" smooth="yes"/>
      <point x="34" y="-5"/>
      <point x="22" y="-2"/>
      <point x="22" y="6" type="curve" smooth="yes"/>
      <point x="22" y="15"/>
      <point x="32" y="20"/>
      <point x="55" y="24" type="curve" smooth="yes"/>
      <point x="105" y="33"/>
      <point x="134" y="51"/>
      <point x="134" y="99" type="curve" smooth="yes"/>
      <point x="134" y="549" type="line" smooth="yes"/>
      <point x="134" y="588"/>
      <point x="127" y="613"/>
      <point x="77" y="622" type="curve" smooth="yes"/>
      <point x="54" y="626"/>
      <point x="44" y="633"/>
      <point x="44" y="642" type="curve" smooth="yes"/>
      <point x="44" y="650"/>
      <point x="56" y="653"/>
      <point x="73" y="653" type="curve" smooth="yes"/>
      <point x="127" y="653"/>
      <point x="136" y="650"/>
      <point x="177" y="650" type="curve" smooth="yes"/>
      <point x="223" y="650"/>
      <point x="242" y="653"/>
      <point x="296" y="653" type="curve" smooth="yes"/>
      <point x="313" y="653"/>
      <point x="325" y="650"/>
      <point x="325" y="642" type="curve" smooth="yes"/>
      <point x="325" y="633"/>
      <point x="315" y="626"/>
      <point x="292" y="622" type="curve" smooth="yes"/>
      <point x="242" y="613"/>
      <point x="214" y="597"/>
      <point x="214" y="549" type="curve" smooth="yes"/>
      <point x="214" y="532" type="line" smooth="yes"/>
      <point x="214" y="521"/>
      <point x="214" y="512"/>
      <point x="220" y="512" type="curve" smooth="yes"/>
      <point x="223" y="512"/>
      <point x="242" y="517"/>
      <point x="243" y="517" type="curve" smooth="yes"/>
      <point x="262" y="522"/>
      <point x="288" y="524"/>
      <point x="315" y="524" type="curve" smooth="yes"/>
      <point x="424" y="524"/>
      <point x="518" y="465"/>
      <point x="518" y="347" type="curve" smooth="yes"/>
      <point x="518" y="302"/>
      <point x="483" y="220"/>
      <point x="439" y="186" type="curve" smooth="yes"/>
      <point x="393" y="151"/>
      <point x="311" y="134"/>
    </contour>
    <contour>
      <point x="265" y="163" type="curve" smooth="yes"/>
      <point x="305" y="163"/>
      <point x="342" y="174"/>
      <point x="362" y="189" type="curve" smooth="yes"/>
      <point x="412" y="226"/>
      <point x="426" y="277"/>
      <point x="426" y="335" type="curve" smooth="yes"/>
      <point x="426" y="412"/>
      <point x="375" y="491"/>
      <point x="299" y="491" type="curve" smooth="yes"/>
      <point x="262" y="491"/>
      <point x="214" y="482"/>
      <point x="214" y="452" type="curve" smooth="yes"/>
      <point x="214" y="189" type="line" smooth="yes"/>
      <point x="214" y="172"/>
      <point x="247" y="163"/>
    </contour>
  </outline>
</glyph>
<glyph name="germandbls" format="1">
  <advance width="505"/>
  <unicode hex="00DF"/>
  <outline>
    <contour>
      <point x="287" y="264" type="line" smooth="yes"/>
      <point x="263" y="286"/>
      <point x="246" y="305"/>
      <point x="246" y="336" type="curve" smooth="yes"/>
      <point x="246" y="383"/>
      <point x="305" y="410"/>
      <point x="351" y="458" type="curve" smooth="yes"/>
      <point x="374" y="482"/>
      <point x="392" y="519"/>
      <point x="392" y="555" type="curve" smooth="yes"/>
      <point x="392" y="600"/>
      <point x="373" y="665"/>
      <point x="273" y="665" type="curve" smooth="yes"/>
      <point x="210" y="665"/>
      <point x="160" y="609"/>
      <point x="160" y="475" type="curve" smooth="yes"/>
      <point x="160" y="69" type="line" smooth="yes"/>
      <point x="160" y="41"/>
      <point x="182" y="30"/>
      <point x="202" y="24" type="curve" smooth="yes"/>
      <point x="213" y="20"/>
      <point x="225" y="16"/>
      <point x="225" y="6" type="curve" smooth="yes"/>
      <point x="225" y="-4"/>
      <point x="207" y="-3"/>
      <point x="202" y="-3" type="curve" smooth="yes"/>
      <point x="163" y="-3"/>
      <point x="161" y="2"/>
      <point x="126" y="2" type="curve" smooth="yes"/>
      <point x="91" y="2"/>
      <point x="87" y="-3"/>
      <point x="48" y="-3" type="curve" smooth="yes"/>
      <point x="43" y="-3"/>
      <point x="25" y="-4"/>
      <point x="25" y="6" type="curve" smooth="yes"/>
      <point x="25" y="16"/>
      <point x="37" y="20"/>
      <point x="48" y="24" type="curve" smooth="yes"/>
      <point x="68" y="30"/>
      <point x="90" y="41"/>
      <point x="90" y="69" type="curve" smooth="yes"/>
      <point x="90" y="350" type="line"/>
      <point x="77" y="350"/>
      <point x="59" y="350"/>
      <point x="38" y="352" type="curve" smooth="yes"/>
      <point x="34" y="353"/>
      <point x="27" y="362"/>
      <point x="27" y="369" type="curve" smooth="yes"/>
      <point x="27" y="372"/>
      <point x="29" y="375"/>
      <point x="31" y="376" type="curve" smooth="yes"/>
      <point x="61" y="384"/>
      <point x="72" y="392"/>
      <point x="90" y="402" type="curve"/>
      <point x="90" y="633"/>
      <point x="221" y="706"/>
      <point x="308" y="706" type="curve" smooth="yes"/>
      <point x="393" y="706"/>
      <point x="455" y="643"/>
      <point x="455" y="572" type="curve" smooth="yes"/>
      <point x="455" y="520"/>
      <point x="429" y="492"/>
      <point x="409" y="473" type="curve" smooth="yes"/>
      <point x="376" y="443" type="line"/>
      <point x="355" y="421"/>
      <point x="325" y="406"/>
      <point x="325" y="364" type="curve" smooth="yes"/>
      <point x="325" y="353"/>
      <point x="328" y="338"/>
      <point x="344" y="323" type="curve" smooth="yes"/>
      <point x="437" y="233" type="line"/>
      <point x="464" y="205"/>
      <point x="475" y="179"/>
      <point x="475" y="140" type="curve" smooth="yes"/>
      <point x="475" y="71"/>
      <point x="404" y="16"/>
      <point x="373" y="0" type="curve" smooth="yes"/>
      <point x="349" y="-12"/>
      <point x="336" y="-12"/>
      <point x="300" y="-12" type="curve" smooth="yes"/>
      <point x="284" y="-12"/>
      <point x="242" y="6"/>
      <point x="242" y="29" type="curve" smooth="yes"/>
      <point x="242" y="46"/>
      <point x="253" y="84"/>
      <point x="271" y="84" type="curve" smooth="yes"/>
      <point x="274" y="84"/>
      <point x="277" y="82"/>
      <point x="280" y="80" type="curve" smooth="yes"/>
      <point x="307" y="59"/>
      <point x="335" y="44"/>
      <point x="366" y="44" type="curve" smooth="yes"/>
      <point x="392" y="44"/>
      <point x="423" y="58"/>
      <point x="423" y="98" type="curve" smooth="yes"/>
      <point x="423" y="134"/>
      <point x="399" y="156"/>
      <point x="357" y="196" type="curve" smooth="yes"/>
    </contour>
  </outline>
</glyph>
<glyph name="ae" format="1">
  <advance width="544"/>
  <unicode hex="00E6"/>
  <outline>
    <contour>
      <point x="354" y="8" type="move" name="cedilla"/>
    </contour>
    <contour>
      <point x="299" y="550" type="move" name="top_accent"/>
    </contour>
    <contour>
      <point x="120" y="332" type="curve" smooth="yes"/>
      <point x="117" y="327"/>
      <point x="116" y="320"/>
      <point x="116" y="313" type="curve" smooth="yes"/>
      <point x="116" y="308"/>
      <point x="117" y="304"/>
      <point x="117" y="299" type="curve" smooth="yes"/>
      <point x="117" y="285"/>
      <point x="61" y="264"/>
      <point x="48" y="264" type="curve" smooth="yes"/>
      <point x="42" y="264"/>
      <point x="40" y="270"/>
      <point x="40" y="273" type="curve" smooth="yes"/>
      <point x="40" y="294"/>
      <point x="55" y="320"/>
      <point x="80" y="342" type="curve" smooth="yes"/>
      <point x="111" y="370"/>
      <point x="176" y="414"/>
      <point x="229" y="414" type="curve" smooth="yes"/>
      <point x="249" y="414"/>
      <point x="284" y="395"/>
      <point x="292" y="381" type="curve" smooth="yes"/>
      <point x="295" y="375"/>
      <point x="297" y="375"/>
      <point x="304" y="380" type="curve" smooth="yes"/>
      <point x="328" y="397"/>
      <point x="378" y="413"/>
      <point x="411" y="413" type="curve" smooth="yes"/>
      <point x="463" y="413"/>
      <point x="528" y="383"/>
      <point x="528" y="318" type="curve" smooth="yes"/>
      <point x="528" y="296"/>
      <point x="518" y="291"/>
      <point x="504" y="284" type="curve" smooth="yes"/>
      <point x="491" y="277"/>
      <point x="354" y="218"/>
      <point x="320" y="203" type="curve" smooth="yes"/>
      <point x="314" y="200"/>
      <point x="309" y="190"/>
      <point x="309" y="185" type="curve" smooth="yes"/>
      <point x="309" y="129" type="line" smooth="yes"/>
      <point x="309" y="63"/>
      <point x="353" y="46"/>
      <point x="397" y="46" type="curve" smooth="yes"/>
      <point x="437" y="46"/>
      <point x="476" y="57"/>
      <point x="508" y="94" type="curve" smooth="yes"/>
      <point x="511" y="97"/>
      <point x="514" y="98"/>
      <point x="517" y="98" type="curve" smooth="yes"/>
      <point x="524" y="98"/>
      <point x="530" y="93"/>
      <point x="530" y="87" type="curve" smooth="yes"/>
      <point x="530" y="86"/>
      <point x="530" y="84"/>
      <point x="529" y="83" type="curve" smooth="yes"/>
      <point x="485" y="19"/>
      <point x="442" y="-14"/>
      <point x="366" y="-14" type="curve" smooth="yes"/>
      <point x="327" y="-14"/>
      <point x="288" y="0"/>
      <point x="257" y="26" type="curve" smooth="yes"/>
      <point x="254" y="29"/>
      <point x="246" y="38"/>
      <point x="244" y="38" type="curve" smooth="yes"/>
      <point x="242" y="38"/>
      <point x="239" y="37"/>
      <point x="236" y="34" type="curve" smooth="yes"/>
      <point x="220" y="22"/>
      <point x="189" y="-13"/>
      <point x="121" y="-14" type="curve" smooth="yes"/>
      <point x="80" y="-14"/>
      <point x="35" y="26"/>
      <point x="35" y="65" type="curve" smooth="yes"/>
      <point x="35" y="107"/>
      <point x="59" y="133"/>
      <point x="108" y="155" type="curve" smooth="yes"/>
      <point x="212" y="202" type="line" smooth="yes"/>
      <point x="238" y="214"/>
      <point x="241" y="217"/>
      <point x="241" y="233" type="curve" smooth="yes"/>
      <point x="241" y="299" type="line" smooth="yes"/>
      <point x="241" y="334"/>
      <point x="218" y="365"/>
      <point x="181" y="365" type="curve" smooth="yes"/>
      <point x="157" y="365"/>
      <point x="128" y="346"/>
    </contour>
    <contour>
      <point x="310" y="321" type="curve"/>
      <point x="310" y="254" type="line" smooth="yes"/>
      <point x="310" y="244"/>
      <point x="320" y="242"/>
      <point x="325" y="244" type="curve" smooth="yes"/>
      <point x="374" y="264"/>
      <point x="433" y="284"/>
      <point x="452" y="292" type="curve" smooth="yes"/>
      <point x="458" y="294"/>
      <point x="459" y="300"/>
      <point x="459" y="306" type="curve" smooth="yes"/>
      <point x="459" y="315"/>
      <point x="456" y="325"/>
      <point x="455" y="328" type="curve" smooth="yes"/>
      <point x="440" y="365"/>
      <point x="415" y="378"/>
      <point x="385" y="378" type="curve" smooth="yes"/>
      <point x="368" y="378"/>
      <point x="311" y="356"/>
    </contour>
    <contour>
      <point x="115" y="87" type="curve"/>
      <point x="115" y="49"/>
      <point x="145" y="32"/>
      <point x="164" y="32" type="curve" smooth="yes"/>
      <point x="190" y="32"/>
      <point x="210" y="45"/>
      <point x="226" y="59" type="curve" smooth="yes"/>
      <point x="233" y="65"/>
      <point x="240" y="71"/>
      <point x="240" y="96" type="curve" smooth="yes"/>
      <point x="240" y="148" type="line" smooth="yes"/>
      <point x="240" y="164"/>
      <point x="240" y="172"/>
      <point x="232" y="172" type="curve" smooth="yes"/>
      <point x="216" y="172"/>
      <point x="117" y="139"/>
    </contour>
  </outline>
</glyph>
<glyph name="divide" format="1">
  <advance width="590"/>
  <unicode hex="00F7"/>
  <outline>
    <contour>
      <point x="295" y="161" type="curve" smooth="yes"/>
      <point x="320" y="161"/>
      <point x="341" y="140"/>
      <point x="341" y="115" type="curve" smooth="yes"/>
      <point x="341" y="90"/>
      <point x="320" y="69"/>
      <point x="295" y="69" type="curve" smooth="yes"/>
      <point x="270" y="69"/>
      <point x="249" y="90"/>
      <point x="249" y="115" type="curve" smooth="yes"/>
      <point x="249" y="140"/>
      <point x="270" y="161"/>
    </contour>
    <contour>
      <point x="295" y="445" type="curve" smooth="yes"/>
      <point x="320" y="445"/>
      <point x="340" y="424"/>
      <point x="340" y="399" type="curve" smooth="yes"/>
      <point x="340" y="374"/>
      <point x="319" y="353"/>
      <point x="294" y="353" type="curve" smooth="yes"/>
      <point x="269" y="353"/>
      <point x="248" y="374"/>
      <point x="248" y="399" type="curve" smooth="yes"/>
      <point x="248" y="425"/>
      <point x="269" y="445"/>
    </contour>
    <contour>
      <point x="64" y="232" type="line" smooth="yes"/>
      <point x="57" y="232"/>
      <point x="50" y="238"/>
      <point x="50" y="244" type="curve" smooth="yes"/>
      <point x="50" y="253"/>
      <point x="56" y="282"/>
      <point x="74" y="282" type="curve" smooth="yes"/>
      <point x="527" y="282" type="line" smooth="yes"/>
      <point x="533" y="282"/>
      <point x="541" y="277"/>
      <point x="541" y="271" type="curve" smooth="yes"/>
      <point x="541" y="270"/>
      <point x="540" y="269"/>
      <point x="540" y="268" type="curve" smooth="yes"/>
      <point x="534" y="251"/>
      <point x="528" y="232"/>
      <point x="509" y="232" type="curve" smooth="yes"/>
    </contour>
  </outline>
</glyph>
<glyph name="dcroat" format="1">
  <advance width="506"/>
  <unicode hex="0111"/>
  <outline>
    <contour>
      <point x="229" y="379" type="curve" smooth="yes"/>
      <point x="190" y="379"/>
      <point x="109" y="347"/>
      <point x="109" y="213" type="curve" smooth="yes"/>
      <point x="109" y="62"/>
      <point x="213" y="31"/>
      <point x="257" y="31" type="curve" smooth="yes"/>
      <point x="313" y="31"/>
      <point x="352" y="72"/>
      <point x="352" y="120" type="curve" smooth="yes"/>
      <point x="352" y="255" type="line" smooth="yes"/>
      <point x="352" y="311"/>
      <point x="307" y="379"/>
    </contour>
    <contour>
      <point x="338" y="393" type="curve" smooth="yes"/>
      <point x="342" y="388"/>
      <point x="346" y="384"/>
      <point x="348" y="384" type="curve" smooth="yes"/>
      <point x="351" y="384"/>
      <point x="352" y="390"/>
      <point x="352" y="408" type="curve" smooth="yes"/>
      <point x="352" y="535" type="line"/>
      <point x="214" y="535" type="line" smooth="yes"/>
      <point x="205" y="535"/>
      <point x="200" y="547"/>
      <point x="200" y="553" type="curve" smooth="yes"/>
      <point x="200" y="562"/>
      <point x="212" y="571"/>
      <point x="224" y="571" type="curve" smooth="yes"/>
      <point x="352" y="571" type="line"/>
      <point x="351" y="621"/>
      <point x="334" y="632"/>
      <point x="301" y="639" type="curve" smooth="yes"/>
      <point x="296" y="640"/>
      <point x="293" y="646"/>
      <point x="293" y="652" type="curve" smooth="yes"/>
      <point x="293" y="657"/>
      <point x="295" y="663"/>
      <point x="300" y="664" type="curve" smooth="yes"/>
      <point x="373" y="681"/>
      <point x="408" y="704"/>
      <point x="422" y="704" type="curve" smooth="yes"/>
      <point x="426" y="704"/>
      <point x="428" y="702"/>
      <point x="429" y="698" type="curve"/>
      <point x="429" y="686"/>
      <point x="422" y="654"/>
      <point x="422" y="571" type="curve"/>
      <point x="503" y="571" type="line" smooth="yes"/>
      <point x="509" y="571"/>
      <point x="517" y="566"/>
      <point x="517" y="560" type="curve" smooth="yes"/>
      <point x="517" y="559"/>
      <point x="516" y="558"/>
      <point x="516" y="557" type="curve" smooth="yes"/>
      <point x="509" y="544"/>
      <point x="500" y="535"/>
      <point x="485" y="535" type="curve" smooth="yes"/>
      <point x="422" y="535" type="line"/>
      <point x="422" y="110" type="line" smooth="yes"/>
      <point x="422" y="68"/>
      <point x="427" y="45"/>
      <point x="443" y="45" type="curve" smooth="yes"/>
      <point x="453" y="45"/>
      <point x="479" y="46"/>
      <point x="489" y="48" type="curve" smooth="yes"/>
      <point x="494" y="49"/>
      <point x="504" y="47"/>
      <point x="504" y="35" type="curve" smooth="yes"/>
      <point x="504" y="24"/>
      <point x="495" y="21"/>
      <point x="490" y="21" type="curve" smooth="yes"/>
      <point x="438" y="14"/>
      <point x="402" y="-1"/>
      <point x="373" y="-13" type="curve" smooth="yes"/>
      <point x="369" y="-15"/>
      <point x="355" y="-19"/>
      <point x="349" y="-19" type="curve" smooth="yes"/>
      <point x="345" y="-19"/>
      <point x="346" y="-18"/>
      <point x="346" y="-15" type="curve" smooth="yes"/>
      <point x="346" y="-2"/>
      <point x="351" y="34"/>
      <point x="351" y="51" type="curve" smooth="yes"/>
      <point x="351" y="57" type="line"/>
      <point x="331" y="26"/>
      <point x="286" y="-14"/>
      <point x="220" y="-14" type="curve" smooth="yes"/>
      <point x="106" y="-14"/>
      <point x="35" y="89"/>
      <point x="35" y="190" type="curve" smooth="yes"/>
      <point x="35" y="306"/>
      <point x="120" y="414"/>
      <point x="260" y="414" type="curve" smooth="yes"/>
      <point x="288" y="414"/>
      <point x="332" y="400"/>
    </contour>
  </outline>
</glyph>
<glyph name="eogonek" format="1">
  <advance width="388"/>
  <unicode hex="0119"/>
  <outline>
    <contour>
      <point x="243" y="-287" type="curve" smooth="yes"/>
      <point x="185" y="-287"/>
      <point x="142" y="-253"/>
      <point x="142" y="-179" type="curve" smooth="yes"/>
      <point x="142" y="-107"/>
      <point x="204" y="-43"/>
      <point x="245" y="-9" type="curve"/>
      <point x="231" y="-12"/>
      <point x="215" y="-14"/>
      <point x="198" y="-14" type="curve" smooth="yes"/>
      <point x="107" y="-14"/>
      <point x="30" y="70"/>
      <point x="30" y="203" type="curve" smooth="yes"/>
      <point x="30" y="316"/>
      <point x="116" y="414"/>
      <point x="229" y="414" type="curve" smooth="yes"/>
      <point x="310" y="414"/>
      <point x="358" y="376"/>
      <point x="358" y="323" type="curve" smooth="yes"/>
      <point x="358" y="290"/>
      <point x="351" y="275"/>
      <point x="337" y="268" type="curve" smooth="yes"/>
      <point x="323" y="261"/>
      <point x="303" y="257"/>
      <point x="281" y="257" type="curve" smooth="yes"/>
      <point x="117" y="257" type="line" smooth="yes"/>
      <point x="101" y="257"/>
      <point x="92" y="254"/>
      <point x="92" y="220" type="curve" smooth="yes"/>
      <point x="92" y="130"/>
      <point x="153" y="46"/>
      <point x="243" y="46" type="curve" smooth="yes"/>
      <point x="268" y="46"/>
      <point x="311" y="56"/>
      <point x="337" y="90" type="curve" smooth="yes"/>
      <point x="340" y="93"/>
      <point x="345" y="97"/>
      <point x="348" y="97" type="curve" smooth="yes"/>
      <point x="355" y="97"/>
      <point x="356" y="85"/>
      <point x="354" y="77" type="curve" smooth="yes"/>
      <point x="349" y="59"/>
      <point x="331" y="35"/>
      <point x="303" y="16" type="curve"/>
      <point x="287" y="4"/>
      <point x="216" y="-55"/>
      <point x="216" y="-152" type="curve" smooth="yes"/>
      <point x="216" y="-196"/>
      <point x="242" y="-221"/>
      <point x="276" y="-221" type="curve" smooth="yes"/>
      <point x="311" y="-221"/>
      <point x="330" y="-200"/>
      <point x="335" y="-200" type="curve" smooth="yes"/>
      <point x="339" y="-200"/>
      <point x="343" y="-201"/>
      <point x="343" y="-207" type="curve" smooth="yes"/>
      <point x="343" y="-226"/>
      <point x="299" y="-287"/>
    </contour>
    <contour>
      <point x="213" y="383" type="curve" smooth="yes"/>
      <point x="157" y="383"/>
      <point x="111" y="329"/>
      <point x="111" y="303" type="curve" smooth="yes"/>
      <point x="111" y="295"/>
      <point x="116" y="288"/>
      <point x="130" y="288" type="curve" smooth="yes"/>
      <point x="212" y="288" type="line" smooth="yes"/>
      <point x="241" y="288"/>
      <point x="264" y="289"/>
      <point x="285" y="293" type="curve" smooth="yes"/>
      <point x="292" y="294"/>
      <point x="295" y="310"/>
      <point x="295" y="321" type="curve" smooth="yes"/>
      <point x="295" y="361"/>
      <point x="252" y="383"/>
    </contour>
  </outline>
</glyph>
<glyph name="hbar" format="1">
  <advance width="497"/>
  <unicode hex="0127"/>
  <outline>
    <contour>
      <point x="231" y="-100" type="move" name="below_accent"/>
    </contour>
    <contour>
      <point x="242" y="757" type="move" name="top_accent"/>
    </contour>
    <contour>
      <point x="427" y="68" type="line" smooth="yes"/>
      <point x="427" y="41"/>
      <point x="450" y="30"/>
      <point x="470" y="24" type="curve" smooth="yes"/>
      <point x="481" y="20"/>
      <point x="493" y="16"/>
      <point x="493" y="6" type="curve" smooth="yes"/>
      <point x="493" y="-2"/>
      <point x="480" y="-3"/>
      <point x="473" y="-3" type="curve" smooth="yes"/>
      <point x="472" y="-3"/>
      <point x="471" y="-3"/>
      <point x="470" y="-3" type="curve" smooth="yes"/>
      <point x="431" y="-3"/>
      <point x="427" y="2"/>
      <point x="392" y="2" type="curve" smooth="yes"/>
      <point x="357" y="2"/>
      <point x="357" y="-3"/>
      <point x="318" y="-3" type="curve" smooth="yes"/>
      <point x="317" y="-3"/>
      <point x="316" y="-3"/>
      <point x="315" y="-3" type="curve" smooth="yes"/>
      <point x="308" y="-3"/>
      <point x="295" y="-2"/>
      <point x="295" y="6" type="curve" smooth="yes"/>
      <point x="295" y="16"/>
      <point x="307" y="20"/>
      <point x="318" y="24" type="curve" smooth="yes"/>
      <point x="338" y="30"/>
      <point x="357" y="41"/>
      <point x="357" y="68" type="curve" smooth="yes"/>
      <point x="357" y="272" type="line" smooth="yes"/>
      <point x="357" y="323"/>
      <point x="306" y="362"/>
      <point x="263" y="362" type="curve" smooth="yes"/>
      <point x="238" y="362"/>
      <point x="199" y="355"/>
      <point x="180" y="340" type="curve" smooth="yes"/>
      <point x="159" y="323"/>
      <point x="153" y="309"/>
      <point x="153" y="268" type="curve" smooth="yes"/>
      <point x="153" y="65" type="line"/>
      <point x="154" y="38"/>
      <point x="171" y="30"/>
      <point x="191" y="24" type="curve" smooth="yes"/>
      <point x="202" y="20"/>
      <point x="214" y="16"/>
      <point x="214" y="6" type="curve" smooth="yes"/>
      <point x="214" y="-2"/>
      <point x="202" y="-3"/>
      <point x="194" y="-3" type="curve" smooth="yes"/>
      <point x="193" y="-3"/>
      <point x="192" y="-3"/>
      <point x="191" y="-3" type="curve" smooth="yes"/>
      <point x="152" y="-3"/>
      <point x="153" y="2"/>
      <point x="118" y="2" type="curve" smooth="yes"/>
      <point x="83" y="2"/>
      <point x="79" y="-3"/>
      <point x="40" y="-3" type="curve" smooth="yes"/>
      <point x="39" y="-3"/>
      <point x="38" y="-3"/>
      <point x="37" y="-3" type="curve" smooth="yes"/>
      <point x="30" y="-3"/>
      <point x="17" y="-2"/>
      <point x="17" y="6" type="curve" smooth="yes"/>
      <point x="17" y="16"/>
      <point x="29" y="20"/>
      <point x="40" y="24" type="curve" smooth="yes"/>
      <point x="60" y="30"/>
      <point x="83" y="38"/>
      <point x="83" y="65" type="curve" smooth="yes"/>
      <point x="83" y="538" type="line"/>
      <point x="29" y="538" type="line" smooth="yes"/>
      <point x="20" y="538"/>
      <point x="15" y="547"/>
      <point x="15" y="553" type="curve" smooth="yes"/>
      <point x="15" y="562"/>
      <point x="27" y="571"/>
      <point x="39" y="571" type="curve" smooth="yes"/>
      <point x="83" y="571" type="line"/>
      <point x="82" y="605"/>
      <point x="70" y="632"/>
      <point x="38" y="639" type="curve" smooth="yes"/>
      <point x="33" y="640"/>
      <point x="30" y="646"/>
      <point x="30" y="652" type="curve" smooth="yes"/>
      <point x="30" y="658"/>
      <point x="33" y="663"/>
      <point x="37" y="664" type="curve" smooth="yes"/>
      <point x="88" y="676"/>
      <point x="121" y="692"/>
      <point x="153" y="704" type="curve" smooth="yes"/>
      <point x="154" y="704"/>
      <point x="155" y="705"/>
      <point x="155" y="705" type="curve"/>
      <point x="159" y="705"/>
      <point x="160" y="701"/>
      <point x="162" y="698" type="curve"/>
      <point x="162" y="686"/>
      <point x="154" y="670"/>
      <point x="153" y="571" type="curve"/>
      <point x="293" y="571" type="line" smooth="yes"/>
      <point x="300" y="571"/>
      <point x="309" y="564"/>
      <point x="306" y="557" type="curve" smooth="yes"/>
      <point x="299" y="544"/>
      <point x="290" y="538"/>
      <point x="275" y="538" type="curve" smooth="yes"/>
      <point x="153" y="538" type="line"/>
      <point x="153" y="388" type="line" smooth="yes"/>
      <point x="153" y="362"/>
      <point x="156" y="357"/>
      <point x="161" y="351" type="curve"/>
      <point x="192" y="374"/>
      <point x="249" y="414"/>
      <point x="312" y="414" type="curve" smooth="yes"/>
      <point x="377" y="414"/>
      <point x="427" y="372"/>
      <point x="427" y="294" type="curve" smooth="yes"/>
    </contour>
  </outline>
</glyph>
<glyph name="Iogonek" format="1">
  <advance width="340"/>
  <unicode hex="012E"/>
  <outline>
    <contour>
      <point x="152" y="-287" type="curve" smooth="yes"/>
      <point x="89" y="-287"/>
      <point x="38" y="-237"/>
      <point x="38" y="-174" type="curve" smooth="yes"/>
      <point x="38" y="-100"/>
      <point x="130" y="-31"/>
      <point x="179" y="-0" type="curve"/>
      <point x="178" y="0"/>
      <point x="177" y="0"/>
      <point x="176" y="0" type="curve" smooth="yes"/>
      <point x="126" y="0"/>
      <point x="102" y="-5"/>
      <point x="48" y="-5" type="curve" smooth="yes"/>
      <point x="31" y="-5"/>
      <point x="19" y="-2"/>
      <point x="19" y="6" type="curve" smooth="yes"/>
      <point x="19" y="15"/>
      <point x="29" y="20"/>
      <point x="52" y="24" type="curve" smooth="yes"/>
      <point x="102" y="33"/>
      <point x="130" y="51"/>
      <point x="130" y="98" type="curve" smooth="yes"/>
      <point x="130" y="550" type="line" smooth="yes"/>
      <point x="130" y="597"/>
      <point x="113" y="613"/>
      <point x="63" y="622" type="curve" smooth="yes"/>
      <point x="40" y="626"/>
      <point x="30" y="633"/>
      <point x="30" y="642" type="curve" smooth="yes"/>
      <point x="30" y="650"/>
      <point x="42" y="653"/>
      <point x="59" y="653" type="curve" smooth="yes"/>
      <point x="113" y="653"/>
      <point x="130" y="650"/>
      <point x="176" y="650" type="curve" smooth="yes"/>
      <point x="219" y="650"/>
      <point x="231" y="653"/>
      <point x="285" y="653" type="curve" smooth="yes"/>
      <point x="302" y="653"/>
      <point x="314" y="650"/>
      <point x="314" y="642" type="curve" smooth="yes"/>
      <point x="314" y="633"/>
      <point x="304" y="626"/>
      <point x="281" y="622" type="curve" smooth="yes"/>
      <point x="231" y="613"/>
      <point x="210" y="597"/>
      <point x="210" y="550" type="curve" smooth="yes"/>
      <point x="210" y="98" type="line" smooth="yes"/>
      <point x="210" y="51"/>
      <point x="239" y="33"/>
      <point x="289" y="24" type="curve" smooth="yes"/>
      <point x="312" y="20"/>
      <point x="322" y="15"/>
      <point x="322" y="6" type="curve" smooth="yes"/>
      <point x="322" y="-2"/>
      <point x="310" y="-5"/>
      <point x="293" y="-5" type="curve" smooth="yes"/>
      <point x="255" y="-5"/>
      <point x="235" y="-2"/>
      <point x="210" y="-1" type="curve"/>
      <point x="177" y="-29"/>
      <point x="123" y="-85"/>
      <point x="123" y="-155" type="curve" smooth="yes"/>
      <point x="123" y="-190"/>
      <point x="154" y="-216"/>
      <point x="189" y="-216" type="curve" smooth="yes"/>
      <point x="224" y="-216"/>
      <point x="262" y="-181"/>
      <point x="271" y="-176" type="curve" smooth="yes"/>
      <point x="276" y="-173"/>
      <point x="283" y="-174"/>
      <point x="283" y="-182" type="curve" smooth="yes"/>
      <point x="283" y="-225"/>
      <point x="206" y="-287"/>
    </contour>
  </outline>
</glyph>
<glyph name="dotlessi" format="1">
  <advance width="245"/>
  <unicode hex="0131"/>
  <outline>
    <contour>
      <point x="130" y="8" type="move" name="cedilla"/>
    </contour>
    <contour>
      <point x="169" y="18" type="move" name="ogonek"/>
    </contour>
    <contour>
      <point x="115" y="550" type="move" name="top_accent"/>
    </contour>
    <contour>
      <point x="162" y="434" type="curve" smooth="yes"/>
      <point x="166" y="434"/>
      <point x="169" y="432"/>
      <point x="169" y="429" type="curve" smooth="yes"/>
      <point x="165" y="388"/>
      <point x="160" y="339"/>
      <point x="160" y="294" type="curve" smooth="yes"/>
      <point x="160" y="62" type="line" smooth="yes"/>
      <point x="160" y="35"/>
      <point x="183" y="30"/>
      <point x="203" y="24" type="curve" smooth="yes"/>
      <point x="214" y="20"/>
      <point x="226" y="16"/>
      <point x="226" y="6" type="curve" smooth="yes"/>
      <point x="226" y="-2"/>
      <point x="215" y="-3"/>
      <point x="206" y="-3" type="curve" smooth="yes"/>
      <point x="168" y="-3"/>
      <point x="160" y="2"/>
      <point x="125" y="2" type="curve" smooth="yes"/>
      <point x="90" y="2"/>
      <point x="83" y="-3"/>
      <point x="44" y="-3" type="curve" smooth="yes"/>
      <point x="36" y="-3"/>
      <point x="24" y="-2"/>
      <point x="24" y="6" type="curve" smooth="yes"/>
      <point x="24" y="16"/>
      <point x="36" y="20"/>
      <point x="47" y="24" type="curve" smooth="yes"/>
      <point x="67" y="30"/>
      <point x="90" y="35"/>
      <point x="90" y="62" type="curve" smooth="yes"/>
      <point x="90" y="279" type="line" smooth="yes"/>
      <point x="90" y="315"/>
      <point x="77" y="345"/>
      <point x="43" y="352" type="curve" smooth="yes"/>
      <point x="38" y="353"/>
      <point x="35" y="359"/>
      <point x="35" y="365" type="curve" smooth="yes"/>
      <point x="35" y="370"/>
      <point x="38" y="376"/>
      <point x="42" y="377" type="curve" smooth="yes"/>
      <point x="109" y="393"/>
      <point x="154" y="434"/>
    </contour>
  </outline>
</glyph>
<glyph name="kgreenlandic" format="1">
  <advance width="474"/>
  <unicode hex="0138"/>
  <outline>
    <contour>
      <point x="229" y="-100" type="move" name="below_accent"/>
    </contour>
    <contour>
      <point x="231" y="550" type="move" name="top_accent"/>
    </contour>
    <contour>
      <point x="160" y="65" type="line" smooth="yes"/>
      <point x="160" y="38"/>
      <point x="175" y="30"/>
      <point x="195" y="24" type="curve" smooth="yes"/>
      <point x="206" y="20"/>
      <point x="218" y="16"/>
      <point x="218" y="6" type="curve" smooth="yes"/>
      <point x="218" y="-4"/>
      <point x="200" y="-3"/>
      <point x="195" y="-3" type="curve" smooth="yes"/>
      <point x="156" y="-3"/>
      <point x="160" y="2"/>
      <point x="125" y="2" type="curve" smooth="yes"/>
      <point x="90" y="2"/>
      <point x="86" y="-3"/>
      <point x="47" y="-3" type="curve" smooth="yes"/>
      <point x="42" y="-3"/>
      <point x="24" y="-4"/>
      <point x="24" y="6" type="curve" smooth="yes"/>
      <point x="24" y="16"/>
      <point x="36" y="20"/>
      <point x="47" y="24" type="curve" smooth="yes"/>
      <point x="67" y="30"/>
      <point x="90" y="38"/>
      <point x="90" y="65" type="curve" smooth="yes"/>
      <point x="90" y="279" type="line" smooth="yes"/>
      <point x="90" y="315"/>
      <point x="77" y="345"/>
      <point x="43" y="352" type="curve" smooth="yes"/>
      <point x="38" y="353"/>
      <point x="35" y="359"/>
      <point x="35" y="365" type="curve" smooth="yes"/>
      <point x="35" y="370"/>
      <point x="38" y="376"/>
      <point x="42" y="377" type="curve" smooth="yes"/>
      <point x="109" y="393"/>
      <point x="154" y="434"/>
      <point x="162" y="434" type="curve" smooth="yes"/>
      <point x="166" y="434"/>
      <point x="169" y="432"/>
      <point x="169" y="429" type="curve" smooth="yes"/>
      <point x="165" y="388"/>
      <point x="160" y="339"/>
      <point x="160" y="294" type="curve" smooth="yes"/>
      <point x="160" y="231" type="line" smooth="yes"/>
      <point x="160" y="224"/>
      <point x="162" y="223"/>
      <point x="166" y="224" type="curve" smooth="yes"/>
      <point x="175" y="226"/>
      <point x="186" y="235"/>
      <point x="201" y="248" type="curve" smooth="yes"/>
      <point x="255" y="295"/>
      <point x="302" y="342"/>
      <point x="313" y="358" type="curve" smooth="yes"/>
      <point x="314" y="359"/>
      <point x="314" y="360"/>
      <point x="314" y="361" type="curve" smooth="yes"/>
      <point x="314" y="368"/>
      <point x="304" y="375"/>
      <point x="290" y="378" type="curve" smooth="yes"/>
      <point x="287" y="379"/>
      <point x="278" y="383"/>
      <point x="278" y="386" type="curve" smooth="yes"/>
      <point x="278" y="398"/>
      <point x="296" y="400"/>
      <point x="300" y="400" type="curve" smooth="yes"/>
      <point x="349" y="400" type="line" smooth="yes"/>
      <point x="385" y="400"/>
      <point x="418" y="409"/>
      <point x="445" y="412" type="curve" smooth="yes"/>
      <point x="448" y="412"/>
      <point x="453" y="409"/>
      <point x="453" y="405" type="curve" smooth="yes"/>
      <point x="453" y="397"/>
      <point x="442" y="386"/>
      <point x="433" y="384" type="curve" smooth="yes"/>
      <point x="408" y="379"/>
      <point x="381" y="364"/>
      <point x="363" y="353" type="curve" smooth="yes"/>
      <point x="350" y="345"/>
      <point x="283" y="289"/>
      <point x="235" y="247" type="curve" smooth="yes"/>
      <point x="230" y="243"/>
      <point x="228" y="234"/>
      <point x="232" y="230" type="curve" smooth="yes"/>
      <point x="284" y="167"/>
      <point x="358" y="89"/>
      <point x="379" y="70" type="curve" smooth="yes"/>
      <point x="401" y="49"/>
      <point x="441" y="28"/>
      <point x="461" y="22" type="curve" smooth="yes"/>
      <point x="472" y="18"/>
      <point x="484" y="14"/>
      <point x="484" y="4" type="curve" smooth="yes"/>
      <point x="484" y="-4"/>
      <point x="471" y="-5"/>
      <point x="464" y="-5" type="curve" smooth="yes"/>
      <point x="463" y="-5"/>
      <point x="462" y="-5"/>
      <point x="461" y="-5" type="curve" smooth="yes"/>
      <point x="422" y="-5"/>
      <point x="389" y="0"/>
      <point x="340" y="0" type="curve" smooth="yes"/>
      <point x="282" y="0" type="line" smooth="yes"/>
      <point x="277" y="0"/>
      <point x="259" y="-1"/>
      <point x="259" y="9" type="curve" smooth="yes"/>
      <point x="259" y="30"/>
      <point x="303" y="26"/>
      <point x="303" y="46" type="curve" smooth="yes"/>
      <point x="303" y="50"/>
      <point x="300" y="55"/>
      <point x="296" y="60" type="curve" smooth="yes"/>
      <point x="170" y="205" type="line" smooth="yes"/>
      <point x="167" y="208"/>
      <point x="160" y="207"/>
      <point x="160" y="195" type="curve" smooth="yes"/>
    </contour>
  </outline>
</glyph>
<glyph name="Lslash" format="1">
  <advance width="586"/>
  <unicode hex="0141"/>
  <outline>
    <contour>
      <point x="183" y="8" type="move" name="cedilla"/>
    </contour>
    <contour>
      <point x="314" y="-100" type="move" name="below_accent"/>
    </contour>
    <contour>
      <point x="186" y="700" type="move" name="top_accent"/>
    </contour>
    <contour>
      <point x="205" y="567" type="curve" smooth="yes"/>
      <point x="205" y="352" type="line"/>
      <point x="375" y="415" type="line" smooth="yes"/>
      <point x="382" y="418"/>
      <point x="393" y="416"/>
      <point x="393" y="409" type="curve" smooth="yes"/>
      <point x="393" y="389"/>
      <point x="384" y="375"/>
      <point x="375" y="372" type="curve" smooth="yes"/>
      <point x="205" y="310" type="line"/>
      <point x="205" y="96" type="line" smooth="yes"/>
      <point x="205" y="55"/>
      <point x="216" y="35"/>
      <point x="282" y="35" type="curve" smooth="yes"/>
      <point x="428" y="35" type="line" smooth="yes"/>
      <point x="433" y="35"/>
      <point x="466" y="45"/>
      <point x="484" y="61" type="curve" smooth="yes"/>
      <point x="510" y="84"/>
      <point x="519" y="96"/>
      <point x="536" y="132" type="curve" smooth="yes"/>
      <point x="539" y="140"/>
      <point x="549" y="162"/>
      <point x="558" y="162" type="curve" smooth="yes"/>
      <point x="566" y="162"/>
      <point x="570" y="152"/>
      <point x="570" y="144" type="curve" smooth="yes"/>
      <point x="570" y="142"/>
      <point x="569" y="140"/>
      <point x="569" y="139" type="curve" smooth="yes"/>
      <point x="555" y="87"/>
      <point x="546" y="54"/>
      <point x="542" y="12" type="curve" smooth="yes"/>
      <point x="541" y="3"/>
      <point x="538" y="-5"/>
      <point x="528" y="-5" type="curve" smooth="yes"/>
      <point x="394" y="-5"/>
      <point x="285" y="0"/>
      <point x="185" y="0" type="curve" smooth="yes"/>
      <point x="135" y="0"/>
      <point x="50" y="-5"/>
      <point x="50" y="-5" type="curve" smooth="yes"/>
      <point x="32" y="-5"/>
      <point x="22" y="0"/>
      <point x="22" y="7" type="curve" smooth="yes"/>
      <point x="22" y="19"/>
      <point x="40" y="23"/>
      <point x="44" y="24" type="curve" smooth="yes"/>
      <point x="96" y="34"/>
      <point x="125" y="52"/>
      <point x="125" y="96" type="curve" smooth="yes"/>
      <point x="125" y="281" type="line"/>
      <point x="60" y="257" type="line" smooth="yes"/>
      <point x="52" y="254"/>
      <point x="39" y="255"/>
      <point x="39" y="263" type="curve" smooth="yes"/>
      <point x="39" y="277"/>
      <point x="42" y="292"/>
      <point x="53" y="296" type="curve" smooth="yes"/>
      <point x="125" y="322" type="line"/>
      <point x="125" y="560" type="line" smooth="yes"/>
      <point x="125" y="608"/>
      <point x="114" y="613"/>
      <point x="64" y="622" type="curve" smooth="yes"/>
      <point x="41" y="626"/>
      <point x="31" y="633"/>
      <point x="31" y="642" type="curve" smooth="yes"/>
      <point x="31" y="650"/>
      <point x="43" y="653"/>
      <point x="60" y="653" type="curve" smooth="yes"/>
      <point x="114" y="653"/>
      <point x="128" y="650"/>
      <point x="172" y="650" type="curve" smooth="yes"/>
      <point x="221" y="650"/>
      <point x="244" y="653"/>
      <point x="298" y="653" type="curve" smooth="yes"/>
      <point x="315" y="653"/>
      <point x="327" y="650"/>
      <point x="327" y="642" type="curve" smooth="yes"/>
      <point x="327" y="633"/>
      <point x="317" y="626"/>
      <point x="294" y="622" type="curve" smooth="yes"/>
      <point x="244" y="613"/>
      <point x="205" y="606"/>
    </contour>
  </outline>
</glyph>
<glyph name="lslash" format="1">
  <advance width="278"/>
  <unicode hex="0142"/>
  <outline>
    <contour>
      <point x="115" y="-100" type="move" name="below_accent"/>
    </contour>
    <contour>
      <point x="174" y="62" type="line" smooth="yes"/>
      <point x="174" y="35"/>
      <point x="197" y="30"/>
      <point x="217" y="24" type="curve" smooth="yes"/>
      <point x="228" y="20"/>
      <point x="240" y="16"/>
      <point x="240" y="6" type="curve" smooth="yes"/>
      <point x="240" y="-2"/>
      <point x="227" y="-3"/>
      <point x="220" y="-3" type="curve" smooth="yes"/>
      <point x="219" y="-3"/>
      <point x="218" y="-3"/>
      <point x="217" y="-3" type="curve" smooth="yes"/>
      <point x="178" y="-3"/>
      <point x="174" y="2"/>
      <point x="139" y="2" type="curve" smooth="yes"/>
      <point x="104" y="2"/>
      <point x="100" y="-3"/>
      <point x="61" y="-3" type="curve" smooth="yes"/>
      <point x="60" y="-3"/>
      <point x="59" y="-3"/>
      <point x="58" y="-3" type="curve" smooth="yes"/>
      <point x="51" y="-3"/>
      <point x="38" y="-2"/>
      <point x="38" y="6" type="curve" smooth="yes"/>
      <point x="38" y="16"/>
      <point x="50" y="20"/>
      <point x="61" y="24" type="curve" smooth="yes"/>
      <point x="81" y="30"/>
      <point x="104" y="35"/>
      <point x="104" y="62" type="curve" smooth="yes"/>
      <point x="104" y="317" type="line"/>
      <point x="50" y="288" type="line" smooth="yes"/>
      <point x="42" y="284"/>
      <point x="30" y="296"/>
      <point x="30" y="304" type="curve" smooth="yes"/>
      <point x="30" y="313"/>
      <point x="38" y="319"/>
      <point x="43" y="322" type="curve" smooth="yes"/>
      <point x="104" y="355" type="line"/>
      <point x="104" y="566" type="line" smooth="yes"/>
      <point x="104" y="581"/>
      <point x="91" y="632"/>
      <point x="58" y="639" type="curve" smooth="yes"/>
      <point x="53" y="640"/>
      <point x="49" y="646"/>
      <point x="49" y="652" type="curve" smooth="yes"/>
      <point x="49" y="658"/>
      <point x="53" y="663"/>
      <point x="57" y="664" type="curve" smooth="yes"/>
      <point x="108" y="676"/>
      <point x="141" y="692"/>
      <point x="173" y="704" type="curve" smooth="yes"/>
      <point x="174" y="704"/>
      <point x="174" y="705"/>
      <point x="175" y="705" type="curve" smooth="yes"/>
      <point x="178" y="705"/>
      <point x="181" y="701"/>
      <point x="181" y="698" type="curve" smooth="yes"/>
      <point x="181" y="686"/>
      <point x="175" y="652"/>
      <point x="175" y="562" type="curve" smooth="yes"/>
      <point x="175" y="393" type="line"/>
      <point x="232" y="423" type="line" smooth="yes"/>
      <point x="234" y="424"/>
      <point x="237" y="425"/>
      <point x="239" y="425" type="curve" smooth="yes"/>
      <point x="245" y="425"/>
      <point x="250" y="420"/>
      <point x="250" y="405" type="curve" smooth="yes"/>
      <point x="250" y="398"/>
      <point x="241" y="390"/>
      <point x="232" y="385" type="curve" smooth="yes"/>
      <point x="174" y="355" type="line"/>
    </contour>
  </outline>
</glyph>
<glyph name="Eng" format="1">
  <advance width="770"/>
  <unicode hex="014A"/>
  <outline>
    <contour>
      <point x="401" y="-100" type="move" name="below_accent"/>
    </contour>
    <contour>
      <point x="400" y="710" type="move" name="top_accent"/>
    </contour>
    <contour>
      <point x="540" y="-255" type="curve" smooth="yes"/>
      <point x="489" y="-255"/>
      <point x="421" y="-239"/>
      <point x="421" y="-199" type="curve" smooth="yes"/>
      <point x="421" y="-181"/>
      <point x="431" y="-151"/>
      <point x="448" y="-151" type="curve" smooth="yes"/>
      <point x="470" y="-151"/>
      <point x="484" y="-157"/>
      <point x="496" y="-174" type="curve" smooth="yes"/>
      <point x="516" y="-202"/>
      <point x="531" y="-211"/>
      <point x="560" y="-211" type="curve" smooth="yes"/>
      <point x="588" y="-211"/>
      <point x="618" y="-144"/>
      <point x="618" y="-50" type="curve" smooth="yes"/>
      <point x="618" y="-12"/>
      <point x="612" y="0"/>
      <point x="601" y="15" type="curve" smooth="yes"/>
      <point x="583" y="40"/>
      <point x="242" y="456"/>
      <point x="219" y="484" type="curve" smooth="yes"/>
      <point x="209" y="496"/>
      <point x="203" y="500"/>
      <point x="198" y="500" type="curve" smooth="yes"/>
      <point x="191" y="500"/>
      <point x="189" y="487"/>
      <point x="189" y="479" type="curve" smooth="yes"/>
      <point x="187" y="380"/>
      <point x="184" y="227"/>
      <point x="184" y="104" type="curve" smooth="yes"/>
      <point x="184" y="68"/>
      <point x="198" y="33"/>
      <point x="248" y="24" type="curve" smooth="yes"/>
      <point x="271" y="20"/>
      <point x="281" y="15"/>
      <point x="281" y="6" type="curve" smooth="yes"/>
      <point x="281" y="-2"/>
      <point x="269" y="-5"/>
      <point x="252" y="-5" type="curve" smooth="yes"/>
      <point x="198" y="-5"/>
      <point x="195" y="0"/>
      <point x="158" y="0" type="curve" smooth="yes"/>
      <point x="122" y="0"/>
      <point x="121" y="-5"/>
      <point x="67" y="-5" type="curve" smooth="yes"/>
      <point x="50" y="-5"/>
      <point x="38" y="-2"/>
      <point x="38" y="6" type="curve" smooth="yes"/>
      <point x="38" y="15"/>
      <point x="48" y="20"/>
      <point x="71" y="24" type="curve" smooth="yes"/>
      <point x="109" y="31"/>
      <point x="127" y="94"/>
      <point x="129" y="107" type="curve" smooth="yes"/>
      <point x="138" y="182"/>
      <point x="147" y="342"/>
      <point x="147" y="507" type="curve" smooth="yes"/>
      <point x="147" y="578"/>
      <point x="107" y="601"/>
      <point x="48" y="620" type="curve" smooth="yes"/>
      <point x="42" y="622"/>
      <point x="17" y="632"/>
      <point x="17" y="644" type="curve" smooth="yes"/>
      <point x="17" y="656"/>
      <point x="33" y="658"/>
      <point x="40" y="658" type="curve" smooth="yes"/>
      <point x="118" y="656"/>
      <point x="122" y="653"/>
      <point x="194" y="653" type="curve" smooth="yes"/>
      <point x="206" y="653"/>
      <point x="211" y="645"/>
      <point x="218" y="636" type="curve" smooth="yes"/>
      <point x="237" y="609"/>
      <point x="579" y="180"/>
      <point x="599" y="156" type="curve" smooth="yes"/>
      <point x="604" y="150"/>
      <point x="616" y="136"/>
      <point x="624" y="136" type="curve" smooth="yes"/>
      <point x="629" y="136"/>
      <point x="633" y="142"/>
      <point x="634" y="157" type="curve" smooth="yes"/>
      <point x="635" y="189"/>
      <point x="636" y="365"/>
      <point x="636" y="477" type="curve" smooth="yes"/>
      <point x="636" y="564" type="line"/>
      <point x="635" y="590"/>
      <point x="600" y="615"/>
      <point x="578" y="619" type="curve" smooth="yes"/>
      <point x="555" y="623"/>
      <point x="545" y="630"/>
      <point x="545" y="639" type="curve" smooth="yes"/>
      <point x="545" y="647"/>
      <point x="557" y="650"/>
      <point x="574" y="650" type="curve" smooth="yes"/>
      <point x="631" y="650" type="line" smooth="yes"/>
      <point x="679" y="650"/>
      <point x="685" y="653"/>
      <point x="746" y="653" type="curve" smooth="yes"/>
      <point x="763" y="653"/>
      <point x="775" y="650"/>
      <point x="775" y="642" type="curve" smooth="yes"/>
      <point x="775" y="633"/>
      <point x="765" y="626"/>
      <point x="742" y="622" type="curve" smooth="yes"/>
      <point x="692" y="613"/>
      <point x="679" y="601"/>
      <point x="679" y="568" type="curve" smooth="yes"/>
      <point x="679" y="14" type="line" smooth="yes"/>
      <point x="679" y="-7"/>
      <point x="668" y="-255"/>
    </contour>
  </outline>
</glyph>
<glyph name="eng" format="1">
  <advance width="513"/>
  <unicode hex="014B"/>
  <outline>
    <contour>
      <point x="278" y="-100" type="move" name="below_accent"/>
    </contour>
    <contour>
      <point x="271" y="550" type="move" name="top_accent"/>
    </contour>
    <contour>
      <point x="161" y="69" type="line" smooth="yes"/>
      <point x="161" y="41"/>
      <point x="183" y="30"/>
      <point x="203" y="24" type="curve" smooth="yes"/>
      <point x="214" y="20"/>
      <point x="226" y="16"/>
      <point x="226" y="6" type="curve" smooth="yes"/>
      <point x="226" y="-4"/>
      <point x="208" y="-3"/>
      <point x="203" y="-3" type="curve" smooth="yes"/>
      <point x="164" y="-3"/>
      <point x="160" y="2"/>
      <point x="125" y="2" type="curve" smooth="yes"/>
      <point x="90" y="2"/>
      <point x="86" y="-3"/>
      <point x="47" y="-3" type="curve" smooth="yes"/>
      <point x="42" y="-3"/>
      <point x="24" y="-4"/>
      <point x="24" y="6" type="curve" smooth="yes"/>
      <point x="24" y="16"/>
      <point x="36" y="20"/>
      <point x="47" y="24" type="curve" smooth="yes"/>
      <point x="67" y="30"/>
      <point x="89" y="38"/>
      <point x="91" y="66" type="curve"/>
      <point x="92" y="113"/>
      <point x="92" y="154"/>
      <point x="92" y="191" type="curve" smooth="yes"/>
      <point x="92" y="222"/>
      <point x="92" y="249"/>
      <point x="91" y="277" type="curve" smooth="yes"/>
      <point x="89" y="313"/>
      <point x="84" y="342"/>
      <point x="50" y="349" type="curve" smooth="yes"/>
      <point x="45" y="350"/>
      <point x="42" y="356"/>
      <point x="42" y="362" type="curve" smooth="yes"/>
      <point x="42" y="367"/>
      <point x="44" y="373"/>
      <point x="49" y="374" type="curve" smooth="yes"/>
      <point x="101" y="386"/>
      <point x="136" y="412"/>
      <point x="159" y="429" type="curve" smooth="yes"/>
      <point x="160" y="430"/>
      <point x="160" y="430"/>
      <point x="161" y="430" type="curve" smooth="yes"/>
      <point x="164" y="430"/>
      <point x="167" y="424"/>
      <point x="168" y="421" type="curve"/>
      <point x="168" y="411"/>
      <point x="161" y="373"/>
      <point x="161" y="356" type="curve" smooth="yes"/>
      <point x="161" y="352"/>
      <point x="161" y="349"/>
      <point x="162" y="348" type="curve"/>
      <point x="181" y="367"/>
      <point x="268" y="414"/>
      <point x="331" y="414" type="curve" smooth="yes"/>
      <point x="396" y="414"/>
      <point x="439" y="373"/>
      <point x="440" y="295" type="curve" smooth="yes"/>
      <point x="440" y="260"/>
      <point x="443" y="177"/>
      <point x="443" y="90" type="curve" smooth="yes"/>
      <point x="443" y="-16"/>
      <point x="439" y="-128"/>
      <point x="424" y="-173" type="curve" smooth="yes"/>
      <point x="395" y="-259"/>
      <point x="336" y="-288"/>
      <point x="282" y="-288" type="curve" smooth="yes"/>
      <point x="257" y="-288"/>
      <point x="240" y="-288"/>
      <point x="216" y="-278" type="curve" smooth="yes"/>
      <point x="206" y="-274"/>
      <point x="189" y="-262"/>
      <point x="189" y="-255" type="curve" smooth="yes"/>
      <point x="189" y="-239"/>
      <point x="204" y="-207"/>
      <point x="216" y="-207" type="curve" smooth="yes"/>
      <point x="240" y="-207"/>
      <point x="248" y="-256"/>
      <point x="291" y="-256" type="curve" smooth="yes"/>
      <point x="316" y="-256"/>
      <point x="348" y="-236"/>
      <point x="358" y="-201" type="curve" smooth="yes"/>
      <point x="370" y="-160"/>
      <point x="373" y="-53"/>
      <point x="373" y="50" type="curve" smooth="yes"/>
      <point x="373" y="148"/>
      <point x="370" y="242"/>
      <point x="370" y="272" type="curve" smooth="yes"/>
      <point x="370" y="330"/>
      <point x="332" y="365"/>
      <point x="279" y="365" type="curve" smooth="yes"/>
      <point x="245" y="365"/>
      <point x="211" y="353"/>
      <point x="186" y="334" type="curve" smooth="yes"/>
      <point x="171" y="323"/>
      <point x="161" y="309"/>
      <point x="161" y="268" type="curve" smooth="yes"/>
    </contour>
  </outline>
</glyph>
